<svg xmlns="http://www.w3.org/2000/svg" width="168" height="168" viewBox="0 0 168 168"><g transform="translate(-416 -1500)"><g transform="translate(416 1500)" fill="#fff" stroke="#6f55d9" stroke-width="2"><circle cx="84" cy="84" r="84" stroke="none"/><circle cx="84" cy="84" r="83" fill="none"/></g><g transform="translate(453 1538.09)"><path d="M239.47,262.086h-1.925c-.263,0-.545.138-.545.4v3.642h1.925v-3.642C238.925,262.224,239.207,262.086,239.47,262.086Zm0,0" transform="translate(-191.367 -211.64)" fill="#d4e1f4"/><path d="M152.925,322.62V299.8a4.714,4.714,0,0,1,4.632-4.711h-1.925A4.714,4.714,0,0,0,151,299.8V322.62a4.636,4.636,0,0,0,4.632,4.621h1.925A4.636,4.636,0,0,1,152.925,322.62Zm0,0" transform="translate(-121.926 -238.286)" fill="#d4e1f4"/><path d="M206.587,228.375a6.317,6.317,0,1,0-7.514,6.2V241.5a9.317,9.317,0,0,0-2.7-.663h0a7.065,7.065,0,0,0-6.987-7.022h-9.764v-3.642a2.659,2.659,0,0,0-2.708-2.712h-8.075v-3.71a1.155,1.155,0,1,0-2.311,0v3.71h-8.12a2.786,2.786,0,0,0-2.855,2.712v3.642h-9.617A7.026,7.026,0,0,0,139,240.83v22.822a6.949,6.949,0,0,0,6.942,6.932H189.39a6.987,6.987,0,0,0,6.987-6.932h0a11.425,11.425,0,0,0,10.238-11.41,11.139,11.139,0,0,0-5.232-9.569v-8.094a6.22,6.22,0,0,0,5.2-6.2Zm-48.718,1.792c0-.263.281-.4.545-.4h18.505a.355.355,0,0,1,.4.4v3.642H157.869Zm36.2,33.486a4.674,4.674,0,0,1-4.677,4.621H145.942a4.636,4.636,0,0,1-4.632-4.621V240.83a4.714,4.714,0,0,1,4.632-4.711h43.449a4.752,4.752,0,0,1,4.677,4.711Zm10.313-11.411a9.237,9.237,0,0,1-8,9.084V243.157A9.237,9.237,0,0,1,204.38,252.241Zm-8.058-23.866a4,4,0,1,1,4,4A4,4,0,0,1,196.322,228.375Zm0,0" transform="translate(-112.236 -179.319)" fill="#4126b4"/><path d="M193,347.086h-1.139A3.909,3.909,0,0,0,188,350.993v3.292a1.1,1.1,0,0,0,1.162,1.081h6.531a1.1,1.1,0,0,0,1.164-1.081v-3.292A3.912,3.912,0,0,0,193,347.086Zm1.549,5.969H190.31v-2.062a1.6,1.6,0,0,1,1.547-1.6H193a1.6,1.6,0,0,1,1.549,1.6Zm0,0" transform="translate(-151.801 -280.273)" fill="#4126b4"/><path d="M346.953,347.086h-1.14A3.873,3.873,0,0,0,342,350.993v3.292a1.064,1.064,0,0,0,1.118,1.08h6.531a1.14,1.14,0,0,0,1.207-1.081v-3.293A3.948,3.948,0,0,0,346.953,347.086Zm1.592,5.969H344.31v-2.062a1.561,1.561,0,0,1,1.5-1.6h1.14a1.636,1.636,0,0,1,1.592,1.6Zm0,0" transform="translate(-276.149 -280.273)" fill="#4126b4"/><path d="M262.21,405.086H249.148A1.229,1.229,0,0,0,248,406.331v1.14a6.485,6.485,0,0,0,6.539,6.472h2.28a6.524,6.524,0,0,0,6.585-6.472v-1.14A1.267,1.267,0,0,0,262.21,405.086Zm-5.391,6.547h-2.28A4.145,4.145,0,0,1,250.3,407.4h10.752A4.144,4.144,0,0,1,256.819,411.632Zm0,0" transform="translate(-200.249 -327.106)" fill="#4126b4"/><g transform="translate(0 0)"><path d="M67.967,35.86V6.652A6.629,6.629,0,0,0,61.336.086H6.492A6.512,6.512,0,0,0,0,6.652V35.86a6.529,6.529,0,0,0,6.493,6.586h2.2a.707.707,0,0,1,.716.545c1.217,6.886,5.73,8.959,6.7,9.331a1.166,1.166,0,0,0,.73.126,1.231,1.231,0,0,0,1.012-.959,9.933,9.933,0,0,0,.227-1.61c.352-3.766,1.094-7.433,5.853-7.433h37.4a6.646,6.646,0,0,0,6.631-6.586Zm-52.178,13.7c-1.329-.889-3.382-2.878-4.1-6.964a3.006,3.006,0,0,0-2.991-2.458h-2.2A4.217,4.217,0,0,1,2.309,35.86V6.652A4.2,4.2,0,0,1,6.492,2.4H61.336a4.316,4.316,0,0,1,4.32,4.256V35.86a4.333,4.333,0,0,1-4.32,4.276h-37.4c-7.173,0-7.87,6.512-8.143,9.422Zm0,0" transform="translate(0.001 -0.086)" fill="#33c7e5"/><path d="M248.544,125.086H234.679a1.155,1.155,0,1,0,0,2.311h13.865a1.155,1.155,0,1,0,0-2.311Zm0,0" transform="translate(-188.56 -101.018)" fill="#33c7e5"/><path d="M87.163,125.086a1.155,1.155,0,1,0,0,2.311h21.854a1.155,1.155,0,1,0,0-2.311Zm0,0" transform="translate(-69.447 -101.018)" fill="#33c7e5"/><path d="M35.905,127.4h4.77a1.155,1.155,0,1,0,0-2.311h-4.77a1.155,1.155,0,1,0,0,2.311Zm0,0" transform="translate(-28.059 -101.018)" fill="#33c7e5"/><path d="M291.509,90.086h-3.62a1.155,1.155,0,1,0,0,2.311h3.62a1.155,1.155,0,1,0,0-2.311Zm0,0" transform="translate(-231.525 -72.757)" fill="#33c7e5"/><path d="M236.141,92.4a1.155,1.155,0,0,0,0-2.311h-6.061a1.155,1.155,0,0,0,0,2.311Zm0,0" transform="translate(-184.847 -72.757)" fill="#33c7e5"/><path d="M35.905,92.4H68.182a1.155,1.155,0,1,0,0-2.311H35.905a1.155,1.155,0,0,0,0,2.311Zm0,0" transform="translate(-28.059 -72.757)" fill="#33c7e5"/><path d="M294.418,48.086h-2.927a1.155,1.155,0,1,0,0,2.311h2.927a1.155,1.155,0,0,0,0-2.311Zm0,0" transform="translate(-234.433 -38.844)" fill="#33c7e5"/><path d="M199.69,50.4h12.536a1.155,1.155,0,1,0,0-2.311H199.69a1.155,1.155,0,0,0,0,2.311Zm0,0" transform="translate(-160.308 -38.844)" fill="#33c7e5"/><path d="M35.905,50.4H62.33a1.155,1.155,0,0,0,0-2.311H35.905a1.155,1.155,0,1,0,0,2.311Zm0,0" transform="translate(-28.059 -38.844)" fill="#33c7e5"/><path d="M234.129,160.086h-.56a1.155,1.155,0,0,0,0,2.311h.56a1.155,1.155,0,1,0,0-2.311Zm0,0" transform="translate(-187.664 -129.279)" fill="#33c7e5"/><path d="M167.189,160.086H157.171a1.155,1.155,0,0,0,0,2.311h10.018a1.155,1.155,0,1,0,0-2.311Zm0,0" transform="translate(-125.976 -129.279)" fill="#33c7e5"/><path d="M52.864,160.086H35.905a1.155,1.155,0,1,0,0,2.311H52.864a1.155,1.155,0,1,0,0-2.311Zm0,0" transform="translate(-28.059 -129.279)" fill="#33c7e5"/></g></g></g></svg>