<svg xmlns="http://www.w3.org/2000/svg" width="168" height="169" viewBox="0 0 168 169"><g transform="translate(-416 -1810)"><g transform="translate(416 1810)" fill="#fff" stroke="#6f55d9" stroke-width="2"><ellipse cx="84" cy="84.5" rx="84" ry="84.5" stroke="none"/><ellipse cx="84" cy="84.5" rx="83" ry="83.5" fill="none"/></g><g transform="translate(453 1868.807)"><g transform="translate(20.581 1.742)"><path d="M113.992,61.676a9.041,9.041,0,0,1,3.1-.9c-.025-.036-.053-.069-.077-.106a4.483,4.483,0,0,1,1.253-6.215c.106-.07.214-.135.324-.2.022.039.041.079.063.117a1.183,1.183,0,1,0,2.049-1.185,6.744,6.744,0,0,1,3.866-9.817,6.743,6.743,0,0,0-7.811,9.817,1.183,1.183,0,0,1-2.049,1.185c-.023-.038-.041-.078-.063-.117-.111.061-.219.126-.324.2a4.472,4.472,0,0,0-.33,7.22Zm0,0" transform="translate(-111.271 -36.54)" fill="#d4e1f4"/><path d="M189.385,15.069a1.181,1.181,0,0,1,.478.875,6.7,6.7,0,0,1,2.062,1.029,1.183,1.183,0,1,0,1.4-1.9q-.3-.222-.614-.417a3.757,3.757,0,0,1,1.364-4.97,3.767,3.767,0,0,0-5.309,4.97q.315.2.615.417Zm0,0" transform="translate(-172.65 -9.119)" fill="#d4e1f4"/><path d="M193.086,236.363a7.1,7.1,0,0,0,1.828-4.761,1.184,1.184,0,0,0-2.368,0,4.745,4.745,0,0,1-3.187,4.507c-.071.086-.143.171-.217.254a4.753,4.753,0,0,0,4.6.362A4.779,4.779,0,0,1,193.086,236.363Zm0,0" transform="translate(-173.304 -187.808)" fill="#d4e1f4"/><path d="M116.708,154.325v-1.448a6.752,6.752,0,0,0,.947.056,1.162,1.162,0,0,0,1.159-1.184,1.193,1.193,0,0,0-1.2-1.183,6.742,6.742,0,1,1-.009-13.484,1.184,1.184,0,0,0,0-2.367,9.035,9.035,0,0,0-2.977.5,1.182,1.182,0,0,1-.966,1.864,6.742,6.742,0,1,0,.009,13.484,1.194,1.194,0,0,1,1.2,1.183,1.163,1.163,0,0,1-1.16,1.184,6.766,6.766,0,0,1-.947-.056v1.447a4.71,4.71,0,0,0,6.685,4.327,4.753,4.753,0,0,1-2.739-4.327Zm0,0" transform="translate(-106.891 -110.532)" fill="#d4e1f4"/><path d="M320.913,49.818a6.736,6.736,0,0,1-.9,3.371,1.184,1.184,0,1,0,2.049,1.186c.023-.038.041-.079.063-.117.11.061.219.125.324.2a4.483,4.483,0,0,1,1.253,6.215c-.025.036-.051.07-.077.105a9.067,9.067,0,0,1,3.1.9,4.479,4.479,0,0,0-.33-7.22q-.159-.1-.325-.195c-.022.038-.041.078-.062.117a1.183,1.183,0,1,1-2.049-1.185,6.741,6.741,0,0,0-7.812-9.817,6.753,6.753,0,0,1,4.768,6.446Zm0,0" transform="translate(-275.854 -36.537)" fill="#d4e1f4"/><path d="M275.716,12.886a3.771,3.771,0,0,1-.438,1.763q-.314.2-.615.417a1.184,1.184,0,0,0,1.407,1.9,6.683,6.683,0,0,1,2.06-1.028,1.179,1.179,0,0,1,.478-.876q.3-.222.614-.417a3.767,3.767,0,0,0-5.308-4.97,3.768,3.768,0,0,1,1.8,3.207Zm0,0" transform="translate(-241.755 -9.116)" fill="#d4e1f4"/><path d="M275.31,231.639a1.174,1.174,0,0,0-2.349,0,7.1,7.1,0,0,0,1.831,4.761,4.8,4.8,0,0,1-.659.363,4.756,4.756,0,0,0,4.6-.363q-.111-.124-.217-.253A4.757,4.757,0,0,1,275.31,231.639Zm0,0" transform="translate(-240.985 -187.846)" fill="#d4e1f4"/><path d="M325.78,150.569a6.742,6.742,0,1,0,0-13.484,1.183,1.183,0,0,1-.968-1.863,9.032,9.032,0,0,0-2.977-.5,1.184,1.184,0,1,0,0,2.367,6.742,6.742,0,0,1,0,13.484,1.183,1.183,0,0,0-1.183,1.183,1.142,1.142,0,0,0,1.134,1.184,6.768,6.768,0,0,0,.948-.056v1.447a4.756,4.756,0,0,1-2.742,4.328,4.714,4.714,0,0,0,6.686-4.328V152.88a6.759,6.759,0,0,1-.947.056,1.143,1.143,0,0,1-1.135-1.184A1.183,1.183,0,0,1,325.78,150.569Zm0,0" transform="translate(-278.961 -110.534)" fill="#d4e1f4"/></g><path d="M335.748,99.535a1.156,1.156,0,0,0,1.634.02,4.062,4.062,0,0,0,.625-.79,1.155,1.155,0,0,0,.963-2.1,1.76,1.76,0,0,1-.928-2.014,1.155,1.155,0,0,0-2.238-.575,4.07,4.07,0,0,0,.423,3.048,1.746,1.746,0,0,1-.46.776A1.155,1.155,0,0,0,335.748,99.535Zm0,0" transform="translate(-270.836 -75.275)" fill="#4126b4"/><path d="M284.655,60.236A4.063,4.063,0,0,0,280.28,61.9a1.757,1.757,0,0,1-1.555-.5,1.155,1.155,0,1,0-1.652,1.615A4.019,4.019,0,0,0,278.6,64a4.069,4.069,0,0,0,.982.22,4.061,4.061,0,0,0,.5,1.924,1.155,1.155,0,0,0,2.024-1.115,1.758,1.758,0,0,1,1.191-2.57,1.732,1.732,0,0,1,.781.02,1.156,1.156,0,1,0,.575-2.238Zm0,0" transform="translate(-223.45 -48.549)" fill="#4126b4"/><path d="M299.91,187.726a5.7,5.7,0,0,0-1.3,2,3.378,3.378,0,0,1-3.387-.278,1.155,1.155,0,1,0-1.325,1.892,5.683,5.683,0,0,0,4.359.918,5.723,5.723,0,0,0,1.279,3.118,1.155,1.155,0,1,0,1.783-1.47,3.387,3.387,0,0,1-.66-3.017c.011-.032.02-.065.027-.1a3.382,3.382,0,0,1,.852-1.431,1.155,1.155,0,1,0-1.633-1.635Zm0,0" transform="translate(-236.908 -151.321)" fill="#4126b4"/><path d="M135.454,96.668a1.154,1.154,0,1,0,.963,2.1,4.069,4.069,0,0,0,.626.79,1.155,1.155,0,0,0,1.615-1.652,1.757,1.757,0,0,1-.46-.775,4.072,4.072,0,0,0,.423-3.049,1.155,1.155,0,0,0-2.238.575,1.761,1.761,0,0,1-.929,2.014Zm0,0" transform="translate(-108.83 -75.277)" fill="#4126b4"/><path d="M175.7,64.215a4.051,4.051,0,0,0,2.508-1.2,1.156,1.156,0,1,0-1.652-1.616,1.755,1.755,0,0,1-1.555.5,4.063,4.063,0,0,0-4.375-1.663,1.155,1.155,0,1,0,.575,2.238,1.733,1.733,0,0,1,.781-.019,1.758,1.758,0,0,1,1.191,2.569,1.155,1.155,0,1,0,2.023,1.115,4.062,4.062,0,0,0,.5-1.925Zm0,0" transform="translate(-137.07 -48.549)" fill="#4126b4"/><path d="M155.773,193.022a3.372,3.372,0,0,1-.526.884,1.155,1.155,0,1,0,1.783,1.47,5.723,5.723,0,0,0,1.279-3.118,5.683,5.683,0,0,0,4.359-.918,1.155,1.155,0,1,0-1.325-1.892,3.378,3.378,0,0,1-3.387.278,5.7,5.7,0,0,0-1.3-2,1.155,1.155,0,1,0-1.633,1.635,3.375,3.375,0,0,1,.851,1.431c.008.033.017.066.028.1a3.378,3.378,0,0,1-.133,2.132Zm0,0" transform="translate(-124.904 -151.321)" fill="#4126b4"/><path d="M287.506,27.727a5.057,5.057,0,1,0,0-2.311H277.1a6.928,6.928,0,0,0-.444-4.814h1.22A5.111,5.111,0,0,0,283,15.5a2.8,2.8,0,0,1,2.814-2.792h.821a4.319,4.319,0,0,0,1.409,2.426v0a4.926,4.926,0,0,0,3.539,1.48,5,5,0,0,0,3.556-1.476,5.06,5.06,0,0,0-7.157-7.152A4.688,4.688,0,0,0,286.63,10.4h-.821a5.111,5.111,0,0,0-5.124,5.1,2.8,2.8,0,0,1-2.814,2.792h-3.1c-.135,0-.274-.176-.418-.272a6.474,6.474,0,0,0-.739-.406A8.885,8.885,0,0,0,263.026,6.779a5.993,5.993,0,1,0-11.955-.611V17.719a1.155,1.155,0,1,0,2.311,0V6.168a3.683,3.683,0,1,1,6.94,1.72q-.307.191-.6.407a1.155,1.155,0,0,0,1.373,1.858,6.582,6.582,0,0,1,9.606,8.588,1.155,1.155,0,0,0,2,1.158c.021-.038.04-.077.061-.115.108.059.214.123.317.191a4.365,4.365,0,0,1,.322,7.048,8.834,8.834,0,0,0-3.952-.93,1.155,1.155,0,1,0,0,2.311,6.581,6.581,0,1,1,0,13.161,1.155,1.155,0,0,0-1.155,1.155,1.115,1.115,0,0,0,1.107,1.155,6.545,6.545,0,0,0,.924-.054v1.413a4.611,4.611,0,1,1-9.223,0,1.146,1.146,0,1,0-2.292,0,6.93,6.93,0,0,0,1.788,4.647,4.65,4.65,0,0,1-7.216-3.873V40.431a1.155,1.155,0,1,0-2.311,0V46.01a6.96,6.96,0,0,0,11.405,5.352,6.73,6.73,0,0,0,3.248.832,6.926,6.926,0,0,0,6.911-6.958V43.246a8.683,8.683,0,0,0,5.656-8.26c0-.052.021-.1.02-.155a2.835,2.835,0,0,1,2.361,2.781,5.148,5.148,0,0,0,5.137,5.133h.821a4.665,4.665,0,0,0,1.343,2.407A5.067,5.067,0,1,0,288.039,38v.009a4.319,4.319,0,0,0-1.409,2.426h-.821A2.825,2.825,0,0,1,283,37.612a5.134,5.134,0,0,0-5.017-5.126,8.926,8.926,0,0,0-2.607-4.122,6.593,6.593,0,0,0,.559-.635Zm2.978-3.093a2.742,2.742,0,1,1,0,3.877,2.742,2.742,0,0,1,0-3.877Zm-.876-15a2.742,2.742,0,1,1,0,3.876,2.741,2.741,0,0,1,0-3.876Zm0,30a2.741,2.741,0,1,1,0,3.876A2.741,2.741,0,0,1,289.608,39.633Zm0,0" transform="translate(-202.729 -0.156)" fill="#4126b4"/><path d="M9.513,45.064a4.665,4.665,0,0,0,1.343-2.407h.821A5.138,5.138,0,0,0,16.8,37.523a2.821,2.821,0,0,1,2.349-2.777c0,.052.044.1.044.153a8.683,8.683,0,0,0,5.657,8.259v1.99a6.924,6.924,0,0,0,6.909,6.957,6.808,6.808,0,0,0,3.271-.832,6.945,6.945,0,0,0,11.385-5.352V40.343a1.155,1.155,0,0,0-2.311,0v5.579a4.651,4.651,0,0,1-7.218,3.873,6.929,6.929,0,0,0,1.784-4.647,1.155,1.155,0,0,0-2.311,0,4.6,4.6,0,1,1-9.2,0V43.734a6.659,6.659,0,0,0,.924.054,1.136,1.136,0,0,0,1.131-1.155,1.166,1.166,0,0,0-1.167-1.155,6.581,6.581,0,1,1-.009-13.161,1.155,1.155,0,1,0,0-2.311,8.83,8.83,0,0,0-3.953.93,4.371,4.371,0,0,1,.323-7.048c.1-.068.209-.132.317-.191.021.038.04.077.061.115a1.155,1.155,0,0,0,2-1.158,6.582,6.582,0,0,1,9.606-8.588,1.155,1.155,0,1,0,1.373-1.859q-.293-.217-.6-.407A3.683,3.683,0,1,1,44.106,6.08V17.631a1.155,1.155,0,1,0,2.311,0V6.08a5.994,5.994,0,1,0-11.954.612A8.885,8.885,0,0,0,23.87,17.541a6.477,6.477,0,0,0-.739.39c-.145.1-.284.273-.419.273h-3.1A2.8,2.8,0,0,1,16.8,15.412a5.112,5.112,0,0,0-5.124-5.1h-.821A4.671,4.671,0,0,0,9.513,7.9a5.055,5.055,0,0,0-7.144,7.152,4.978,4.978,0,0,0,7.08,0v-.01a4.322,4.322,0,0,0,1.408-2.426h.821a2.8,2.8,0,0,1,2.814,2.792,5.111,5.111,0,0,0,5.124,5.1h1.22a6.928,6.928,0,0,0-.445,4.814H9.981a5.058,5.058,0,1,0,0,2.311H21.557a6.486,6.486,0,0,0,.56.634,8.907,8.907,0,0,0-2.608,4.12,5.138,5.138,0,0,0-5.017,5.131,2.824,2.824,0,0,1-2.814,2.823h-.821a4.322,4.322,0,0,0-1.408-2.426v-.005a5.016,5.016,0,1,0,.065,7.15ZM7.879,13.424a2.741,2.741,0,1,1,0-3.877,2.74,2.74,0,0,1,0,3.877ZM7,28.423a2.724,2.724,0,1,1,.81-1.938A2.741,2.741,0,0,1,7,28.423ZM4,39.544A2.734,2.734,0,1,1,3.2,41.483,2.742,2.742,0,0,1,4,39.544Zm0,0" transform="translate(0 -0.068)" fill="#4126b4"/><path d="M180.07,96.977a12.708,12.708,0,1,0,15.048-12.491,12.84,12.84,0,0,0-4.679,0A12.7,12.7,0,0,0,180.07,96.977Zm12.708-10.4a10.391,10.391,0,1,1-1.916.177,10.391,10.391,0,0,1,1.916-.177Zm0,0" transform="translate(-145.399 -68.058)" fill="#33c7e5"/><path d="M211.175,124.993c.381,0,.675-.119.763-.448l.658-2.3h3.968l.659,2.3c.086.329.381.449.763.449.606,0,1.42-.4,1.42-.936a.756.756,0,0,0-.034-.173l-3.345-10.9c-.156-.52-.8-.762-1.455-.762a1.408,1.408,0,0,0-1.439.762l-3.344,10.9a1.036,1.036,0,0,0-.035.173C209.754,124.611,210.569,124.993,211.175,124.993Zm3.4-9.8,1.507,5.319h-3.015Zm0,0" transform="translate(-169.367 -90.628)" fill="#33c7e5"/><path d="M267.225,125.428c.554,0,1.155-.243,1.155-.711V113.455c0-.485-.6-.693-1.155-.693-.572,0-1.155.208-1.155.693v11.264C266.07,125.185,266.653,125.428,267.225,125.428Zm0,0" transform="translate(-214.84 -91.063)" fill="#33c7e5"/></g></g></svg>