<svg xmlns="http://www.w3.org/2000/svg" width="168" height="168" viewBox="0 0 168 168"><g transform="translate(-715 -1500)"><g transform="translate(715 1500)" fill="#fff" stroke="#6f55d9" stroke-width="2"><circle cx="84" cy="84" r="84" stroke="none"/><circle cx="84" cy="84" r="83" fill="none"/></g><g transform="translate(752 1538.976)"><path d="M91.513,367.5v5.4a2.5,2.5,0,0,1-.784,1.792,2.54,2.54,0,0,1-1.823.744c-.3-.01-3.387.008-5.19.008H83.7a3.015,3.015,0,0,0-2.986,2.262l-1.24,4.862H81.4l1.24-4.862a3.015,3.015,0,0,1,2.986-2.262h.014c1.8,0,4.888-.018,5.19-.008a2.54,2.54,0,0,0,1.823-.744,2.5,2.5,0,0,0,.784-1.792v-5.4a1.073,1.073,0,0,1,1.1-1.109H92.617a1.073,1.073,0,0,0-1.1,1.109Zm0,0" transform="translate(-64.173 -295.925)" fill="#d4e1f4"/><path d="M95.911,249.9a1.285,1.285,0,0,1-.077-.432c0-1.471-.013-3.145-.023-3.348a15.247,15.247,0,0,0-15.261-14.45h-.174q-.2,0-.395.009c-.138.005-.276.013-.414.022a15.24,15.24,0,0,1,14.319,14.418c.011.2.02,1.877.023,3.348a1.288,1.288,0,0,0,.077.432l2.933,7.712h1.925Zm0,0" transform="translate(-64.246 -187.138)" fill="#d4e1f4"/><path d="M311.992,318.4h1.925v2.311h-1.925Zm0,0" transform="translate(-251.92 -257.169)" fill="#d4e1f4"/><path d="M252.917,359.727V347.019a4.621,4.621,0,0,1,4.621-4.621h-1.925a4.621,4.621,0,0,0-4.621,4.621v12.708a4.621,4.621,0,0,0,4.621,4.621h1.925A4.621,4.621,0,0,1,252.917,359.727Zm0,0" transform="translate(-202.665 -276.548)" fill="#d4e1f4"/><path d="M3.684,249.428c.554,5.949-1.962,15.486-1.987,15.583a1.1,1.1,0,0,0,.2.973,1.13,1.13,0,0,0,.916.424H18.128a1.13,1.13,0,0,0,1.12-.845l1.459-5.749a.723.723,0,0,1,.746-.53h0c2.96,0,4.92-.016,5.114-.01a4.9,4.9,0,0,0,3.517-1.374,4.837,4.837,0,0,0,1.487-3.471v-4.195h3.639a1.918,1.918,0,0,0,1.762-2.593L33.9,239.568c0-.909-.01-2.988-.027-3.265A17.55,17.55,0,0,0,16.1,219.673q-.228,0-.454.01a16.1,16.1,0,0,0-13.4,8.064,16.408,16.408,0,0,0-.4,15.877,31.948,31.948,0,0,1,1.831,5.8Zm.567-20.52a13.805,13.805,0,0,1,11.481-6.917q.2-.007.395-.009H16.3a15.247,15.247,0,0,1,15.261,14.45c.011.2.02,1.878.023,3.348a1.281,1.281,0,0,0,.077.432l2.933,7.71h-4.23a1.073,1.073,0,0,0-1.1,1.109v5.4a2.5,2.5,0,0,1-.784,1.792,2.54,2.54,0,0,1-1.823.744c-.3-.01-3.387.008-5.19.008h-.014a3.015,3.015,0,0,0-2.986,2.262l-1.24,4.862H4.291c.707-2.888,2.158-9.938,1.694-14.91a33.874,33.874,0,0,0-2.01-6.495c-.014-.032-.029-.063-.047-.094a14.093,14.093,0,0,1,.323-13.689Zm0,0" transform="translate(0.001 -177.451)" fill="#4126b4"/><path d="M279.876,299.815a6.942,6.942,0,0,0-6.657-4.867h-4.768v-2.382a2.3,2.3,0,0,0-2.365-2.239h-5.529v-2.305a1.155,1.155,0,0,0-2.311,0v2.305h-5.254a2.206,2.206,0,0,0-2.256,2.239v2.382h-4.879a6.816,6.816,0,0,0-6.866,6.852v12.768a6.9,6.9,0,0,0,6.866,6.951h27.361a6.952,6.952,0,0,0,6.63-4.917,8.491,8.491,0,0,0,7.625-8.413,8.654,8.654,0,0,0-3.62-6.953v-5.276a4.821,4.821,0,1,0-2.311,0v4.147a9.429,9.429,0,0,0-1.667-.293Zm.275-8.517a2.493,2.493,0,1,1,2.493,2.493A2.493,2.493,0,0,1,280.151,291.3Zm-27.1,1.34H266.14v2.311H253.047Zm24.838,21.95a4.621,4.621,0,0,1-4.621,4.621H245.923a4.621,4.621,0,0,1-4.621-4.621V301.879a4.621,4.621,0,0,1,4.621-4.621h27.341a4.621,4.621,0,0,1,4.621,4.621Zm7.3-6.4a6.293,6.293,0,0,1-4.987,6.032V302.152A6.293,6.293,0,0,1,285.182,308.184Zm0,0" transform="translate(-192.975 -231.408)" fill="#4126b4"/><path d="M276.458,375.141a3.47,3.47,0,0,0-3.466,3.466v1.925a1.252,1.252,0,0,0,1.215,1.2h4.621a1.15,1.15,0,0,0,1.1-1.2v-1.925A3.47,3.47,0,0,0,276.458,375.141Zm1.155,4.286H275.3v-.82a1.155,1.155,0,0,1,2.311,0Zm0,0" transform="translate(-220.429 -302.986)" fill="#4126b4"/><path d="M385.458,375.141a3.47,3.47,0,0,0-3.466,3.466v1.925a1.217,1.217,0,0,0,1.177,1.2h4.621a1.181,1.181,0,0,0,1.133-1.2v-1.925A3.47,3.47,0,0,0,385.458,375.141Zm1.155,4.286H384.3v-.82a1.155,1.155,0,0,1,2.311,0Zm0,0" transform="translate(-308.441 -302.986)" fill="#4126b4"/><path d="M326.1,416.4h-9.242a1.146,1.146,0,0,0-1.155,1.145,5.776,5.776,0,1,0,11.553,0A1.149,1.149,0,0,0,326.1,416.4Zm-4.621,4.621a3.468,3.468,0,0,1-3.268-2.31h6.535A3.468,3.468,0,0,1,321.483,421.019Zm0,0" transform="translate(-254.919 -336.3)" fill="#4126b4"/><g transform="translate(9.626 0)"><path d="M81.5,43.709h8.716a1.155,1.155,0,0,0,0-2.311H81.5a1.155,1.155,0,1,0,0,2.311Zm0,0" transform="translate(-74.496 -33.504)" fill="#33c7e5"/><path d="M151.456,43.709h10.9a1.155,1.155,0,0,0,0-2.311h-10.9a1.155,1.155,0,1,0,0,2.311Zm0,0" transform="translate(-130.987 -33.504)" fill="#33c7e5"/><path d="M98.928,67.4H81.5a1.155,1.155,0,0,0,0,2.311H98.928a1.155,1.155,0,0,0,0-2.311Zm0,0" transform="translate(-74.496 -54.498)" fill="#33c7e5"/><path d="M198.906,67.4h-2.18a1.155,1.155,0,1,0,0,2.311h2.18a1.155,1.155,0,1,0,0-2.311Zm0,0" transform="translate(-167.54 -54.498)" fill="#33c7e5"/><path d="M91,93.4H81.5a1.155,1.155,0,0,0,0,2.311H91A1.155,1.155,0,0,0,91,93.4Zm0,0" transform="translate(-74.497 -75.492)" fill="#33c7e5"/><path d="M194.245,135.709h8.716a1.155,1.155,0,0,0,0-2.311h-8.716a1.155,1.155,0,1,0,0,2.311Zm0,0" transform="translate(-165.537 -107.79)" fill="#33c7e5"/><path d="M264.21,135.709h10.9a1.155,1.155,0,1,0,0-2.311h-10.9a1.155,1.155,0,1,0,0,2.311Zm0,0" transform="translate(-222.031 -107.79)" fill="#33c7e5"/><path d="M212.834,159.553a1.155,1.155,0,0,0-1.155-1.155H194.245a1.155,1.155,0,1,0,0,2.311h17.433A1.156,1.156,0,0,0,212.834,159.553Zm0,0" transform="translate(-165.537 -127.976)" fill="#33c7e5"/><path d="M311.659,158.4H309.48a1.155,1.155,0,1,0,0,2.311h2.179a1.155,1.155,0,1,0,0-2.311Zm0,0" transform="translate(-258.584 -127.976)" fill="#33c7e5"/><path d="M203.755,184.4h-9.51a1.155,1.155,0,0,0,0,2.311h9.509a1.155,1.155,0,0,0,0-2.311Zm0,0" transform="translate(-165.537 -148.97)" fill="#33c7e5"/><path d="M279.585,185.553a1.155,1.155,0,0,0-1.155-1.155h-10.1a1.155,1.155,0,1,0,0,2.311h10.1A1.155,1.155,0,0,0,279.585,185.553Zm0,0" transform="translate(-225.355 -148.97)" fill="#33c7e5"/><path d="M97.114,55.938A1.156,1.156,0,0,0,98.236,54.5c-.366-1.473-.974-5.726.595-7.733a3.182,3.182,0,0,1,2.7-1.125h3.417a5.141,5.141,0,0,0,5.117-5.138V22.869a5.144,5.144,0,0,0-5.117-5.142H88.308V5.458A5.035,5.035,0,0,0,83.238.4H55.108a5.074,5.074,0,0,0-5.117,5.06V24.871a5.176,5.176,0,0,0,5.117,5.178h1.8a3.447,3.447,0,0,1,3.018,1.214c1.47,2.008.619,6.125.168,7.545a1.149,1.149,0,0,0,1.539,1.407A16.148,16.148,0,0,0,65.8,37.609c2.535-2.211,3.733-4.864,3.492-7.56h2.455V40.508a5.1,5.1,0,0,0,5.069,5.138h12.83A10.254,10.254,0,0,0,96.813,55.9a1.192,1.192,0,0,0,.3.035ZM71.749,22.869v4.87H68.943a2.059,2.059,0,0,0-1.961,1.354,1.111,1.111,0,0,0-.058.592c.6,3.436-2.043,5.886-4.056,7.226.314-2.1.382-5-1.079-7A5.657,5.657,0,0,0,56.9,27.739h-1.8A2.863,2.863,0,0,1,52.3,24.871V5.458a2.761,2.761,0,0,1,2.806-2.75h28.13A2.721,2.721,0,0,1,86,5.458V17.727H76.818a5.1,5.1,0,0,0-5.069,5.142ZM91.97,45.2a1.806,1.806,0,0,0-.5-1.325,1.761,1.761,0,0,0-1.288-.539H76.818a2.786,2.786,0,0,1-2.759-2.826V22.869a2.792,2.792,0,0,1,2.759-2.832h28.13a2.831,2.831,0,0,1,2.807,2.832V40.508a2.828,2.828,0,0,1-2.807,2.827h-3.417a5.416,5.416,0,0,0-4.521,2.013c-1.628,2.083-1.63,5.308-1.394,7.471A8.083,8.083,0,0,1,91.97,45.2Zm0,0" transform="translate(-49.991 -0.398)" fill="#33c7e5"/></g></g></g></svg>