<svg xmlns="http://www.w3.org/2000/svg" width="168" height="169" viewBox="0 0 168 169"><g transform="translate(-722 -1810)"><g transform="translate(7)"><g transform="translate(715 1810)" fill="#fff" stroke="#6f55d9" stroke-width="2"><ellipse cx="84" cy="84.5" rx="84" ry="84.5" stroke="none"/><ellipse cx="84" cy="84.5" rx="83" ry="83.5" fill="none"/></g><g transform="translate(756 1847.548)"><path d="M18.276,272.862V261.987l16.067-8.806-4.711-2.509L12.5,260.061v10.875a25,25,0,0,0,14.987,22.883l2.075.9.937-.4a24.987,24.987,0,0,1-12.223-21.457Zm0,0" transform="translate(-10.189 -202.406)" fill="#d4e1f4"/><g transform="translate(11.925)"><path d="M131.414,4.472H106.459a7.861,7.861,0,0,0-14.187,0H67.316a4.888,4.888,0,0,0-4.882,4.882v41.08a1.155,1.155,0,0,0,2.311,0V9.354a2.574,2.574,0,0,1,2.572-2.572H91.578A7.87,7.87,0,0,0,91.5,7.863v2.2H80.359A1.156,1.156,0,0,0,79.2,11.217v3.518H74.1a3.022,3.022,0,0,0-3.018,3.018V48.171a1.155,1.155,0,1,0,2.311,0V17.754a.708.708,0,0,1,.708-.708H79.2v3.115a1.155,1.155,0,0,0,1.155,1.155h38.012a1.155,1.155,0,0,0,1.155-1.155V17.046h5.109a.708.708,0,0,1,.708.708V68.469h-5.985a4.886,4.886,0,0,0-4.881,4.881v5.826H85.834a1.155,1.155,0,1,0,0,2.311h29.077a3.48,3.48,0,0,0,.451-.033,1.146,1.146,0,0,0,1.138-.361,3.374,3.374,0,0,0,.809-.6l9.351-9.351a3.369,3.369,0,0,0,.994-2.4V17.754a3.022,3.022,0,0,0-3.018-3.018h-5.109V11.217a1.155,1.155,0,0,0-1.155-1.155H107.228v-2.2a7.752,7.752,0,0,0-.076-1.081h24.262a2.574,2.574,0,0,1,2.572,2.572V86.868a2.574,2.574,0,0,1-2.572,2.572H76.157a1.155,1.155,0,0,0,0,2.311h55.257a4.887,4.887,0,0,0,4.882-4.882V9.354a4.887,4.887,0,0,0-4.882-4.882ZM116.788,77.747v-4.4a2.573,2.573,0,0,1,2.571-2.571h4.4Zm.428-65.375v6.633h-35.7V12.373H92.657a1.156,1.156,0,0,0,1.155-1.155V7.864a5.553,5.553,0,1,1,11.105,0v3.354a1.156,1.156,0,0,0,1.155,1.155Zm0,0" transform="translate(-62.434)" fill="#4126b4"/><path d="M342.228,162.163a1.155,1.155,0,1,0,0-2.311h-1.4a1.155,1.155,0,0,0,0,2.311Zm0,0" transform="translate(-286.291 -129.073)" fill="#4126b4"/><path d="M232.048,159.852H211.511a1.155,1.155,0,1,0,0,2.311h20.537a1.155,1.155,0,1,0,0-2.311Zm0,0" transform="translate(-181.874 -129.073)" fill="#4126b4"/><path d="M150.686,162.163h7.26a1.155,1.155,0,1,0,0-2.311h-7.26a1.155,1.155,0,1,0,0,2.311Zm0,0" transform="translate(-132.761 -129.073)" fill="#4126b4"/><path d="M326.563,213.186a1.156,1.156,0,0,0,1.155,1.155h3.925a1.155,1.155,0,0,0,0-2.311h-3.925A1.156,1.156,0,0,0,326.563,213.186Zm0,0" transform="translate(-275.707 -171.206)" fill="#4126b4"/><path d="M283.2,214.342a1.155,1.155,0,1,0,0-2.311h-5.351a1.155,1.155,0,0,0,0,2.311Zm0,0" transform="translate(-235.443 -171.206)" fill="#4126b4"/><path d="M150.686,214.342h20.75a1.155,1.155,0,0,0,0-2.311h-20.75a1.155,1.155,0,0,0,0,2.311Zm0,0" transform="translate(-132.761 -171.206)" fill="#4126b4"/><path d="M257.07,267.465H235.362a1.155,1.155,0,1,0,0,2.311H257.07a1.155,1.155,0,1,0,0-2.311Zm0,0" transform="translate(-201.133 -215.966)" fill="#4126b4"/><path d="M192.805,268.62a1.155,1.155,0,0,0-1.155-1.155h-5.159a1.155,1.155,0,0,0,0,2.311h5.159A1.156,1.156,0,0,0,192.805,268.62Zm0,0" transform="translate(-161.672 -215.966)" fill="#4126b4"/><path d="M289.441,318.7H275.452a1.155,1.155,0,1,0,0,2.311h13.989a1.155,1.155,0,0,0,0-2.311Zm0,0" transform="translate(-233.504 -257.335)" fill="#4126b4"/><path d="M215.272,321.01h7.336a1.155,1.155,0,0,0,0-2.311h-7.336a1.155,1.155,0,0,0,0,2.311Zm0,0" transform="translate(-184.911 -257.335)" fill="#4126b4"/></g><path d="M56.071,338.555a1.155,1.155,0,1,0-1.757,1.5l4.944,5.79a1.155,1.155,0,0,0,1.607.146l11.514-9.368a1.155,1.155,0,1,0-1.458-1.792l-10.639,8.655Zm0,0" transform="translate(-43.726 -270.147)" fill="#33c7e5"/><path d="M39.892,249.024A1.155,1.155,0,0,0,39.28,248l-18.8-10.019a1.155,1.155,0,0,0-1.1.007L1.1,248.011a1.156,1.156,0,0,0-.6,1.013v11.559a27.317,27.317,0,0,0,16.372,25l2.537,1.106a1.154,1.154,0,0,0,.92,0l2.857-1.234a27.261,27.261,0,0,0,16.705-25.133Zm-2.311,11.3a24.955,24.955,0,0,1-15.3,23.007l-.008,0-2.4,1.037-2.075-.9A25,25,0,0,1,2.811,260.583V249.708l17.133-9.39,17.637,9.4Zm0,0" transform="translate(-0.5 -192.053)" fill="#33c7e5"/></g></g></g></svg>