<svg xmlns="http://www.w3.org/2000/svg" width="168" height="168" viewBox="0 0 168 168"><g transform="translate(-1334 -1500)"><g transform="translate(1334 1500)" fill="#fff" stroke="#6f55d9" stroke-width="2"><circle cx="84" cy="84" r="84" stroke="none"/><circle cx="84" cy="84" r="83" fill="none"/></g><g transform="translate(1370.901 1540.747)"><path d="M61.146,307c-.339.337-.675.679-1,1.031a34.739,34.739,0,0,0,19.621,10.652c-.828-.578-1.624-1.2-2.393-1.849A34.806,34.806,0,0,1,61.146,307Zm0,0" transform="translate(-48.564 -247.903)" fill="#d4e1f4"/><path d="M19.847,77.039a34.44,34.44,0,0,0-7.793,20.836h1.853a34.394,34.394,0,0,1,6.97-19.788c-.349-.342-.693-.69-1.03-1.048Zm0,0" transform="translate(-9.734 -62.216)" fill="#d4e1f4"/><path d="M13.908,196.8H12.055a34.79,34.79,0,0,0,7.793,20.805c.337-.358.681-.707,1.03-1.051a34.779,34.779,0,0,1-6.97-19.755Zm0,0" transform="translate(-9.734 -158.919)" fill="#d4e1f4"/><path d="M60.138,25.4a34.792,34.792,0,0,1,16-9.632,32.207,32.207,0,0,1,2.623-2.047A34.74,34.74,0,0,0,59.141,24.378c.325.35.659.692,1,1.027Zm0,0" transform="translate(-47.754 -11.094)" fill="#d4e1f4"/><path d="M36.668,73.4a37.052,37.052,0,0,0,5.741-.447L42.1,70.975c.122-.082.244-.164.365-.247L41.1,68.83a29.539,29.539,0,0,1-3.364,1.994V49.184a32.825,32.825,0,0,1,6.449.79l.479-2.256a36.6,36.6,0,0,0-6.928-.848V37.791H55.767c-.036,1.733-.147,3.328-.335,4.919l2.295.247a50.065,50.065,0,0,0,.352-5.166H71.005a34.31,34.31,0,0,1-.526,5.038l2.274.434A36.67,36.67,0,1,0,36.668,73.4ZM17.592,21.214A49.725,49.725,0,0,0,15.258,35.48H2.332A34.217,34.217,0,0,1,9.993,15.033a36.709,36.709,0,0,0,7.6,6.181ZM37.739,2.642C44.67,6.21,49.878,12.382,52.852,20.25a33.726,33.726,0,0,1-15.113,4.025ZM35.428,24.27a34.768,34.768,0,0,1-15.1-4.055C23.305,12.363,28.5,6.2,35.428,2.642Zm0,2.312v8.9H17.572a47.307,47.307,0,0,1,2.038-13.1,36.444,36.444,0,0,0,15.819,4.2ZM15.258,37.791a49.29,49.29,0,0,0,2.333,14.361,36.473,36.473,0,0,0-7.6,6.134,33.9,33.9,0,0,1-7.66-20.495ZM11.514,60.106a34.308,34.308,0,0,1,6.872-5.685A35.046,35.046,0,0,0,30.633,70.556a34.336,34.336,0,0,1-19.118-10.45ZM35.428,70.819C28.5,67.257,23.3,61.1,20.329,53.245a34.772,34.772,0,0,1,15.1-4.054Zm0-23.941a36.386,36.386,0,0,0-15.819,4.107,46.9,46.9,0,0,1-2.037-13.2H35.428Zm2.311-20.292a36.476,36.476,0,0,0,15.916-4.17A47.29,47.29,0,0,1,55.766,35.48H37.739ZM63.349,15.061A34.138,34.138,0,0,1,71.005,35.48H58.078a49.809,49.809,0,0,0-2.322-14.256,36.124,36.124,0,0,0,7.593-6.163Zm-1.523-1.7a33.979,33.979,0,0,1-6.863,5.717A35.044,35.044,0,0,0,42.7,2.9,34.336,34.336,0,0,1,61.826,13.357ZM30.636,2.9A35.036,35.036,0,0,0,18.388,19.038a34.313,34.313,0,0,1-6.873-5.685A34.331,34.331,0,0,1,30.636,2.9Zm0,0" transform="translate(0 -0.055)" fill="#4126b4"/><g transform="translate(40.627 33.773)"><path d="M265.125,180.7a5.239,5.239,0,1,0-6.375,5.111v8.646a9.14,9.14,0,0,0-1.9-.445,6.716,6.716,0,0,0-6.577-5.541h-6.543v-2.654a2.507,2.507,0,0,0-2.416-2.544h-6.249v-.62a1.155,1.155,0,1,0-2.311,0v.62h-6.106a2.466,2.466,0,0,0-2.366,2.544v2.654h-6.593A6.749,6.749,0,0,0,211,195.19v16.239a6.728,6.728,0,0,0,6.692,6.693h32.584a6.681,6.681,0,0,0,6.556-5.528,9.366,9.366,0,0,0,8.294-9.275,9.225,9.225,0,0,0-4.064-7.721v-9.787a5.256,5.256,0,0,0,4.064-5.111Zm-38.53,5.117c0-.077-.02-.234.056-.234h14.665c.077,0,.105.157.105.234v2.654H226.6Zm23.68,30H217.692a4.418,4.418,0,0,1-4.382-4.383V195.19a4.436,4.436,0,0,1,4.382-4.409h32.584a4.479,4.479,0,0,1,4.432,4.409v16.239A4.456,4.456,0,0,1,250.275,215.811Zm12.6-12.5a7.074,7.074,0,0,1-5.862,6.922V196.388A7.074,7.074,0,0,1,262.88,203.31Zm-5.948-22.61a2.931,2.931,0,1,1,2.931,2.931A2.931,2.931,0,0,1,256.932,180.7Zm0,0" transform="translate(-210.999 -175.458)" fill="#33c7e5"/><path d="M253.755,293.945A3.758,3.758,0,0,0,250,297.688v2.157a1.233,1.233,0,0,0,1.155,1.242h5.176a1.252,1.252,0,0,0,1.178-1.242v-2.157A3.758,3.758,0,0,0,253.755,293.945Zm1.444,4.832h-2.888v-1.088a1.444,1.444,0,0,1,2.888,0Zm0,0" transform="translate(-242.491 -271.131)" fill="#33c7e5"/><path d="M375.755,293.945A3.758,3.758,0,0,0,372,297.688v2.157a1.21,1.21,0,0,0,1.128,1.242H378.3a1.275,1.275,0,0,0,1.2-1.242v-2.157A3.758,3.758,0,0,0,375.755,293.945Zm1.444,4.832h-2.888v-1.088a1.444,1.444,0,0,1,2.888,0Zm0,0" transform="translate(-341 -271.131)" fill="#33c7e5"/><path d="M309,340.039H298.643a1.156,1.156,0,0,0-1.155,1.155,6.332,6.332,0,1,0,12.663,0A1.156,1.156,0,0,0,309,340.039Zm-5.176,5.176a3.936,3.936,0,0,1-3.851-2.866h7.7A3.938,3.938,0,0,1,303.819,345.215Zm0,0" transform="translate(-280.835 -308.35)" fill="#33c7e5"/><path d="M273.5,404.039H240.912a1.155,1.155,0,0,0,0,2.311H273.5a1.155,1.155,0,0,0,0-2.311Zm0,0" transform="translate(-234.22 -360.027)" fill="#33c7e5"/><path d="M273.5,423.039H240.912a1.155,1.155,0,1,0,0,2.31H273.5a1.155,1.155,0,1,0,0-2.31Zm0,0" transform="translate(-234.22 -375.369)" fill="#33c7e5"/><path d="M273.5,442.039H240.912a1.155,1.155,0,1,0,0,2.311H273.5a1.155,1.155,0,0,0,0-2.311Zm0,0" transform="translate(-234.22 -390.71)" fill="#33c7e5"/></g></g></g></svg>