<svg xmlns="http://www.w3.org/2000/svg" width="168" height="169" viewBox="0 0 168 169"><g transform="translate(-1028 -1810)"><g transform="translate(1028 1810)" fill="#fff" stroke="#6f55d9" stroke-width="2"><ellipse cx="84" cy="84.5" rx="84" ry="84.5" stroke="none"/><ellipse cx="84" cy="84.5" rx="83" ry="83.5" fill="none"/></g><g transform="translate(1068 1854.635)"><path d="M14.566,13.543A6.069,6.069,0,0,1,20.627,7.48H17.061A6.069,6.069,0,0,0,11,13.543V14.69h3.566Zm0,0" transform="translate(-8.882 -6.04)" fill="#d4e1f4"/><path d="M11,51.035h3.566v54.84H11Zm0,0" transform="translate(-8.882 -41.209)" fill="#d4e1f4"/><path d="M14.566,351.6v-4.635H11V351.6a6.069,6.069,0,0,0,6.061,6.062h3.566A6.069,6.069,0,0,1,14.566,351.6Zm0,0" transform="translate(-8.882 -280.159)" fill="#d4e1f4"/><path d="M38.167,79.328A6.9,6.9,0,0,0,45.055,72.4V56.608H42.745V64.5H2.311V10.4H42.745V23.3h2.311V6.932A6.9,6.9,0,0,0,38.167,0H6.932A6.939,6.939,0,0,0,0,6.932V72.4a6.939,6.939,0,0,0,6.932,6.932ZM6.932,2.311H38.167a4.589,4.589,0,0,1,4.578,4.621V8.087H2.311V6.932A4.626,4.626,0,0,1,6.932,2.311ZM2.311,72.4V66.813H42.745V72.4a4.589,4.589,0,0,1-4.578,4.621H6.932A4.626,4.626,0,0,1,2.31,72.4Zm0,0" transform="translate(0 0)" fill="#4126b4"/><path d="M91.71,370.311h7.916a1.155,1.155,0,1,0,0-2.311H91.71a1.155,1.155,0,1,0,0,2.311Zm0,0" transform="translate(-73.119 -297.144)" fill="#4126b4"/><g transform="translate(49.417 8.896)"><path d="M268.263,54.624A1.153,1.153,0,1,1,266.63,53l1.256-1.25H257.808a1.155,1.155,0,1,1,0-2.311h10.078l-1.256-1.262a1.157,1.157,0,0,1,1.634-1.639l3.228,3.228a1.155,1.155,0,0,1,0,1.634Zm0,0" transform="translate(-246.604 -46.2)" fill="#4126b4"/><path d="M376.22,65.311h-.143a1.155,1.155,0,1,1,0-2.311h.143a1.155,1.155,0,1,1,0,2.311Zm0,0" transform="translate(-374.922 -59.765)" fill="#4126b4"/><path d="M362.464,65.311h-.093a1.155,1.155,0,1,1,0-2.311h.093a1.155,1.155,0,0,1,0,2.311Zm0,0" transform="translate(-358.526 -59.765)" fill="#4126b4"/><path d="M343.238,65.311h-.044a1.155,1.155,0,1,1,0-2.311h.044a1.155,1.155,0,0,1,0,2.311Zm0,0" transform="translate(-335.608 -59.765)" fill="#4126b4"/></g><g transform="translate(47.919 61.66)"><path d="M266.939,328.679a1.158,1.158,0,1,1-1.634-1.64l1.257-1.262H250.027a1.155,1.155,0,1,1,0-2.311h16.535l-1.256-1.25a1.154,1.154,0,1,1,1.634-1.63l3.228,3.23a1.154,1.154,0,0,1,0,1.634Zm0,0" transform="translate(-238.824 -320.239)" fill="#4126b4"/><path d="M401.977,337a1.155,1.155,0,0,1,0,2.311h-.142a1.155,1.155,0,1,1,0-2.311Zm0,0" transform="translate(-400.68 -333.773)" fill="#4126b4"/><path d="M388.218,337a1.155,1.155,0,0,1,0,2.311h-.093a1.155,1.155,0,1,1,0-2.311Zm0,0" transform="translate(-384.28 -333.773)" fill="#4126b4"/><path d="M368.992,337a1.155,1.155,0,0,1,0,2.311h-.044a1.155,1.155,0,1,1,0-2.311Zm0,0" transform="translate(-361.362 -333.773)" fill="#4126b4"/></g><g transform="translate(71.483 26.472)"><path d="M378.345,142.7l-3.228,3.229a1.156,1.156,0,0,1-1.634,0,1.194,1.194,0,0,1,0-1.664l1.257-1.286h-2.33a1.155,1.155,0,0,1,0-2.311h2.33l-1.257-1.226a1.138,1.138,0,0,1,0-1.619,1.156,1.156,0,0,1,1.634.008l3.228,3.233A1.159,1.159,0,0,1,378.345,142.7Zm0,0" transform="translate(-361.981 -137.486)" fill="#4126b4"/><path d="M446.417,154h.142a1.155,1.155,0,0,1,0,2.311h-.142a1.155,1.155,0,0,1,0-2.311Zm0,0" transform="translate(-445.262 -150.82)" fill="#4126b4"/><path d="M432.706,154h.093a1.155,1.155,0,1,1,0,2.311h-.093a1.155,1.155,0,0,1,0-2.311Zm0,0" transform="translate(-428.862 -150.82)" fill="#4126b4"/><path d="M413.574,156.311h-.044a1.155,1.155,0,0,1,0-2.311h.044a1.155,1.155,0,0,1,0,2.311Zm0,0" transform="translate(-405.944 -150.82)" fill="#4126b4"/></g><g transform="translate(68.877 44.088)"><path d="M366.337,237.4a1.155,1.155,0,0,1-1.634,0,1.119,1.119,0,0,1,0-1.6l1.256-1.227h-7.081a1.155,1.155,0,1,1,0-2.311h7.081l-1.256-1.286a1.175,1.175,0,0,1,0-1.649,1.156,1.156,0,0,1,1.634-.008l3.228,3.225a1.153,1.153,0,0,1,0,1.632Zm0,0" transform="translate(-351.137 -228.978)" fill="#4126b4"/><path d="M443.856,246h.093a1.155,1.155,0,1,1,0,2.311h-.094a1.155,1.155,0,1,1,0-2.311Zm0,0" transform="translate(-442.7 -242.722)" fill="#4126b4"/><path d="M424.679,246h.044a1.155,1.155,0,1,1,0,2.311h-.044a1.155,1.155,0,1,1,0-2.311Zm0,0" transform="translate(-419.781 -242.722)" fill="#4126b4"/></g><path d="M63.178,124.28v1.582a1.14,1.14,0,0,0,1.137,1.155h3.67a1.161,1.161,0,0,0,1.161-1.155v-12.13h.827a2.42,2.42,0,0,1,2.239,1.585l1.829,4.958a4.733,4.733,0,0,0,4.406,3.084h.495a4.629,4.629,0,0,0,.794,1.293v0a3.991,3.991,0,0,0,2.8,1.145,3.915,3.915,0,1,0-2.741-6.682,3.659,3.659,0,0,0-1.048,1.937h-.3a2.4,2.4,0,0,1-2.238-1.563l-1.829-4.969a4.744,4.744,0,0,0-4.407-3.1H65.488v-1.348H74.06a1.641,1.641,0,0,1,1.658,1.637,3.955,3.955,0,0,0,3.969,3.947h5.049a3.919,3.919,0,1,0,.969-3.945v.01a5.2,5.2,0,0,0-.969,1.625H79.687a1.641,1.641,0,0,1-1.658-1.637,3.955,3.955,0,0,0-3.968-3.947H65.488v-1.348H93.565a4.145,4.145,0,0,0,.975,1.639,3.91,3.91,0,1,0,0-5.542,3.98,3.98,0,0,0-.975,1.592H65.488V102.95H74.06A3.955,3.955,0,0,0,78.028,99a1.641,1.641,0,0,1,1.658-1.637h5.049a4.974,4.974,0,0,0,.969,1.576v-.02a3.924,3.924,0,1,0,0-5.519,4.105,4.105,0,0,0-.97,1.652H79.687A3.955,3.955,0,0,0,75.718,99a1.641,1.641,0,0,1-1.658,1.637H65.488V99.1h4.485a4.7,4.7,0,0,0,4.406-3.045l1.829-4.887a2.349,2.349,0,0,1,2.239-1.5h.3A4.376,4.376,0,0,0,79.8,91.553a3.92,3.92,0,1,0-.066-5.582v.043a3.081,3.081,0,0,0-.794,1.34h-.495a4.676,4.676,0,0,0-4.405,3.023l-1.829,4.9a2.359,2.359,0,0,1-2.24,1.515h-.827V82.205A1.205,1.205,0,0,0,67.985,81h-3.67a1.184,1.184,0,0,0-1.137,1.206V86.24a18.605,18.605,0,0,0-2.626.213l-1.889-1.964a1.158,1.158,0,0,0-1.3-.259l-5.5,2.4a1.155,1.155,0,0,0-.69,1.142l.2,2.715a17.616,17.616,0,0,0-3.32,3.485l-2.711-.08a1.157,1.157,0,0,0-1.112.739l-2.16,5.594a1.155,1.155,0,0,0,.323,1.29l2.041,1.761a19.53,19.53,0,0,0,.124,4.8L42.6,109.971a1.154,1.154,0,0,0-.259,1.3l2.4,5.5a1.157,1.157,0,0,0,1.143.689l2.714-.2a17.614,17.614,0,0,0,3.485,3.32l-.08,2.711a1.156,1.156,0,0,0,.739,1.112l5.6,2.16a1.155,1.155,0,0,0,1.29-.323l1.77-2.041c.587.057,1.2.085,1.776.089Zm18.258-3.54a1.607,1.607,0,1,1,0,2.272A1.607,1.607,0,0,1,81.435,120.74Zm5.9-7.395a1.6,1.6,0,1,1-.475,1.136A1.608,1.608,0,0,1,87.34,113.345Zm8.833-9.174a1.607,1.607,0,1,1-.471,1.136,1.607,1.607,0,0,1,.471-1.136ZM87.34,95a1.607,1.607,0,1,1,0,2.272A1.607,1.607,0,0,1,87.34,95Zm-5.9-7.395a1.6,1.6,0,1,1-.474,1.136A1.607,1.607,0,0,1,81.435,87.6ZM63.178,114.3a9.047,9.047,0,0,1,0-18.089Zm3.658-.572v10.975H65.488v-8.828a4.567,4.567,0,0,0,.093-.583c-.013-.125-.093-.242-.093-.35v-1.213Zm0-30.422V96.788H65.488V83.31Zm-6.794,38.91-1.628,1.887-4.072-1.572.074-2.519a1.157,1.157,0,0,0-.514-1,15.334,15.334,0,0,1-3.834-3.652,1.156,1.156,0,0,0-1.014-.466l-2.522.186-1.753-4.008,1.822-1.748a1.154,1.154,0,0,0,.337-1.042,17.229,17.229,0,0,1-.138-5.336,1.157,1.157,0,0,0-.391-1.024L44.523,100.3,46.1,96.232l2.519.074a1.166,1.166,0,0,0,1-.514,15.309,15.309,0,0,1,3.652-3.834,1.155,1.155,0,0,0,.465-1.014l-.185-2.521,4.008-1.754L59.3,88.492a1.172,1.172,0,0,0,1.051.337,17.256,17.256,0,0,1,2.829-.278v5.354a11.357,11.357,0,0,0,0,22.71v5.353a16.525,16.525,0,0,1-2.1-.139,1.174,1.174,0,0,0-1.033.391Zm0,0" transform="translate(-33.911 -65.404)" fill="#33c7e5"/></g></g></svg>