<svg xmlns="http://www.w3.org/2000/svg" width="168" height="168" viewBox="0 0 168 168"><g transform="translate(-1028 -1500)"><g transform="translate(1028 1500)" fill="#fff" stroke="#6f55d9" stroke-width="2"><circle cx="84" cy="84" r="84" stroke="none"/><circle cx="84" cy="84" r="83" fill="none"/></g><g transform="translate(1064 1556.692)"><path d="M183.988,123.033V103.009a2.7,2.7,0,0,1,2.7-2.7h-3.851a2.7,2.7,0,0,0-2.7,2.7v20.025a2.7,2.7,0,0,0,2.7,2.7h3.851A2.7,2.7,0,0,1,183.988,123.033Zm0,0" transform="translate(-145.453 -81.01)" fill="#d4e1f4"/><path d="M184.118.059a9.837,9.837,0,0,0-9.82,9.858v7.135h-1.154a5.012,5.012,0,0,0-5.008,5.006v20.02a5.017,5.017,0,0,0,5.008,5.011h21.947a5.017,5.017,0,0,0,5.008-5.011V22.057a5.012,5.012,0,0,0-5.008-5.006h-1.154V9.916a9.837,9.837,0,0,0-9.82-9.857Zm-7.509,9.858a7.509,7.509,0,0,1,15.018,0v7.135H176.609Zm21.18,32.165a2.7,2.7,0,0,1-2.7,2.7h-21.95a2.7,2.7,0,0,1-2.7-2.7V22.058a2.7,2.7,0,0,1,2.7-2.7h21.95a2.7,2.7,0,0,1,2.7,2.7Zm0,0" transform="translate(-135.763 -0.059)" fill="#4126b4"/><path d="M233.591,133.568h-.045a1.88,1.88,0,0,1-1.856-1.877,1.155,1.155,0,0,0-2.311,0,4.2,4.2,0,0,0,3.034,4.026v.814a1.155,1.155,0,0,0,2.311,0v-.814a4.189,4.189,0,0,0-1.155-8.215,1.879,1.879,0,1,1,1.879-1.879,1.155,1.155,0,1,0,2.311,0,4.2,4.2,0,0,0-3.034-4.026v-.675a1.155,1.155,0,1,0-2.311,0v.675a4.189,4.189,0,0,0,1.155,8.215,1.878,1.878,0,0,1,.023,3.756Zm0,0" transform="translate(-185.214 -96.717)" fill="#4126b4"/><g transform="translate(0 6.584)"><path d="M330.289,138.539a4.2,4.2,0,0,0-1.148,1.983H299.894a1.155,1.155,0,1,0,0,2.311h29.247a4.288,4.288,0,0,0,1.148,2.012,4.458,4.458,0,1,0,0-6.307Zm4.673,4.686a2.146,2.146,0,0,1-3.665-1.472c0-.016,0-.032,0-.047s0-.032,0-.048a2.148,2.148,0,1,1,3.665,1.567Zm0,0" transform="translate(-241.219 -117.406)" fill="#33c7e5"/><path d="M299.885,92.581h5.736a4.53,4.53,0,0,0,4.521-4.525,2.215,2.215,0,0,1,2.21-2.214h6.21a4.362,4.362,0,0,0,1.151,2.012,4.455,4.455,0,1,0,0-6.307,4.273,4.273,0,0,0-1.151,1.985h-6.21a4.529,4.529,0,0,0-4.521,4.525,2.217,2.217,0,0,1-2.21,2.214h-5.736a1.155,1.155,0,1,0,0,2.311Zm24.5-9.386a2.149,2.149,0,1,1-3.666,1.577c0-.02,0-.038,0-.058s0-.038,0-.058a2.147,2.147,0,0,1,3.666-1.461Zm0,0" transform="translate(-241.211 -71.39)" fill="#33c7e5"/><path d="M319.716,181.068a4.191,4.191,0,0,0-1.148,1.983h-6.213a2.216,2.216,0,0,1-2.211-2.214,4.53,4.53,0,0,0-4.521-4.525h-5.736a1.155,1.155,0,0,0,0,2.311h5.736a2.216,2.216,0,0,1,2.211,2.214,4.53,4.53,0,0,0,4.521,4.525h6.213a4.282,4.282,0,0,0,1.148,2.012,4.458,4.458,0,1,0,0-6.307Zm4.673,4.686a2.146,2.146,0,0,1-3.665-1.472c0-.016,0-.032,0-.047s0-.032,0-.048a2.148,2.148,0,1,1,3.665,1.567Zm0,0" transform="translate(-241.212 -148.96)" fill="#33c7e5"/><path d="M312.659,209.3a4.8,4.8,0,0,0-1.234,2.372h-.548a3.091,3.091,0,0,1-2.891-2.007l-2.189-5.873a5.381,5.381,0,0,0-5.057-3.481h-.847a1.155,1.155,0,1,0,0,2.311h.847a3.064,3.064,0,0,1,2.891,1.977l2.189,5.887a5.394,5.394,0,0,0,5.057,3.5h.753a3.507,3.507,0,0,0,1.048,1.624v0a4.264,4.264,0,0,0,3.144,1.3,4.46,4.46,0,1,0-3.163-7.615Zm4.673,4.679a2.146,2.146,0,0,1-3.641-1.194,1.184,1.184,0,0,0-.019-.171,2.148,2.148,0,1,1,3.66,1.366Zm0,0" transform="translate(-241.218 -168.339)" fill="#33c7e5"/><path d="M312.659,35.557a4.551,4.551,0,0,0-1.032,1.6h-.751A5.433,5.433,0,0,0,305.82,40.7L303.63,46.65a3.136,3.136,0,0,1-2.89,2.056h-.847a1.155,1.155,0,0,0,0,2.311h.847a5.444,5.444,0,0,0,5.057-3.554l2.189-5.949a3.129,3.129,0,0,1,2.89-2.05h.545a4.258,4.258,0,0,0,1.236,2.4,4.456,4.456,0,1,0,0-6.307Zm4.673,4.695a2.149,2.149,0,0,1-3.669-1.519c0-.05,0-.1.007-.147a1.149,1.149,0,0,0,.022-.19,2.148,2.148,0,1,1,3.639,1.855Zm0,0" transform="translate(-241.218 -34.254)" fill="#33c7e5"/><path d="M38.036,142.78a1.155,1.155,0,1,0,0-2.311H8.788a4.19,4.19,0,0,0-1.148-1.983,4.47,4.47,0,1,0,0,6.306,4.275,4.275,0,0,0,1.148-2.012Zm-35.069.392a2.149,2.149,0,1,1,3.665-1.567c0,.016,0,.032,0,.048s0,.032,0,.047a2.146,2.146,0,0,1-3.665,1.472Zm0,0" transform="translate(0 -117.353)" fill="#33c7e5"/><path d="M59.465,89.17a4.46,4.46,0,0,0,3.153-1.318,4.367,4.367,0,0,0,1.152-2.013h6.211a2.215,2.215,0,0,1,2.21,2.214,4.53,4.53,0,0,0,4.52,4.525h5.736a1.155,1.155,0,1,0,0-2.311H76.711A2.217,2.217,0,0,1,74.5,88.053a4.528,4.528,0,0,0-4.52-4.525H63.77a4.277,4.277,0,0,0-1.152-1.983,4.464,4.464,0,1,0-3.153,7.624Zm-1.52-5.977a2.147,2.147,0,0,1,3.666,1.462c0,.02,0,.038,0,.058s0,.038,0,.058a2.148,2.148,0,1,1-3.666-1.578Zm0,0" transform="translate(-44.412 -71.387)" fill="#33c7e5"/><path d="M63.67,185.363h6.214a4.529,4.529,0,0,0,4.52-4.525,2.216,2.216,0,0,1,2.211-2.214h5.736a1.155,1.155,0,0,0,0-2.311H76.615a4.53,4.53,0,0,0-4.521,4.525,2.216,2.216,0,0,1-2.21,2.214H63.67a4.19,4.19,0,0,0-1.148-1.983,4.47,4.47,0,1,0,0,6.306,4.272,4.272,0,0,0,1.148-2.012Zm-5.821.392a2.149,2.149,0,1,1,3.665-1.567c0,.016,0,.032,0,.048s0,.032,0,.047a2.146,2.146,0,0,1-3.665,1.472Zm0,0" transform="translate(-44.316 -148.96)" fill="#33c7e5"/><path d="M101.082,213.983a5.412,5.412,0,0,0,5.058-3.515l2.189-5.873a3.059,3.059,0,0,1,2.89-1.973h.848a1.155,1.155,0,1,0,0-2.311h-.848a5.382,5.382,0,0,0-5.057,3.485l-2.189,5.887a3.073,3.073,0,0,1-2.89,1.989h-.547A4.8,4.8,0,0,0,99.3,209.3a4.461,4.461,0,1,0-3.163,7.616,4.259,4.259,0,0,0,3.143-1.3v-.006a3.515,3.515,0,0,0,1.048-1.624Zm-6.454,0a2.149,2.149,0,1,1,3.661-1.366,1.209,1.209,0,0,0-.02.171,2.144,2.144,0,0,1-3.64,1.194Zm0,0" transform="translate(-74.032 -168.339)" fill="#33c7e5"/><path d="M96.134,43.2a4.465,4.465,0,0,0,3.153-1.326,4.258,4.258,0,0,0,1.236-2.4h.545a3.115,3.115,0,0,1,2.891,2.034l2.189,5.955a5.455,5.455,0,0,0,5.057,3.564h.848a1.155,1.155,0,1,0,0-2.311h-.848a3.125,3.125,0,0,1-2.89-2.046l-2.189-5.949a5.449,5.449,0,0,0-5.057-3.558h-.751a4.548,4.548,0,0,0-1.03-1.6A4.467,4.467,0,1,0,96.133,43.2Zm-1.52-5.977a2.147,2.147,0,0,1,3.64,1.184,1.152,1.152,0,0,0,.022.19c0,.049.007.1.007.147a2.149,2.149,0,1,1-3.669-1.52Zm0,0" transform="translate(-74.018 -34.261)" fill="#33c7e5"/></g></g></g></svg>