<svg xmlns="http://www.w3.org/2000/svg" width="168" height="169" viewBox="0 0 168 169"><g transform="translate(-1334 -1810)"><g transform="translate(1334 1810)" fill="#fff" stroke="#6f55d9" stroke-width="2"><ellipse cx="84" cy="84.5" rx="84" ry="84.5" stroke="none"/><ellipse cx="84" cy="84.5" rx="83" ry="83.5" fill="none"/></g><g transform="translate(1372.672 1847.548)"><path d="M94.815,56.759a8.274,8.274,0,0,1,2.832-.824c-.023-.032-.048-.062-.07-.1a4.1,4.1,0,0,1,1.145-5.68c.1-.064.2-.123.3-.178.02.035.038.072.058.108A1.082,1.082,0,0,0,100.949,49a6.163,6.163,0,0,1,3.532-8.97,6.161,6.161,0,0,0-7.138,8.971,1.082,1.082,0,1,1-1.872,1.084c-.021-.035-.039-.072-.058-.108-.1.056-.2.114-.3.178a4.086,4.086,0,0,0-.3,6.6Zm0,0" transform="translate(-75.331 -32.109)" fill="#d4e1f4"/><path d="M163.709,14.163a1.078,1.078,0,0,1,.436.8,6.106,6.106,0,0,1,1.884.94,1.082,1.082,0,0,0,1.285-1.74q-.275-.2-.563-.381A3.434,3.434,0,0,1,168,9.24a3.443,3.443,0,0,0-4.852,4.541q.287.178.562.381Zm0,0" transform="translate(-131.419 -7.045)" fill="#d4e1f4"/><path d="M167.093,216.39a6.488,6.488,0,0,0,1.67-4.351,1.082,1.082,0,0,0-2.164,0,4.336,4.336,0,0,1-2.912,4.119q-.1.118-.2.232a4.345,4.345,0,0,0,4.207.331,4.456,4.456,0,0,1-.6-.331Zm0,0" transform="translate(-132.019 -170.338)" fill="#d4e1f4"/><path d="M97.112,141.424V140.1a6.161,6.161,0,0,0,.865.051,1.063,1.063,0,0,0,1.059-1.082,1.091,1.091,0,0,0-1.093-1.082,6.162,6.162,0,1,1-.008-12.322,1.082,1.082,0,1,0,0-2.163,8.269,8.269,0,0,0-2.72.46,1.08,1.08,0,0,1-.883,1.7,6.162,6.162,0,1,0,.008,12.322,1.091,1.091,0,0,1,1.093,1.082,1.063,1.063,0,0,1-1.059,1.082,6.185,6.185,0,0,1-.866-.051v1.323a4.317,4.317,0,0,0,4.306,4.35,4.269,4.269,0,0,0,1.8-.4,4.345,4.345,0,0,1-2.5-3.955Zm0,0" transform="translate(-71.143 -99.724)" fill="#d4e1f4"/><path d="M283.908,45.92A6.152,6.152,0,0,1,283.084,49a1.082,1.082,0,1,0,1.872,1.084c.02-.035.038-.072.058-.108.1.056.2.114.3.179a4.1,4.1,0,0,1,1.144,5.679c-.022.033-.047.063-.069.1a8.255,8.255,0,0,1,2.832.823,4.093,4.093,0,0,0-.3-6.6c-.1-.065-.2-.123-.3-.179-.019.035-.037.072-.057.108A1.082,1.082,0,0,1,286.689,49a6.16,6.16,0,0,0-7.138-8.971,6.172,6.172,0,0,1,4.357,5.891Zm0,0" transform="translate(-225.735 -32.104)" fill="#d4e1f4"/><path d="M242.61,12.174a3.446,3.446,0,0,1-.4,1.611q-.287.178-.561.381a1.082,1.082,0,0,0,1.285,1.74,6.127,6.127,0,0,1,1.883-.94,1.08,1.08,0,0,1,.436-.8c.184-.135.37-.262.562-.381a3.442,3.442,0,0,0-4.85-4.541,3.445,3.445,0,0,1,1.645,2.931Zm0,0" transform="translate(-194.578 -7.048)" fill="#d4e1f4"/><path d="M242.228,212.013a1.073,1.073,0,1,0-2.147,0,6.491,6.491,0,0,0,1.674,4.352,4.37,4.37,0,0,1-.6.331,4.343,4.343,0,0,0,4.207-.331c-.068-.076-.134-.153-.2-.231a4.348,4.348,0,0,1-2.935-4.121Zm0,0" transform="translate(-193.865 -170.313)" fill="#d4e1f4"/><path d="M288.345,137.989a6.162,6.162,0,1,0,0-12.322,1.081,1.081,0,0,1-.886-1.7,8.248,8.248,0,0,0-2.72-.461,1.082,1.082,0,1,0,0,2.163,6.162,6.162,0,1,1,0,12.322,1.081,1.081,0,0,0-1.082,1.082,1.046,1.046,0,0,0,1.037,1.082,6.17,6.17,0,0,0,.866-.051v1.323a4.344,4.344,0,0,1-2.505,3.955,4.308,4.308,0,0,0,6.11-3.955V140.1a6.16,6.16,0,0,1-.865.051,1.044,1.044,0,0,1-1.037-1.082A1.081,1.081,0,0,1,288.345,137.989Zm0,0" transform="translate(-228.564 -99.723)" fill="#d4e1f4"/><path d="M192.553,248.589a1.155,1.155,0,1,0,0-2.311h-3.173V244.26a1.023,1.023,0,0,0-1.088-1.062h-7.006a6.905,6.905,0,0,0-6.92,6.4,10.931,10.931,0,0,0-9.825,10.849v12.683a9.146,9.146,0,1,1-18.292,0V266.3h6.681a5.194,5.194,0,0,0,5.257-5.173V247.816a17.914,17.914,0,0,1,3.731-10.852,1.158,1.158,0,0,0-1.832-1.417,20.117,20.117,0,0,0-4.176,11.117H134.18a20,20,0,0,0-4.068-11.033,1.139,1.139,0,1,0-1.786,1.412A17.881,17.881,0,0,1,132,247.836V261.13a5.11,5.11,0,0,0,5.157,5.173h6.781v6.831a11.456,11.456,0,0,0,22.913,0V260.45a8.653,8.653,0,0,1,7.525-8.559,6.953,6.953,0,0,0,6.909,6.325h7.006a1.116,1.116,0,0,0,1.088-1.174v-2.1h3.173a1.155,1.155,0,1,0,0-2.31H189.38v-4.043ZM134.312,261.13v-.6h14.111a1.155,1.155,0,0,0,0-2.311H134.312V254.75h3.458a1.155,1.155,0,1,0,0-2.311h-3.458v-3.466h21.565v3.466H142.011a1.155,1.155,0,0,0,0,2.311h13.866v3.466h-3.214a1.155,1.155,0,0,0,0,2.311h3.214v.6a2.881,2.881,0,0,1-2.946,2.863H137.158a2.8,2.8,0,0,1-2.846-2.863Zm52.757-5.224h-5.783a4.636,4.636,0,0,1-4.614-4.64v-1.23a4.542,4.542,0,0,1,4.614-4.528h5.783Zm0,0" transform="translate(-103.412 -189.839)" fill="#4126b4"/><g transform="translate(0 0)"><path d="M382.355,118.276a1.155,1.155,0,0,0,1.155,1.155h7.345a1.155,1.155,0,0,0,0-2.311H383.51A1.156,1.156,0,0,0,382.355,118.276Zm0,0" transform="translate(-308.745 -94.57)" fill="#33c7e5"/><path d="M369.223,50.661a1.153,1.153,0,0,0,.692-.231l7.344-5.5a1.155,1.155,0,0,0-1.385-1.848l-7.345,5.5a1.155,1.155,0,0,0,.693,2.08Zm0,0" transform="translate(-297.207 -34.61)" fill="#33c7e5"/><path d="M368.442,164.821l7.344,5.5a1.155,1.155,0,0,0,1.385-1.849l-7.344-5.5a1.155,1.155,0,1,0-1.385,1.848Zm0,0" transform="translate(-297.12 -131.394)" fill="#33c7e5"/><path d="M9.706,118.276a1.156,1.156,0,0,0-1.155-1.155H1.206a1.155,1.155,0,1,0,0,2.311H8.551A1.155,1.155,0,0,0,9.706,118.276Zm0,0" transform="translate(-0.051 -94.57)" fill="#33c7e5"/><path d="M22.146,163.037l-7.345,5.5a1.156,1.156,0,1,0,1.387,1.849l7.344-5.5a1.155,1.155,0,1,0-1.386-1.848Zm0,0" transform="translate(-11.588 -131.459)" fill="#33c7e5"/><path d="M14.883,44.924l7.345,5.5a1.155,1.155,0,1,0,1.386-1.848l-7.347-5.5a1.155,1.155,0,0,0-1.385,1.848Zm0,0" transform="translate(-11.67 -34.607)" fill="#33c7e5"/><path d="M257.057,143.431a2.259,2.259,0,0,1,3.466,1.124,2.221,2.221,0,0,1,.1,1,1.156,1.156,0,0,0,2.292.3,4.572,4.572,0,0,0-2.478-4.676l-.042-.02a2.259,2.259,0,0,1,.371-2.144,1.155,1.155,0,1,0-1.8-1.446,4.549,4.549,0,0,0-.991,3.141,4.6,4.6,0,0,0-2.262.842,1.155,1.155,0,0,0,1.351,1.875Zm0,0" transform="translate(-206.094 -110.725)" fill="#33c7e5"/><path d="M261.908,87.128a3.84,3.84,0,0,0,.835.2,3.754,3.754,0,0,0,.469,1.717,1.155,1.155,0,1,0,2.023-1.116,1.5,1.5,0,0,1,1.688-2.183A1.155,1.155,0,0,0,267.5,83.5a3.808,3.808,0,0,0-4.077,1.522,1.5,1.5,0,0,1-1.291-.433,1.155,1.155,0,1,0-1.652,1.616A3.789,3.789,0,0,0,261.908,87.128Zm0,0" transform="translate(-210.069 -67.328)" fill="#33c7e5"/><path d="M228.979,48.431a6.455,6.455,0,0,0,4.064-1.446,6.5,6.5,0,0,0,9.515-5.714V39.522a8.375,8.375,0,0,0,5.087-7.612,8.215,8.215,0,0,0-2.684-6.053,6.235,6.235,0,0,0-1.029-9.495,6.365,6.365,0,0,0-.617-.355,8.225,8.225,0,0,0-9.677-9.981c.011-.144.02-.287.02-.432a5.562,5.562,0,1,0-11.123,0V41.978a6.453,6.453,0,0,0,6.444,6.452ZM224.845,5.593a3.254,3.254,0,1,1,6.137,1.5c-.181.113-.359.234-.532.362a1.155,1.155,0,1,0,1.372,1.858,5.911,5.911,0,0,1,8.626,7.712,1.155,1.155,0,0,0,2,1.158l.008-.016c.065.038.131.077.195.119a3.883,3.883,0,0,1,.336,6.234,8.177,8.177,0,0,0-3.6-.83,1.155,1.155,0,0,0,0,2.311,5.91,5.91,0,1,1,0,11.82,1.155,1.155,0,0,0-1.155,1.155,1.187,1.187,0,0,0,1.191,1.155c.266,0,.438-.014.823-.039v1.18a4.17,4.17,0,0,1-8.34,0,1.162,1.162,0,1,0-2.323,0,6.424,6.424,0,0,0,1.576,4.222,4.128,4.128,0,0,1-6.317-3.515Zm0,0" transform="translate(-179.697 0.001)" fill="#33c7e5"/><path d="M78.07,32.014a8.383,8.383,0,0,0,5.095,7.612v1.749a6.483,6.483,0,0,0,9.49,5.714,6.461,6.461,0,0,0,10.534-5.006V5.7a5.57,5.57,0,0,0-11.14,0c0,.144.008.289.02.432a8.21,8.21,0,0,0-9.675,9.981,6.248,6.248,0,0,0-1.644,9.85,8.211,8.211,0,0,0-2.681,6.053Zm3.9-8.222a3.9,3.9,0,0,1,1.088-5.4c.063-.042.129-.08.194-.119a.172.172,0,0,1,.009.016,1.155,1.155,0,0,0,2-1.158,5.911,5.911,0,0,1,8.626-7.712A1.155,1.155,0,0,0,95.26,7.56Q95,7.367,94.728,7.2a3.259,3.259,0,1,1,6.151-1.5V42.083A4.14,4.14,0,0,1,94.549,45.6a6.423,6.423,0,0,0,1.579-4.222,1.155,1.155,0,1,0-2.311,0,4.171,4.171,0,0,1-8.342,0V40.2c.385.025.55.038.815.038a1.167,1.167,0,0,0,1.169-1.155,1.149,1.149,0,0,0-1.148-1.155A5.909,5.909,0,0,1,86.316,26.1a1.155,1.155,0,0,0,0-2.311,8.173,8.173,0,0,0-3.6.83,3.856,3.856,0,0,1-.751-.832Zm0,0" transform="translate(-63.048 -0.103)" fill="#33c7e5"/><path d="M142.889,141.55a4.591,4.591,0,0,0-2.262-.843,4.545,4.545,0,0,0-.991-3.141,1.155,1.155,0,1,0-1.8,1.446,2.259,2.259,0,0,1,.372,2.144l-.042.019a4.571,4.571,0,0,0-2.478,4.676,1.155,1.155,0,1,0,2.291-.3,2.26,2.26,0,0,1,3.562-2.125,1.156,1.156,0,1,0,1.351-1.874Zm0,0" transform="translate(-109.539 -110.719)" fill="#33c7e5"/><path d="M135.258,71.475a1.506,1.506,0,0,1,1.689,2.184,1.155,1.155,0,1,0,2.024,1.115,3.744,3.744,0,0,0,.468-1.717,3.772,3.772,0,0,0,2.265-1.114,1.155,1.155,0,0,0-1.652-1.616,1.5,1.5,0,0,1-1.291.434,3.808,3.808,0,0,0-4.077-1.523,1.155,1.155,0,1,0,.574,2.238Zm0,0" transform="translate(-108.051 -55.81)" fill="#33c7e5"/></g></g></g></svg>