<svg xmlns="http://www.w3.org/2000/svg" width="168" height="168" viewBox="0 0 168 168"><g transform="translate(-722 -2661)"><g transform="translate(721.604 2660.682)"><g transform="translate(0.396 0.318)" fill="#fff" stroke="#8279de" stroke-width="2"><circle cx="84" cy="84" r="84" stroke="none"/><circle cx="84" cy="84" r="83" fill="none"/></g></g><g transform="translate(760.612 2698.028)"><path d="M23.638,13H17.48a6.979,6.979,0,0,0-6.98,6.971v11.5h6.159v-11.5A6.979,6.979,0,0,1,23.638,13Zm0,0" transform="translate(-8.447 -10.331)" fill="#d4e1f4"/><path d="M16.659,160.813V114H10.5v46.813a6.979,6.979,0,0,0,6.98,6.971h6.159A6.979,6.979,0,0,1,16.659,160.813Zm0,0" transform="translate(-8.447 -90.598)" fill="#d4e1f4"/><g transform="translate(0 0)"><path d="M81.357,0H10.378A9.883,9.883,0,0,0,.5,9.835V70.078a9.834,9.834,0,0,0,9.878,9.777h9.679a1.232,1.232,0,1,0,0-2.463H10.378a7.368,7.368,0,0,1-7.415-7.314V23.608H88.772v46.47a7.368,7.368,0,0,1-7.415,7.314H71.645a1.232,1.232,0,0,0,0,2.463h9.712a9.834,9.834,0,0,0,9.878-9.777V9.835A9.883,9.883,0,0,0,81.357,0Zm7.415,21.144H2.963V9.835a7.417,7.417,0,0,1,7.415-7.372H81.357a7.417,7.417,0,0,1,7.415,7.372Zm0,0" transform="translate(-0.5 0)" fill="#4126b4"/><path d="M107.193,36h-.014a4.516,4.516,0,0,0-.014,9.032h.014A4.516,4.516,0,1,0,107.193,36Zm-.014,6.569h-.006a2.053,2.053,0,0,1,.006-4.106h.007a2.053,2.053,0,0,1-.006,4.106Zm0,0" transform="translate(-81.685 -28.61)" fill="#4126b4"/><path d="M36,36H35.99A4.47,4.47,0,0,0,31.5,40.444a4.321,4.321,0,0,0,1.305,3.118,4.39,4.39,0,0,0,3.171,1.263h.014a4.457,4.457,0,0,0,4.491-4.43,4.342,4.342,0,0,0-1.305-3.127A4.4,4.4,0,0,0,36,36Zm-.014,6.364h-.006a1.965,1.965,0,0,1-1.432-.552,1.893,1.893,0,0,1-.589-1.382,1.984,1.984,0,0,1,2.028-1.967H36a1.98,1.98,0,0,1,1.432.568,1.874,1.874,0,0,1,.589,1.374,1.979,1.979,0,0,1-2.027,1.959Zm0,0" transform="translate(-25.136 -28.607)" fill="#4126b4"/><path d="M178.629,36h-.014a4.514,4.514,0,0,0-3.185,7.689,4.461,4.461,0,0,0,3.171,1.343h.015A4.516,4.516,0,1,0,178.629,36Zm1.415,5.96a2.028,2.028,0,0,1-2.868-.009,2.05,2.05,0,0,1,1.438-3.487h.006a2.049,2.049,0,0,1,1.423,3.5Zm0,0" transform="translate(-138.482 -28.61)" fill="#4126b4"/><path d="M389.638,211h-1.723a1.232,1.232,0,0,0,0,2.463h1.723a1.232,1.232,0,1,0,0-2.463Zm0,0" transform="translate(-307.406 -167.685)" fill="#4126b4"/><path d="M220.359,212.232a1.232,1.232,0,0,0,1.232,1.232h28.978a1.232,1.232,0,0,0,0-2.463H221.591A1.232,1.232,0,0,0,220.359,212.232Zm0,0" transform="translate(-175.226 -167.685)" fill="#4126b4"/><path d="M154.97,211a1.232,1.232,0,0,0,0,2.463h8.6a1.232,1.232,0,1,0,0-2.463Zm0,0" transform="translate(-122.281 -167.685)" fill="#4126b4"/><path d="M65.712,211a1.232,1.232,0,0,0,0,2.463h13.3a1.232,1.232,0,0,0,0-2.463Zm0,0" transform="translate(-51.346 -167.685)" fill="#4126b4"/><path d="M37.154,213.463h.166a1.232,1.232,0,0,0,0-2.463h-.166a1.232,1.232,0,0,0,0,2.463Zm0,0" transform="translate(-28.65 -167.685)" fill="#4126b4"/><path d="M350.676,174H338.888a1.232,1.232,0,1,0,0,2.463h11.788a1.232,1.232,0,0,0,0-2.463Zm0,0" transform="translate(-268.444 -138.281)" fill="#4126b4"/><path d="M301.743,176.463a1.232,1.232,0,0,0,0-2.463h-2.469a1.232,1.232,0,0,0,0,2.463Zm0,0" transform="translate(-236.962 -138.281)" fill="#4126b4"/><path d="M109.313,175.232a1.232,1.232,0,0,0,1.232,1.232h33.035a1.232,1.232,0,0,0,0-2.463H110.545A1.232,1.232,0,0,0,109.313,175.232Zm0,0" transform="translate(-86.975 -138.281)" fill="#4126b4"/><path d="M37.154,176.463h9.977a1.232,1.232,0,1,0,0-2.463H37.154a1.232,1.232,0,1,0,0,2.463Zm0,0" transform="translate(-28.65 -138.281)" fill="#4126b4"/><path d="M287.061,140h-28.22a1.232,1.232,0,1,0,0,2.463h28.22a1.232,1.232,0,1,0,0-2.463Zm0,0" transform="translate(-204.829 -111.26)" fill="#4126b4"/><path d="M196.238,142.463a1.232,1.232,0,1,0,0-2.463H187.29a1.232,1.232,0,0,0,0,2.463Zm0,0" transform="translate(-147.966 -111.26)" fill="#4126b4"/><path d="M162.764,142.463a1.232,1.232,0,0,0,0-2.463h-.107a1.232,1.232,0,0,0,0,2.463Zm0,0" transform="translate(-128.39 -111.26)" fill="#4126b4"/><path d="M57.209,140H37.153a1.232,1.232,0,0,0,0,2.463H57.209a1.232,1.232,0,0,0,0-2.463Zm0,0" transform="translate(-28.65 -111.26)" fill="#4126b4"/><path d="M282.6,248h-.625a1.232,1.232,0,0,0,0,2.463h.625a1.232,1.232,0,1,0,0-2.463Zm0,0" transform="translate(-223.216 -197.09)" fill="#4126b4"/><path d="M213.121,248h-11.19a1.232,1.232,0,1,0,0,2.463h11.191a1.232,1.232,0,0,0,0-2.463Zm0,0" transform="translate(-159.602 -197.09)" fill="#4126b4"/><path d="M63.845,248H37.158a1.232,1.232,0,1,0,0,2.463H63.845a1.232,1.232,0,0,0,0-2.463Zm0,0" transform="translate(-28.654 -197.09)" fill="#4126b4"/></g><path d="M143.651,267.272a5.305,5.305,0,1,0-10.611,0,5.408,5.408,0,0,0,4.086,5.162v4.761a9.672,9.672,0,0,0-1.875-.354,7.387,7.387,0,0,0-7.153-5.45h-5.754v-2.7a2.438,2.438,0,0,0-2.511-2.43h-6.111v-2.646a1.232,1.232,0,0,0-2.463,0v2.646h-6.051a2.49,2.49,0,0,0-2.571,2.43v2.7H96.945a7.385,7.385,0,0,0-7.446,7.319v14.852a7.446,7.446,0,0,0,7.446,7.39H128.1a7.4,7.4,0,0,0,7.14-5.486,9.383,9.383,0,0,0,4.35-17.062v-5.97a5.387,5.387,0,0,0,4.062-5.162Zm-38.55,1.416c0-.032.075.034.107.034h14.626c.033,0,.047-.066.047-.034v2.7H105.1Zm27.919,24.873a4.927,4.927,0,0,1-4.927,4.927H96.89a4.927,4.927,0,0,1-4.927-4.927V278.78a4.927,4.927,0,0,1,4.927-4.927h31.2a4.927,4.927,0,0,1,4.927,4.927Zm8.15-7.426a6.879,6.879,0,0,1-5.686,6.81V279.325A6.879,6.879,0,0,1,141.17,286.134Zm-5.681-18.863a2.843,2.843,0,1,1,2.844,2.843,2.843,2.843,0,0,1-2.844-2.843Zm0,0" transform="translate(-71.23 -208.163)" fill="#33c7e5"/><path d="M130.341,355h-.235a3.621,3.621,0,0,0-3.608,3.689v2.268a1.158,1.158,0,0,0,1.145,1.228H132.8a1.279,1.279,0,0,0,1.289-1.228v-2.268A3.743,3.743,0,0,0,130.341,355Zm1.289,4.721h-2.669v-1.033a1.156,1.156,0,0,1,1.145-1.225h.235a1.278,1.278,0,0,1,1.289,1.225Zm0,0" transform="translate(-100.632 -282.124)" fill="#33c7e5"/><path d="M244.34,355h-.235a3.62,3.62,0,0,0-3.608,3.689v2.268a1.157,1.157,0,0,0,1.144,1.228H246.8a1.28,1.28,0,0,0,1.289-1.228v-2.268A3.744,3.744,0,0,0,244.34,355Zm1.289,4.721h-2.669v-1.033a1.155,1.155,0,0,1,1.144-1.225h.235a1.278,1.278,0,0,1,1.289,1.225Zm0,0" transform="translate(-191.23 -282.124)" fill="#33c7e5"/><path d="M182.056,398H171.732a1.247,1.247,0,0,0-1.232,1.25v.235a6.125,6.125,0,0,0,6.158,6.11h.471a6.073,6.073,0,0,0,6.1-6.11v-.235a1.2,1.2,0,0,0-1.172-1.25Zm-4.927,5.132h-.471a3.578,3.578,0,0,1-3.559-2.669h7.588A3.577,3.577,0,0,1,177.129,403.132Zm0,0" transform="translate(-135.602 -316.297)" fill="#33c7e5"/></g></g></svg>