<svg xmlns="http://www.w3.org/2000/svg" width="168" height="169" viewBox="0 0 168 169"><g transform="translate(-1334 -2306)"><g transform="translate(1333.697 2306.338)"><g transform="translate(0.303 -0.338)" fill="#fff" stroke="#6f55d9" stroke-width="2"><ellipse cx="84" cy="84.5" rx="84" ry="84.5" stroke="none"/><ellipse cx="84" cy="84.5" rx="83" ry="83.5" fill="none"/></g></g><g transform="translate(1378.459 2347.699)"><g transform="translate(0 0.392)"><path d="M166.545,271.379,143.792,287a18.2,18.2,0,0,1-11.169,1.551l-15.912-2.929a7.132,7.132,0,0,0-5.2.706c-.019.01-.038.022-.057.034l-8.258,4.605,1.4,4.1,7.272-4.6c.018-.012.038-.023.057-.034a7.132,7.132,0,0,1,5.2-.706l15.911,2.93a18.211,18.211,0,0,0,11.169-1.551l26.455-18.164a5.161,5.161,0,0,0-4.11-1.564Zm0,0" transform="translate(-82.011 -223.173)" fill="#d4e1f4"/><path d="M45.629,414.859H30.058l.411,4.106H46.882Zm0,0" transform="translate(-23.888 -337.211)" fill="#d4e1f4"/><path d="M4.268,288.346a1.258,1.258,0,0,0,1.222,1.112H24.656a1.275,1.275,0,0,0,1.178-1.635l-2.509-8.239,7.814-4.944a4.682,4.682,0,0,1,3.41-.443c.026.006.051.011.077.016l15.952,2.936a20.689,20.689,0,0,0,12.782-1.8,1.233,1.233,0,0,0,.151-.089L91.1,256.313a1.231,1.231,0,0,0,.358-1.65,7.615,7.615,0,0,0-10.154-2.777l-.44.237a6.521,6.521,0,0,0-7.728-1.913l-.028.014-1.083.584a8.48,8.48,0,0,0-9.681-.895l-5.969,3.209H48.432a11.416,11.416,0,0,1-4.956-1.1l-1.094-.511A18.816,18.816,0,0,0,22.8,253.435c-.027.021-.054.046-.079.069l-2.642,2.354a9.128,9.128,0,0,1-3.4,1.909l-1.488-4.84a1.193,1.193,0,0,0-1.18-.83H1.231a1.191,1.191,0,0,0-.922.372,1.219,1.219,0,0,0-.3.959Zm70-35.946a4,4,0,0,1,4.352.935L68.2,258.954l-.571.3a9.13,9.13,0,0,0-1.393-2.53Zm-10.728-.3.029-.016a6.008,6.008,0,0,1,6.048.019l-5.232,2.819a9.073,9.073,0,0,0-3.283-1.5ZM21.715,257.7l2.6-2.318a16.362,16.362,0,0,1,16.989-1.633l1.095.492a13.882,13.882,0,0,0,6.029,1.346H59.042a6.7,6.7,0,0,1,6.531,5.4l-7.637-.328a46.174,46.174,0,0,0-8.378.4A1.235,1.235,0,0,0,49.9,263.5a43.546,43.546,0,0,1,7.929-.365l9.051.411.056,0a1.232,1.232,0,0,0,1.232-1.232c0-.185-.007-.367-.018-.549l1.216-.642,13.112-7.073a5.156,5.156,0,0,1,6.17.959L62.19,273.175a18.212,18.212,0,0,1-11.169,1.551L35.11,271.8a7.132,7.132,0,0,0-5.2.706c-.019.01-.038.022-.057.034l-7.273,4.6-5.185-17.007a11.576,11.576,0,0,0,4.321-2.427ZM13.1,254.56,22.993,287H6.58L2.622,254.56Zm0,0" transform="translate(0.001 -205.241)" fill="#4126b4"/><path d="M53.88,399.926a3.787,3.787,0,1,0-3.787-3.787A3.787,3.787,0,0,0,53.88,399.926Zm0-5.111a1.324,1.324,0,1,1-1.324,1.324,1.324,1.324,0,0,1,1.324-1.324Zm0,0" transform="translate(-39.81 -319.324)" fill="#4126b4"/><g transform="translate(21.184 0)"><path d="M412.468,99.859h-6.705a1.232,1.232,0,1,0,0,2.463h6.705a1.232,1.232,0,1,0,0-2.463Zm0,0" transform="translate(-348.009 -86.875)" fill="#33c7e5"/><path d="M393.534,44.112a1.231,1.231,0,0,0,.738-.246l6.7-5.023a1.232,1.232,0,1,0-1.477-1.971l-6.7,5.023a1.232,1.232,0,0,0,.739,2.217Zm0,0" transform="translate(-338.29 -36.609)" fill="#33c7e5"/><path d="M401.058,144.792l-6.705-5.022a1.232,1.232,0,0,0-1.477,1.971l6.7,5.023a1.232,1.232,0,0,0,1.477-1.971Zm0,0" transform="translate(-338.372 -118.41)" fill="#33c7e5"/><path d="M85.131,102.322a1.232,1.232,0,1,0,0-2.463h-6.7a1.232,1.232,0,1,0,0,2.463Zm0,0" transform="translate(-77.195 -86.875)" fill="#33c7e5"/><path d="M96.714,139.642l-6.7,5.023a1.231,1.231,0,0,0,1.476,1.97l6.7-5.023a1.232,1.232,0,1,0-1.477-1.97Zm0,0" transform="translate(-87.005 -118.282)" fill="#33c7e5"/><path d="M89.839,38.845l6.7,5.023A1.232,1.232,0,0,0,98.021,41.9l-6.7-5.023a1.232,1.232,0,1,0-1.476,1.971Zm0,0" transform="translate(-86.835 -36.611)" fill="#33c7e5"/></g></g><path d="M87.4,47.76a5.918,5.918,0,0,1-2.059,4.554A9.485,9.485,0,0,1,79.3,54.391V58.4H77.556V54.426a15.875,15.875,0,0,1-4.8-.995,9.636,9.636,0,0,1-3.542-2.181l1.012-1.989A9.852,9.852,0,0,0,73.42,51.25a13.138,13.138,0,0,0,4.135.942V43.014a27.027,27.027,0,0,1-4.013-1.274,6.805,6.805,0,0,1-2.67-1.989,5.335,5.335,0,0,1-1.064-3.472,5.949,5.949,0,0,1,1.954-4.519,9.355,9.355,0,0,1,5.793-2.146V25.6H79.3v3.978a14.785,14.785,0,0,1,3.856.646,11.681,11.681,0,0,1,3.228,1.518L85.512,33.8a13.412,13.412,0,0,0-3.036-1.431,11.924,11.924,0,0,0-3.176-.593v9.248A33.363,33.363,0,0,1,83.523,42.3a6.8,6.8,0,0,1,2.757,1.972A5.236,5.236,0,0,1,87.4,47.76ZM72.356,36.209A3.154,3.154,0,0,0,73.7,38.966a12.262,12.262,0,0,0,3.856,1.605V31.847a6.364,6.364,0,0,0-3.891,1.413A3.853,3.853,0,0,0,72.356,36.209ZM79.3,52.192a7.313,7.313,0,0,0,4.153-1.361,3.635,3.635,0,0,0,1.4-2.931,3.159,3.159,0,0,0-1.431-2.827A13.527,13.527,0,0,0,79.3,43.468Z" transform="translate(-23.187 -25.6)" fill="#33c7e5" stroke="#33c7e5" stroke-width="1"/></g></g></svg>