<svg xmlns="http://www.w3.org/2000/svg" width="168" height="168" viewBox="0 0 168 168"><g transform="translate(-1028 -2661)"><g transform="translate(1028.093 2660.682)"><g transform="translate(-0.093 0.318)" fill="#fff" stroke="#6f55d9" stroke-width="2"><circle cx="84" cy="84" r="84" stroke="none"/><circle cx="84" cy="84" r="83" fill="none"/></g></g><g transform="translate(1059.354 2687.483)"><path d="M99.5,187.039c-15.027-1.439-26.046-14.476-24.564-29.063,1.311-12.909,11.979-22.769,24.83-23.871q-1.209-.1-2.4-.1c-13.9,0-25.838,10.271-27.231,23.976C68.651,172.563,79.671,185.6,94.7,187.039a28.531,28.531,0,0,0,5.135.027c-.111-.009-.221-.017-.33-.027Zm0,0" transform="translate(-45.098 -106.492)" fill="#d4e1f4"/><path d="M49.972,79.28h0l.117-1.067-.866-1.286A37.78,37.78,0,0,0,70.446,17.558a1.232,1.232,0,0,1,1.969-1.48,40.154,40.154,0,0,1-.631,49.1,40.461,40.461,0,0,1-9.664,8.8A39.962,39.962,0,0,1,49.972,79.28Zm-21.848-.671a40.074,40.074,0,0,1-11.265-5.642A40.416,40.416,0,0,1,2.1,53.087a40.212,40.212,0,0,1,4.52-34.947l.835.54,1.626.214A37.755,37.755,0,0,0,29.063,76.322l-.939.455v1.833ZM63.653,10.273a1.22,1.22,0,0,1-.739-.247A37.673,37.673,0,0,0,40.349,2.463h-.113A37.683,37.683,0,0,0,21.144,7.653V5.543l-.292-.559A39.986,39.986,0,0,1,40.236,0h.118A39.894,39.894,0,0,1,64.394,8.057a1.232,1.232,0,0,1-.741,2.217Z" transform="translate(10.531 13.549)" fill="#4126b4"/><path d="M31.408,55.62h0V53.138A25.458,25.458,0,0,0,48.535,12.985a1.232,1.232,0,0,1,1.994-1.447,27.853,27.853,0,0,1,1.2,30.937A28.029,28.029,0,0,1,31.408,55.62ZM23.2,55.438a27.657,27.657,0,0,1-9.174-3.31A28.079,28.079,0,0,1,1.775,37.718,27.83,27.83,0,0,1,4.213,13.184,28.17,28.17,0,0,1,7.243,9.178L9.11,10.765A25.453,25.453,0,0,0,23.2,52.933v2.5ZM43.626,7.574a1.237,1.237,0,0,1-.746-.251,25.105,25.105,0,0,0-14.9-4.859h-.064A25.4,25.4,0,0,0,14.251,6.444L12.6,4.587A27.763,27.763,0,0,1,27.919,0h.068A27.709,27.709,0,0,1,44.329,5.331a1.232,1.232,0,0,1-.7,2.243Z" transform="translate(22.848 25.865)" fill="#4126b4"/><path d="M290.554,14.522l-12.2-1.207-1.207-12.2a1.232,1.232,0,0,0-2.1-.75L259.079,16.329a1.232,1.232,0,0,0-.324,1.17l2.734,10.937L249.067,40.858a1.232,1.232,0,1,0,1.742,1.742l12.422-12.422,10.936,2.734a1.232,1.232,0,0,0,1.171-.324L291.3,16.62a1.231,1.231,0,0,0-.75-2.1Zm-29.24,3.055L274.948,3.943l.993,10.039L263.521,26.4Zm12.774,12.774-8.826-2.206,12.42-12.42,10.038.993Zm0,0" transform="translate(-186.293 -0.001)" fill="#33c7e5"/><path d="M249.81,14.522l12.2-1.207,1.207-12.2a1.232,1.232,0,0,1,2.1-.75l15.967,15.967a1.232,1.232,0,0,1,.324,1.17l-2.734,10.937L291.3,40.858a1.232,1.232,0,1,1-1.742,1.742L277.133,30.177,266.2,32.911a1.232,1.232,0,0,1-1.171-.324L249.059,16.62a1.231,1.231,0,0,1,.75-2.1Zm29.24,3.055L265.416,3.943l-.993,10.039,12.42,12.42ZM266.276,30.351l8.826-2.206-12.42-12.42-10.038.993Zm0,0" transform="translate(-248.699 -0.001)" fill="#33c7e5"/><path d="M41.856,14.521l-12.2-1.207L28.445,1.11a1.232,1.232,0,0,0-2.1-.75L10.381,16.328a1.231,1.231,0,0,0-.324,1.17L12.79,28.435.368,40.857A1.232,1.232,0,1,0,2.11,42.6L14.532,30.177,25.468,32.91a1.232,1.232,0,0,0,1.171-.324L42.606,16.619a1.231,1.231,0,0,0-.75-2.1Zm-29.24,3.055L26.249,3.943l.993,10.039L14.822,26.4ZM25.389,30.351l-8.826-2.206,12.42-12.42,10.038.993Zm0,0" transform="matrix(-0.719, 0.695, -0.695, -0.719, 80.19, 95.71)" fill="#33c7e5"/><path d="M159.922,204.669a1.387,1.387,0,0,0-1.388-.775,1.348,1.348,0,0,0-1.387.775L151.7,222.417a.634.634,0,0,0-.054.213c0,.561.775.934,1.362.934a.774.774,0,0,0,.828-.493l1.174-3.964h7.019l1.174,3.963a.764.764,0,0,0,.8.5c.64,0,1.387-.431,1.387-.965,0-.054-.026-.108-.026-.188Zm-4.4,12.59,3.016-10.035L161.5,217.26Zm0,0" transform="translate(-109.986 -162.039)" fill="#33c7e5"/><path d="M231.129,204.676c-.561,0-1.129.241-1.129.774v17.934c0,.534.569.8,1.129.8s1.129-.267,1.129-.8V205.45C232.258,204.917,231.69,204.676,231.129,204.676Zm0,0" transform="translate(-172.254 -162.66)" fill="#33c7e5"/></g></g></svg>