<svg xmlns="http://www.w3.org/2000/svg" width="168" height="169" viewBox="0 0 168 169"><g transform="translate(-1028 -2306)"><g transform="translate(1028.093 2306.338)"><g transform="translate(-0.093 -0.338)" fill="#fff" stroke="#6f55d9" stroke-width="2"><ellipse cx="84" cy="84.5" rx="84" ry="84.5" stroke="none"/><ellipse cx="84" cy="84.5" rx="83" ry="83.5" fill="none"/></g></g><g transform="translate(1071.304 2347.013)"><path d="M93.611,103.325a15.181,15.181,0,0,1,5.731-1.123,1.232,1.232,0,0,0,0-2.463,17.685,17.685,0,1,0,0,35.37,1.206,1.206,0,0,0,1.232-1.2,1.218,1.218,0,0,0-1.232-1.216,15.24,15.24,0,0,1-5.731-29.365Zm0,0" transform="translate(-64.894 -79.366)" fill="#4126b4"/><path d="M1,59.5,5.435,61a30.966,30.966,0,0,0,3.3,7.567L6.8,72.878a1.23,1.23,0,0,0,.264,1.385L14,81.029a1.231,1.231,0,0,0,1.406.222l4.245-2.1a27.784,27.784,0,0,0,7.683,3.032l1.645,4.443a1.251,1.251,0,0,0,1.155.821h.02l4.311-.095a1.239,1.239,0,0,0-.043-2.478l-3.44.057L29.409,80.7a1.233,1.233,0,0,0-.906-.778A25.369,25.369,0,0,1,20.348,76.7a1.231,1.231,0,0,0-1.188-.054L15.1,78.657,9.4,73.1l1.848-4.123a1.232,1.232,0,0,0-.085-1.164,28.484,28.484,0,0,1-3.524-8.081,1.232,1.232,0,0,0-.8-.855L2.612,57.445,2.477,49.5l4.235-1.575a1.232,1.232,0,0,0,.778-.906,25.4,25.4,0,0,1,3.217-8.157,1.231,1.231,0,0,0,.053-1.188L8.753,33.612l5.557-5.694,4.123,1.848a1.231,1.231,0,0,0,1.164-.084,28.518,28.518,0,0,1,8.081-3.525,1.232,1.232,0,0,0,.856-.8l1.433-4.232,4.5-.075a1.232,1.232,0,1,0-.041-2.463l-5.37.091a1.231,1.231,0,0,0-1.146.836l-1.5,4.434a30.947,30.947,0,0,0-7.567,3.3l-4.311-1.932a1.232,1.232,0,0,0-1.385.264L6.382,32.516a1.232,1.232,0,0,0-.224,1.407l2.1,4.245a27.849,27.849,0,0,0-3.032,7.685L.8,47.5A1.232,1.232,0,0,0,0,48.672l.164,9.682A1.232,1.232,0,0,0,1,59.5Zm0,0" transform="translate(0.001 -14.875)" fill="#4126b4"/><g transform="translate(36.951 0)"><path d="M235.5,154.379a6.493,6.493,0,0,0-6.378,5.267H180v2.463h49.12a6.5,6.5,0,1,0,6.378-7.73Zm2.853,9.351a4.034,4.034,0,1,1,0-5.705,4.034,4.034,0,0,1,0,5.705Zm0,0" transform="translate(-180.001 -122.79)" fill="#33c7e5"/><path d="M201.9,74.484a6.58,6.58,0,0,0-6.6,6.569,4.115,4.115,0,0,1-4.132,4.106H180v2.463h11.17a6.581,6.581,0,0,0,6.6-6.569,4.114,4.114,0,0,1,4.132-4.106h10.378a6.532,6.532,0,1,0,1.787-5.847,6.642,6.642,0,0,0-1.787,3.384ZM215.8,72.821a4.022,4.022,0,1,1-1.188,2.854,4.035,4.035,0,0,1,1.188-2.854Zm0,0" transform="translate(-180 -55.077)" fill="#33c7e5"/><path d="M218.657,218.486a6.439,6.439,0,0,0-4.595,1.882,6.515,6.515,0,0,0-1.786,3.342H201.9a4.114,4.114,0,0,1-4.132-4.106,6.58,6.58,0,0,0-6.6-6.569H180V215.5H191.17A4.115,4.115,0,0,1,195.3,219.6a6.581,6.581,0,0,0,6.6,6.569h10.378a6.642,6.642,0,0,0,1.787,3.384,6.491,6.491,0,1,0,4.595-11.072Zm2.853,9.351a4.033,4.033,0,1,1,0-5.705,4.032,4.032,0,0,1,0,5.705Zm0,0" transform="translate(-180 -169.405)" fill="#33c7e5"/><path d="M188.557,254.1l3.49,9.437a8.033,8.033,0,0,0,7.488,5.229h1.63a6.528,6.528,0,1,0,1.64-6.448,6.647,6.647,0,0,0-1.874,3.984h-1.4a5.56,5.56,0,0,1-5.179-3.621l-3.489-9.429a8.027,8.027,0,0,0-7.49-5.22H180V250.5h3.378a5.544,5.544,0,0,1,5.179,3.6Zm15.99,9.943a4.034,4.034,0,1,1-1.182,2.853A4.034,4.034,0,0,1,204.547,264.046Zm0,0" transform="translate(-180 -197.22)" fill="#33c7e5"/><path d="M201.165,5.124h-1.63a8.033,8.033,0,0,0-7.489,5.229l-3.49,9.429a5.554,5.554,0,0,1-5.179,3.613H180v2.463h3.378a8.02,8.02,0,0,0,7.49-5.212l3.489-9.437a5.558,5.558,0,0,1,5.179-3.621h1.4a6.653,6.653,0,0,0,1.873,3.985,6.48,6.48,0,1,0-1.639-6.448Zm3.382-.983a4.035,4.035,0,1,1-1.181,2.854,4.034,4.034,0,0,1,1.181-2.854Zm0,0" transform="translate(-180 -0.497)" fill="#33c7e5"/></g></g></g></svg>