<svg xmlns="http://www.w3.org/2000/svg" width="168" height="169" viewBox="0 0 168 169"><g transform="translate(-722 -2306)"><g transform="translate(721.604 2306.338)"><g transform="translate(0.396 -0.338)" fill="#fff" stroke="#6f55d9" stroke-width="2"><ellipse cx="84" cy="84.5" rx="84" ry="84.5" stroke="none"/><ellipse cx="84" cy="84.5" rx="83" ry="83.5" fill="none"/></g></g><g transform="translate(756.118 2336.919)"><path d="M124.385,146.888A24.98,24.98,0,0,1,148.1,121.969q-.612-.03-1.232-.031a24.95,24.95,0,0,0,0,49.9q.619,0,1.232-.03a24.981,24.981,0,0,1-23.718-24.92Zm0,0" transform="translate(-96.943 -96.906)" fill="#d4e1f4"/><path d="M93.509,43.323A6.57,6.57,0,0,0,87.027,48.7H77.555a27.5,27.5,0,0,0-7.25-17.328l6.717-6.707a6.528,6.528,0,1,0-1.715-1.757l-6.752,6.752A27.307,27.307,0,0,0,51.2,22.589V13.108a6.594,6.594,0,1,0-2.463-.079v9.577A27.311,27.311,0,0,0,31.6,29.833l-6.713-6.713a6.587,6.587,0,1,0-1.781,1.7l6.758,6.736a27.468,27.468,0,0,0-7.087,17.35H13.351A6.592,6.592,0,1,0,6.833,56.5a6.669,6.669,0,0,0,6.421-5.126H22.8a27.388,27.388,0,0,0,7.2,17.12L23.32,75.179a6.631,6.631,0,1,0,1.715,1.779l6.7-6.7a27.309,27.309,0,0,0,17.2,7.11V86.8a6.591,6.591,0,1,0,2.463,0V77.365A27.312,27.312,0,0,0,68.72,70.146l6.68,6.679A6.577,6.577,0,1,0,77.156,75.1l-6.7-6.721a27.437,27.437,0,0,0,7.1-17.209h9.489a6.589,6.589,0,1,0,6.466-7.845ZM77.9,16.372a4.128,4.128,0,1,1,0,5.838A4.127,4.127,0,0,1,77.9,16.372ZM46.044,6.6a4.127,4.127,0,1,1,4.127,4.127A4.127,4.127,0,0,1,46.044,6.6ZM16.607,22.21a4.128,4.128,0,1,1,5.838,0A4.128,4.128,0,0,1,16.607,22.21ZM6.833,54.063a4.127,4.127,0,1,1,4.127-4.127A4.127,4.127,0,0,1,6.833,54.063ZM22.445,83.5a4.128,4.128,0,1,1-.132-5.956,1.192,1.192,0,0,0,.37.382,4.123,4.123,0,0,1-.238,5.574ZM54.3,93.275a4.127,4.127,0,1,1-4.4-4.115,1.208,1.208,0,0,0,.536,0A4.13,4.13,0,0,1,54.3,93.274ZM83.735,77.662a4.128,4.128,0,1,1-5.838,0A4.128,4.128,0,0,1,83.735,77.662ZM50.171,74.931a24.95,24.95,0,1,1,24.95-24.95A24.95,24.95,0,0,1,50.171,74.931ZM93.509,54.063a4.127,4.127,0,1,1,4.127-4.127A4.127,4.127,0,0,1,93.509,54.063Zm0,0" transform="translate(-0.242 0.001)" fill="#4126b4"/><g transform="translate(30.258 31.421)"><path d="M259.435,234.789a1.321,1.321,0,0,1,2.081,1.241,1.232,1.232,0,1,0,2.443.322,3.772,3.772,0,0,0-1.932-3.8,1.3,1.3,0,0,1,.248-1.126,1.231,1.231,0,1,0-1.921-1.542,3.749,3.749,0,0,0-.827,2.261,3.655,3.655,0,0,0-1.532.648,1.232,1.232,0,1,0,1.441,2Zm0,0" transform="translate(-234.927 -213.746)" fill="#33c7e5"/><path d="M262.518,195.23a3.368,3.368,0,0,0,.4.114c.01.076.019.152.034.228a3.231,3.231,0,0,0,.336.918,1.232,1.232,0,0,0,2.158-1.189.755.755,0,0,1,.848-1.1,1.232,1.232,0,1,0,.611-2.386,3.213,3.213,0,0,0-3.33,1.136.717.717,0,0,1-.225-.041.755.755,0,0,1-.283-.181,1.232,1.232,0,1,0-1.762,1.722A3.2,3.2,0,0,0,262.518,195.23Zm0,0" transform="translate(-237.696 -183.781)" fill="#33c7e5"/><path d="M249.657,190.029a5.209,5.209,0,0,0,3.086-1.017,5,5,0,0,0,2.161.489,5.166,5.166,0,0,0,5.156-5.191v-1.065a6.545,6.545,0,0,0,3.864-5.929,6.474,6.474,0,0,0-1.831-4.54,5.108,5.108,0,0,0,.342-.445,5.01,5.01,0,0,0-1.394-6.94c-.079-.053-.159-.1-.241-.148a6.491,6.491,0,0,0-7.268-7.7,4.537,4.537,0,1,0-9.073.113v27.185A5.2,5.2,0,0,0,249.657,190.029Zm-2.734-32.375a2.073,2.073,0,1,1,3.949.875c-.109.071-.217.142-.322.22a1.232,1.232,0,0,0,1.464,1.981,4.048,4.048,0,0,1,5.908,5.281,1.23,1.23,0,0,0,1.891,1.529,2.53,2.53,0,0,1,.259,3.818,6.479,6.479,0,0,0-2.621-.552,1.232,1.232,0,1,0,0,2.463,4.047,4.047,0,0,1,0,8.094,1.232,1.232,0,0,0-1.208.993c-.008-.01-.014-.02-.022-.03a1.866,1.866,0,0,1,.121-2.505,1.232,1.232,0,1,0-1.741-1.742,4.308,4.308,0,0,0-.913,1.343,1.862,1.862,0,0,1-1.714-.218,1.232,1.232,0,0,0-1.413,2.018,4.284,4.284,0,0,0,1.787.725,4.373,4.373,0,0,0,.694.056c.125,0,.25-.007.375-.018a4.288,4.288,0,0,0,.9,1.909,1.232,1.232,0,0,0,2.159-.544,1.158,1.158,0,0,0,.936.478c.074,0,.183,0,.183-.006v.489a2.7,2.7,0,1,1-5.4,0,1.225,1.225,0,1,0-2.45,0,5.16,5.16,0,0,0,.985,3.034,2.733,2.733,0,0,1-3.812-2.505Zm0,0" transform="translate(-224.584 -153.06)" fill="#33c7e5"/><path d="M151.5,183.5v1.065a5.165,5.165,0,0,0,5.154,5.191,5.063,5.063,0,0,0,2.178-.489,5.185,5.185,0,0,0,8.27-4.174V157.911a4.536,4.536,0,0,0-9.07-.113,6.657,6.657,0,0,0-.885-.063,6.51,6.51,0,0,0-6.389,7.767c-.083.047-.164.1-.243.148a5.012,5.012,0,0,0-1.4,6.94,5.138,5.138,0,0,0,.333.446,6.453,6.453,0,0,0-1.812,4.539A6.545,6.545,0,0,0,151.5,183.5Zm.249-15.706a1.231,1.231,0,0,0,1.891-1.529,4.048,4.048,0,0,1,5.907-5.281,1.232,1.232,0,0,0,1.463-1.981c-.105-.078-.214-.149-.323-.22a2.072,2.072,0,1,1,3.951-.875V185.1a2.731,2.731,0,0,1-3.809,2.506,5.157,5.157,0,0,0,.981-3.034,1.232,1.232,0,0,0-2.465,0,2.691,2.691,0,1,1-5.382,0v-.489s.11.006.184.006a1.2,1.2,0,0,0,.954-.479,1.209,1.209,0,0,0,1.193.993,1.223,1.223,0,0,0,.949-.448,4.28,4.28,0,0,0,.9-1.909c.124.011.249.018.374.018a4.341,4.341,0,0,0,2.481-.781,1.232,1.232,0,1,0-1.413-2.018,1.864,1.864,0,0,1-1.714.218,4.318,4.318,0,0,0-.913-1.343,1.232,1.232,0,0,0-1.741,1.743,1.867,1.867,0,0,1,.121,2.505c-.008.01-.014.02-.022.03a1.231,1.231,0,0,0-1.208-.993,4.047,4.047,0,0,1,0-8.094,1.232,1.232,0,0,0,0-2.463,6.479,6.479,0,0,0-2.621.553,2.53,2.53,0,0,1,.259-3.818Zm0,0" transform="translate(-147.64 -153.318)" fill="#33c7e5"/><path d="M202.17,232.142a3.751,3.751,0,0,0-.827-2.261,1.232,1.232,0,0,0-1.921,1.542,1.3,1.3,0,0,1,.249,1.127,3.772,3.772,0,0,0-1.933,3.8,1.232,1.232,0,1,0,2.443-.322,1.31,1.31,0,0,1,.056-.584,1.322,1.322,0,0,1,2.025-.658,1.231,1.231,0,1,0,1.44-2A3.651,3.651,0,0,0,202.17,232.142Zm0,0" transform="translate(-187.428 -213.745)" fill="#33c7e5"/><path d="M194,194.2a.755.755,0,0,1,.926.88.765.765,0,0,1-.079.216A1.232,1.232,0,1,0,197,196.49a3.183,3.183,0,0,0,.336-.918c.015-.076.025-.152.035-.228a3.149,3.149,0,0,0,1.613-.89,1.232,1.232,0,0,0-1.762-1.722.726.726,0,0,1-.508.222,3.213,3.213,0,0,0-3.33-1.135A1.232,1.232,0,0,0,194,194.2Zm0,0" transform="translate(-183.258 -183.782)" fill="#33c7e5"/></g></g></g></svg>