<svg xmlns="http://www.w3.org/2000/svg" width="168" height="169" viewBox="0 0 168 169"><g transform="translate(-416 -2306)"><g transform="translate(416 2306.338)"><g transform="translate(0 -0.338)" fill="#fff" stroke="#6f55d9" stroke-width="2"><ellipse cx="84" cy="84.5" rx="84" ry="84.5" stroke="none"/><ellipse cx="84" cy="84.5" rx="83" ry="83.5" fill="none"/></g></g><g transform="translate(457.714 2357.13)"><g transform="translate(0 0)"><path d="M26.37,64.31V55.586a1.284,1.284,0,0,0-1.3-1.227H21.249a5.153,5.153,0,0,1-5.143-5.149V17.223a5.156,5.156,0,0,1,5.143-5.152H17.143A5.156,5.156,0,0,0,12,17.223V49.21a5.153,5.153,0,0,0,5.143,5.149h3.825a1.283,1.283,0,0,1,1.3,1.226V67.972Zm0,0" transform="translate(-9.537 -9.607)" fill="#d4e1f4"/><path d="M0,7.686V39.673a7.62,7.62,0,0,0,7.607,7.612h2.657v13.9a1.2,1.2,0,0,0,.7,1.123,1.154,1.154,0,0,0,.488.108,1.213,1.213,0,0,0,.811-.308L28.9,47.285H66.434a7.677,7.677,0,0,0,7.673-7.612V35.461a10.876,10.876,0,0,0,3.49-.982V44.909A12.45,12.45,0,0,1,65.116,57.344H54.811a7.961,7.961,0,1,0,0,2.463H65.116a14.917,14.917,0,0,0,14.945-14.9V32.973a12.1,12.1,0,0,0,4.545-9.293A11.811,11.811,0,0,0,74.107,11.9V7.686A7.68,7.68,0,0,0,66.434.07H7.607A7.623,7.623,0,0,0,0,7.686ZM46.963,64.109a5.479,5.479,0,1,1,5.479-5.478A5.478,5.478,0,0,1,46.963,64.109ZM82.179,23.68a9.44,9.44,0,0,1-8.072,9.3V14.382a9.44,9.44,0,0,1,8.072,9.3ZM71.644,7.686V39.673a5.211,5.211,0,0,1-5.21,5.149h-38a1.149,1.149,0,0,0-.787.308l-14.918,13.3V46.048a1.283,1.283,0,0,0-1.3-1.226H7.607a5.153,5.153,0,0,1-5.143-5.149V7.686A5.156,5.156,0,0,1,7.607,2.534H66.434a5.214,5.214,0,0,1,5.21,5.152Zm0,0" transform="translate(0 -0.07)" fill="#4126b4"/></g><path d="M17.448,28.3v1.786H7.122v-1.4l5.851-5.645a6.988,6.988,0,0,0,1.437-1.776,3.382,3.382,0,0,0,.37-1.509A2.112,2.112,0,0,0,13.989,18a3.582,3.582,0,0,0-2.268-.626,4.5,4.5,0,0,0-3.675,1.56l-1.4-1.211a5.6,5.6,0,0,1,2.207-1.6,7.783,7.783,0,0,1,3.048-.575A5.552,5.552,0,0,1,15.5,16.629a3.561,3.561,0,0,1,1.334,2.925,4.966,4.966,0,0,1-.493,2.176,8.7,8.7,0,0,1-1.868,2.34L10.078,28.3Zm13.467-1.745h-2.73v3.531H26.193V26.554H18.207V25.117l7.349-9.4h2.217l-7.041,9.074h5.522v-3.12h1.93v3.12h2.73ZM37.586,12.8h1.786L32.6,32.138H30.812Zm12.4,2.915v1.4l-5.81,12.974H42L47.686,17.5H41.117v2.566H39.146V15.715Z" transform="translate(9.29 0.297)" fill="#33c7e5" stroke="#33c7e5" stroke-width="1"/></g></g></svg>