<svg xmlns="http://www.w3.org/2000/svg" xmlns:xlink="http://www.w3.org/1999/xlink" width="1920" height="964" viewBox="0 0 1920 964"><defs><style>.a{fill:#fff;}.b{clip-path:url(#a);}.c{fill:url(#b);}.d{fill:url(#c);}.e{fill:url(#d);}.f{fill:url(#e);}.g{fill:url(#f);}.h{fill:none;}</style><clipPath id="a"><rect class="a" width="1920" height="964" transform="translate(2377)"/></clipPath><radialGradient id="b" cx="0.761" cy="0.518" r="0.643" gradientTransform="translate(0.178) scale(0.644 1)" gradientUnits="objectBoundingBox"><stop offset="0" stop-color="#261456"/><stop offset="0.166" stop-color="#29145e"/><stop offset="0.429" stop-color="#331675"/><stop offset="0.755" stop-color="#44199a"/><stop offset="1" stop-color="#531cbb"/></radialGradient><linearGradient id="c" x1="0.393" y1="0.976" x2="0.543" y2="0.463" gradientUnits="objectBoundingBox"><stop offset="0" stop-color="#0064b1"/><stop offset="0.111" stop-color="#0360b1" stop-opacity="0.953"/><stop offset="0.287" stop-color="#0e57b2" stop-opacity="0.824"/><stop offset="0.506" stop-color="#2048b4" stop-opacity="0.612"/><stop offset="0.756" stop-color="#3833b7" stop-opacity="0.322"/><stop offset="1" stop-color="#531cbb" stop-opacity="0"/></linearGradient><linearGradient id="d" x1="0.241" y1="0.79" x2="0.7" y2="0.28" gradientUnits="objectBoundingBox"><stop offset="0" stop-color="#3586c3"/><stop offset="0.103" stop-color="#3681c2" stop-opacity="0.957"/><stop offset="0.267" stop-color="#3974c1" stop-opacity="0.839"/><stop offset="0.472" stop-color="#3f60c0" stop-opacity="0.647"/><stop offset="0.708" stop-color="#4744be" stop-opacity="0.38"/><stop offset="0.968" stop-color="#5120bb" stop-opacity="0.043"/><stop offset="1" stop-color="#531cbb" stop-opacity="0"/></linearGradient><linearGradient id="e" x1="0.535" y1="1.228" x2="0.575" y2="-0.078" gradientUnits="objectBoundingBox"><stop offset="0" stop-color="#1e6eb6"/><stop offset="0.197" stop-color="#285ac6" stop-opacity="0.773"/><stop offset="0.354" stop-color="#3541d9" stop-opacity="0.498"/><stop offset="0.547" stop-color="#3f2ee8" stop-opacity="0.282"/><stop offset="0.723" stop-color="#4621f3" stop-opacity="0.129"/><stop offset="0.877" stop-color="#4b18fa" stop-opacity="0.035"/><stop offset="0.957" stop-color="#4d16fd" stop-opacity="0"/><stop offset="1" stop-color="#4d16fd" stop-opacity="0"/></linearGradient><linearGradient id="f" x1="0.253" y1="0.893" x2="0.676" y2="0.245" gradientUnits="objectBoundingBox"><stop offset="0" stop-color="#474d9e"/><stop offset="0.07" stop-color="#4746a8" stop-opacity="0.89"/><stop offset="0.294" stop-color="#4935c6" stop-opacity="0.576"/><stop offset="0.505" stop-color="#4b27de" stop-opacity="0.325"/><stop offset="0.698" stop-color="#4c1eef" stop-opacity="0.145"/><stop offset="0.866" stop-color="#4c18f9" stop-opacity="0.039"/><stop offset="0.991" stop-color="#4d16fd" stop-opacity="0"/></linearGradient></defs><g class="b" transform="translate(-2377)"><g transform="translate(2583.874 -9.623)"><path class="c" d="M-219.411,1.439,1709.922.106v964L22.574,963.423H-219.411Z" transform="translate(3.537 8.183)"/><g transform="translate(-315.874 -96.377)"><path class="d" d="M1143.708,561.468c-16.411-11.61-37.078-15.256-55.972-20.917-22.17-6.642-44.169-13.939-65.612-22.67-43.012-17.515-83.934-41.351-115.583-75.821-32.329-35.21-54.812-78.071-86.578-113.743-31.368-35.225-71.93-59.986-113.706-80.995-47.609-23.942-96.421-45.631-144.689-68.205L410.3,108.369,257.923,37.1c-46.976-21.97-93.239-46.793-145.989-50.038-26.2-1.613-52.438.577-78.538,2.772a1.814,1.814,0,0,0-1.258.628,1.82,1.82,0,0,0-3.026-.861c-66.93,67.007-99.686,160.388-105.054,253.66-3.021,52.488,1.817,105.613,12.305,157.084,4.341,21.3,10.284,42.826,21.561,61.605A99.673,99.673,0,0,0,4.62,502.465c21.448,9.254,45.051,12.785,68.154,14.942,27.333,2.552,54.823,2.441,82.244,1.957,27.1-.478,54.224-1.348,81.328-.414,27.657.954,55.168,4.048,82.58,7.719,52.857,7.08,105.206,14.776,158.62,16.008,51.862,1.2,104.462-.228,155.4,11.191,24.9,5.582,47.929,15.341,71.343,25.229A289.749,289.749,0,0,0,778.8,599.771c54.284,7.409,109.319,12.107,163.966,15.883,55.034,3.8,110.35,5.236,165.42,1.3,16.019-1.147,37.71-2.414,47.481-17.427C1165.032,585.14,1156.023,570.179,1143.708,561.468Z" transform="translate(81.764 115.76)"/><path class="e" d="M1381.944,523.133c-3.943-20.208-20.49-35.706-32.388-51.53a115.2,115.2,0,0,1-17.424-33.3c-4.051-12.09-7.208-24.6-13.195-35.936-9.17-17.368-24.554-29.96-41.134-39.924-18.116-10.888-37.666-19.137-55.817-29.961-20.654-12.316-35.908-28.948-50.984-47.413-15.63-19.146-31.588-35.877-54.049-46.915-11.411-5.607-23.306-10.166-34.669-15.875a151.25,151.25,0,0,1-30.363-20.25c-33.714-28.782-57.238-69.056-96.03-91.928-44.8-26.416-99.112-20.441-148.472-29.443a304.246,304.246,0,0,1-140.883-66.4C646.179-2.891,627.764-22.26,606.751-38.651A241.934,241.934,0,0,0,544.04-73.74c-45.551-17.385-94.9-22.318-143.31-23.36-24.209-.521-48.424-.02-72.624.637a1.646,1.646,0,0,0-.865-.126c-17.939,1.9-37.872,5.39-52.223,17.175-15.848,13.018-15.809,33.259-6.039,50.1C275.243-18.516,283.926-9.144,292.117.2c8.629,9.838,17.606,19.446,27.756,27.746,15.958,13.051,34.59,21.943,54.336,27.63,79.665,22.941,180.984-2.894,240.471,68.3,15.443,18.481,27.793,39.414,45.783,55.7,14.111,12.771,30.416,22.861,47.357,31.418,34.894,17.626,72.549,29,107.447,46.606,16.53,8.338,32.5,18.171,46.006,30.937,15.824,14.961,26.753,33.331,33.481,53.995,14.012,43.041,14.807,91.653,50.469,124.222,30.842,28.168,74.292,36.909,114.294,42.842,23.473,3.482,47.084,5.956,70.459,10.1A672.135,672.135,0,0,1,1213.3,540c27.005,8.445,52.644,20.233,79.384,29.285,21.252,7.193,44.486,10.4,65.115-.383C1374.86,559.991,1385.75,542.633,1381.944,523.133Z" transform="translate(156.371 97.316)"/><path class="f" d="M1157,543.383c-7.146-5.726-17.118-5.835-25.807-5.641-49.1,1.1-98.048-.194-146.931-5.262-98.394-10.2-194.462-34.263-286.7-69.817-44.284-17.071-88.654-35.525-135.7-43.515-23.412-3.976-46.759-4.53-70.42-2.927-25.369,1.719-50.99,4.466-76.165-.627-22.54-4.562-43.659-14.006-64.776-22.806-21.006-8.754-42.191-16.3-64.7-20.113-45.265-7.667-91.369-3.285-136.78.537-46.628,3.924-94.224,7.642-140.353-2.5-16.681-3.666-34.434-8.5-51.6-5.375-18.535,3.377-27.491,17.565-30.325,35.259-7.718,48.181-9,98.007-6.431,146.664A765.947,765.947,0,0,0-57.758,693.247c4.146,16.513,7.77,38.514,23.145,48.74,8.111,5.394,17.972,5.64,27.379,5.677,12.9.051,25.791,141.874,38.687,141.85,51.558-.1,103.177-.9,154.576-5.252,25.014-2.118,49.964-5.074,74.734-9.168,25.307-4.184,50.413-9.491,75.706-13.755,46.031-7.761,93.945-7.08,139.063-19.751,21.659-6.083,41.212-16.047,59.452-29.151,18.668-13.41,36.041-28.609,55.875-40.352,40.966-24.252,88.316-35.059,134.955-41.959,51.363-7.6,103.321-9.942,155.148-11.942,48.655-1.879,59.867,2.452,135.5,0,5.054-.164,51.333-1.074,96.51-11.074,86.157-22,126.157-40,172.824-68,.042,0,43.293-26,43.333-26l-216.157-44.683c-1.842.246,300.063,58.327,302.157,58.683,10.867,1.845-280.679-53.024-269.762-54.692,7.243-1.107,16.086-2.845,18.274-11.018C1165.375,554.91,1162.1,547.466,1157,543.383Z" transform="translate(80.874 198.89)"/><path class="g" d="M1317.491,570.479a1.856,1.856,0,0,0-2.62,1.06l-110.577-33.148a1.815,1.815,0,0,0-.36-1.78c-28.561-33.78-45.795-74.8-65.211-114.078-9.6-19.428-19.84-38.633-32.326-56.388a296.839,296.839,0,0,0-43.273-48.347c-35.348-32.2-75.874-58.654-116.345-83.875-41.791-26.045-84.084-51.358-126.5-76.37-83.739-49.38-169.587-96.1-260.913-130A1039.974,1039.974,0,0,0,271.077-34.671C174.941-41.448,75.783-36.364-16.246-5.789Q-33.578-.032-50.46,6.954c-1.577.65-1.864,2.96,0,3.508a1356.422,1356.422,0,0,1,171.1,62.928Q162.1,91.916,202.252,113.2c25.114,13.318,50.005,27.619,68.779,49.427,15.92,18.492,28.389,40.576,49.068,54.424,19.451,13.025,42.957,16.769,65.917,17.572,25.633.9,51.358-1.49,76.931,1.131,24.7,2.532,47.005,11.418,67.292,25.6,38.059,26.611,66.53,65.175,107.023,88.587,44.565,25.767,97.836,26.2,144.892,45.247,24.314,9.844,44.338,25.574,61.579,45.158,15.812,17.958,29.278,37.8,44.336,56.361,15.592,19.226,33.031,36.4,54.637,48.769,24.362,13.949,51.464,23.112,77.647,32.971,55.227,20.8,111.959,40.113,170.972,46.221,28.867,2.988,58.124,2.555,86.72-2.627,18.282-3.314,47.248-8.661,49.2-31.878C1327.921,582.134,1324.831,574.31,1317.491,570.479Z" transform="translate(87.281 110.518)"/></g><rect class="h" width="1686.194" height="925.379" transform="translate(3.046 21.67)"/></g></g></svg>