<svg xmlns="http://www.w3.org/2000/svg" xmlns:xlink="http://www.w3.org/1999/xlink" width="283" height="375.856" viewBox="0 0 283 375.856"><defs><clipPath id="a"><path d="M699.206,213.868H771.43V127.625a36.111,36.111,0,0,0-36.112-36.112h0a36.111,36.111,0,0,0-36.112,36.112Z" transform="translate(-699.206 -91.513)" fill="none"/></clipPath></defs><g transform="translate(-474 -2191.144)"><g transform="translate(573.892 2349.458)"><path d="M809.191,441.054h23.441c3.1,0,5.611-4.163,5.611-9.3V223.513H801.706V428.651C801.706,435.5,805.057,441.054,809.191,441.054Z" transform="translate(-801.706 -223.513)" fill="#3e479b"/><path d="M826.091,441.054H841.1V223.513H820.706V432.13C820.706,437.059,823.117,441.054,826.091,441.054Z" transform="translate(-820.706 -223.513)" fill="#4c65ba"/></g><g transform="translate(492.747 2228.803)"><g transform="translate(0)"><path d="M858.345,81.513H741.489A47.283,47.283,0,0,0,694.206,128.8v83.082a3.461,3.461,0,0,0,3.461,3.462H902.842a.388.388,0,0,0,.387-.387V126.4A44.883,44.883,0,0,0,858.345,81.513Z" transform="translate(-694.206 -81.513)" fill="#588aff"/></g><g transform="translate(14.089 18.268)" opacity="0.07"><path d="M846.812,103.013H758.489A47.283,47.283,0,0,0,711.206,150.3v64.813a3.461,3.461,0,0,0,3.461,3.462H891.308a.388.388,0,0,0,.387-.387V147.9A44.883,44.883,0,0,0,846.812,103.013Z" transform="translate(-711.206 -103.013)" fill="#ecf1f7"/></g><g transform="translate(0 123.205)" opacity="0.65"><path d="M787.6,237.559H916.682V226.513H783.706v7.147A3.9,3.9,0,0,0,787.6,237.559Z" transform="translate(-783.706 -226.513)" fill="#4c65ba"/></g><g transform="translate(0 123.205)" opacity="0.65"><path d="M787.6,237.559H916.682V226.513H783.706v7.147A3.9,3.9,0,0,0,787.6,237.559Z" transform="translate(-783.706 -226.513)" fill="#4c65ba"/></g><path d="M870.537,237.192h58.753V226.9h-61.7v7.347A2.949,2.949,0,0,0,870.537,237.192Z" transform="translate(-867.589 -103.366)" fill="#3e479b"/><path d="M126.6,0H0V75.622H126.6Z" transform="translate(0 47.582)" fill="#373449" opacity="0.07"/></g><g transform="translate(619.351 2231.352)"><path d="M699.3,212.816h72.224a5.1,5.1,0,0,0,5.1-5.1V125.723a41.21,41.21,0,0,0-41.21-41.21h0a41.21,41.21,0,0,0-41.21,41.21v81.995A5.1,5.1,0,0,0,699.3,212.816Z" transform="translate(-694.206 -84.513)" fill="#4c65ba"/></g><path d="M699.206,213.868H771.43V127.625a36.111,36.111,0,0,0-36.112-36.112h0a36.111,36.111,0,0,0-36.112,36.112Z" transform="translate(-73.908 2145.787)" fill="#373449"/><g transform="translate(625.298 2237.3)" clip-path="url(#a)"><g transform="translate(-6.854 66.512)"><path d="M716.509,214.588h59.832a3.915,3.915,0,0,0,3.915-3.915V174.681a4.89,4.89,0,0,0-4.89-4.89H718.52a5.926,5.926,0,0,0-5.926,5.925v34.957A3.915,3.915,0,0,0,716.509,214.588Z" transform="translate(-712.555 -169.791)" fill="#fff"/><path d="M715.708,214.918h61.513a3.075,3.075,0,0,0,3.074-3.075V174.425a1.907,1.907,0,0,0-.472-1.256h0a1,1,0,0,0-1.384-.111L754.922,192.52l-4.864,4.025a5.565,5.565,0,0,1-7.15-.045l-28.875-24.512a3.831,3.831,0,0,0-1.4,3.445v36.411A3.075,3.075,0,0,0,715.708,214.918Z" transform="translate(-712.594 -170.121)" fill="#8899d2" opacity="0.56"/><path d="M737.711,216.252A.8.8,0,0,0,738.3,216a.747.747,0,0,0-.065-1.08L714.562,194.6a.813.813,0,0,0-1.12.063.745.745,0,0,0,.066,1.079l23.676,20.319A.8.8,0,0,0,737.711,216.252Z" transform="translate(-671.353 -171.071)" fill="#6e6dce"/><path d="M760.276,217.1a.812.812,0,0,0,.535-.2l23.418-20.271a.776.776,0,0,0,.069-1.113.822.822,0,0,0-1.14-.068l-23.418,20.273a.775.775,0,0,0-.069,1.112A.812.812,0,0,0,760.276,217.1Z" transform="translate(-757.946 -171.917)" fill="#6e6dce"/></g><path d="M705.706,233.559h67.125V229.41a6.9,6.9,0,0,0-6.9-6.9H705.706Z" transform="translate(-706.131 -111.204)" fill="#4cd6f2"/></g><g transform="translate(617.651 2359.655)"><g transform="translate(0)"><path d="M638.9,250.807h121.38a8.272,8.272,0,0,0,8.272-8.273v-7.022H629.206v5.6A9.7,9.7,0,0,0,638.9,250.807Z" transform="translate(-629.206 -235.513)" fill="#588aff"/></g><path d="M736.9,250.807h38.111a8.272,8.272,0,0,0,8.272-8.273v-7.022H727.206v5.6A9.7,9.7,0,0,0,736.9,250.807Z" transform="translate(-727.206 -235.513)" fill="#4c65ba"/></g><g transform="translate(546.252 2199.489)"><ellipse cx="11.896" cy="11.896" rx="11.896" ry="11.896" transform="translate(28.065 67.55)" fill="#3e479b"/><path d="M829.529,130.282h0a3.824,3.824,0,0,0,3.824-3.824V50.837a3.823,3.823,0,0,0-3.824-3.824h0a3.823,3.823,0,0,0-3.824,3.824v75.622A3.824,3.824,0,0,0,829.529,130.282Z" transform="translate(-789.569 -47.013)" fill="#3e479b"/><g transform="translate(28.065 69.249)"><ellipse cx="10.196" cy="10.196" rx="10.196" ry="10.196" transform="translate(0 0)" fill="#4c65ba"/></g><path d="M871.068,69.912h0v-18.4H836.206Z" transform="translate(-836.206 -47.689)" fill="#6d6cd4"/><path d="M871.068,69.912h0v-18.4H836.206Z" transform="translate(-836.206 -47.689)" fill="#6f55d9"/><g transform="translate(34.437)"><path d="M831.53,130.282h0a3.824,3.824,0,0,0,3.824-3.824V50.837a3.823,3.823,0,0,0-3.824-3.824h0a3.823,3.823,0,0,0-3.824,3.824v75.622A3.824,3.824,0,0,0,831.53,130.282Z" transform="translate(-827.706 -47.013)" fill="#4c65ba"/></g><path d="M831.116,145.333a6.16,6.16,0,1,0-6.16-6.16A6.167,6.167,0,0,0,831.116,145.333Zm0-11.471a5.311,5.311,0,1,1-5.311,5.311A5.316,5.316,0,0,1,831.116,133.863Z" transform="translate(-792.855 -59.94)" fill="#3e479b"/></g><ellipse cx="30.482" cy="30.482" rx="30.482" ry="30.482" transform="translate(486.862 2263.598) rotate(-102.179)" fill="#4cd6f2"/><g transform="translate(494.326 2211.51)"><g transform="translate(0 0)"><path d="M918.437,102.506a6.756,6.756,0,0,0,6.713-5.976l.055-.474H911.668l.055.474A6.755,6.755,0,0,0,918.437,102.506Zm5.795-5.6a5.91,5.91,0,0,1-11.59,0Z" transform="translate(-902.536 -66.406)" fill="#fff" stroke="#fff" stroke-width="1"/><path d="M904.91,84.586h25.022V73.148a12,12,0,0,0-11.987-11.987H916.9A12,12,0,0,0,904.91,73.148Zm24.172-.85H905.76V73.148A11.15,11.15,0,0,1,916.9,62.011h1.048a11.15,11.15,0,0,1,11.137,11.137Z" transform="translate(-901.52 -61.161)" fill="#fff" stroke="#fff" stroke-width="1"/><path d="M904.73,95.654h24.184a3.813,3.813,0,0,0,3.808-3.808v-.308a3.813,3.813,0,0,0-3.808-3.808H904.73a3.813,3.813,0,0,0-3.809,3.808v.308A3.813,3.813,0,0,0,904.73,95.654Zm24.178-7.075a2.963,2.963,0,0,1,2.965,2.959v.308a2.962,2.962,0,0,1-2.959,2.959H904.73a2.963,2.963,0,0,1-2.96-2.959v-.308a2.963,2.963,0,0,1,2.96-2.959Z" transform="translate(-900.921 -65.155)" fill="#fff" stroke="#fff" stroke-width="1"/><path d="M905.335,84.317h9.522a.425.425,0,1,0,0-.85h-9.522a.425.425,0,1,0,0,.85Z" transform="translate(-886.87 -64.514)" fill="#fff" stroke="#fff" stroke-width="1"/></g><path d="M918.221,84.313a.387.387,0,0,0,.391-.255.392.392,0,0,0,.034-.161.383.383,0,0,0-.034-.171.459.459,0,0,0-.085-.136.962.962,0,0,0-.145-.093.438.438,0,0,0-.459.093.356.356,0,0,0-.094.136.381.381,0,0,0-.034.171.39.39,0,0,0,.034.161.358.358,0,0,0,.094.137.567.567,0,0,0,.136.093A.534.534,0,0,0,918.221,84.313Z" transform="translate(-901.183 -64.514)" fill="#fff" stroke="#fff" stroke-width="1"/></g><g transform="translate(499.615 2202.111)"><path d="M919.719,57.188a.424.424,0,0,0,.425-.425V50.524a.425.425,0,1,0-.85,0v6.239A.424.424,0,0,0,919.719,57.188Z" transform="translate(-909.243 -50.099)" fill="#fff" stroke="#fff" stroke-width="1"/><path d="M931.238,59.958a.431.431,0,0,0,.24-.073.425.425,0,0,0,.112-.59l-1.751-2.581a.425.425,0,0,0-.7.478l1.751,2.581A.424.424,0,0,0,931.238,59.958Z" transform="translate(-929.062 -51.065)" fill="#fff" stroke="#fff" stroke-width="1"/><path d="M907.569,59.958a.424.424,0,0,0,.352-.186l1.752-2.581a.425.425,0,0,0-.7-.478L907.218,59.3a.424.424,0,0,0,.352.663Z" transform="translate(-888.522 -51.065)" fill="#fff" stroke="#fff" stroke-width="1"/></g><path d="M408.729,394.38l2.833-.523-6.605-11.388a58.357,58.357,0,0,1,3.8-23.2c5.6-15,5.9-24.944-.862-23.637-8.774,1.693-11.123,24.231-6.03,41.5l-15.726-27.108c-.273-3.832-.061-11.291,3.734-21.32,5.02-13.271,8.011-28.3-.741-25.9-8.784,2.413-11.217,25.088-5.725,42.5L370.29,322.707a31.943,31.943,0,0,1,2.348-13.485c3.164-8.364,5.049-17.836-.467-16.32-5.551,1.524-7.078,15.892-3.578,26.88l-2.776-4.787c-4.538-15.155-18.369-30.3-24.624-27.673s1.952,11.275,12.01,18.451a51.074,51.074,0,0,1,9.578,9.4l5.395,9.3c-7.777-6.569-18.1-10.406-21.618-6.9-4.054,4.037,5.1,7.1,13.935,8.508a35.11,35.11,0,0,1,10.516,3.277l16.646,28.7c-12.527-11.953-31.146-19.532-37.174-13.53-6.433,6.4,8.1,11.269,22.111,13.5a53.277,53.277,0,0,1,18.7,6.306l12.963,22.346c-12.414-13.3-33.12-22.312-39.541-15.919s8.1,11.27,22.111,13.5c10.461,1.665,17.008,5.118,20.241,7.264Z" transform="translate(162.234 2164.887)" fill="#fff"/></g></svg>