<svg xmlns="http://www.w3.org/2000/svg" xmlns:xlink="http://www.w3.org/1999/xlink" width="1088" height="206" viewBox="0 0 1088 206" preserveAspectRatio="none"><defs><clipPath id="a"><rect width="1088" height="206" rx="50" fill="#fcbc14"/></clipPath></defs><path d="M50,0h988a50,50,0,0,1,50,50V156a50,50,0,0,1-50,50H50A50,50,0,0,1,0,156V50A50,50,0,0,1,50,0Z" fill="#65d4f1"/><g clip-path="url(#a)"><g transform="translate(762.733 -19)" opacity="0.379"><path d="M-1.266,2.535A1.266,1.266,0,0,1-2.532,1.268,1.267,1.267,0,0,1-1.266,0,1.267,1.267,0,0,1,0,1.268,1.266,1.266,0,0,1-1.266,2.535" transform="translate(312.492)" fill="#937bff"/><path d="M-1.266,2.535A1.266,1.266,0,0,1-2.532,1.268,1.267,1.267,0,0,1-1.266,0,1.267,1.267,0,0,1,0,1.268,1.266,1.266,0,0,1-1.266,2.535" transform="translate(286.662)" fill="#937bff"/><path d="M-1.266,2.535A1.266,1.266,0,0,1-2.532,1.268,1.267,1.267,0,0,1-1.266,0,1.267,1.267,0,0,1,0,1.268,1.266,1.266,0,0,1-1.266,2.535" transform="translate(261.789)" fill="#937bff"/><path d="M-1.266,2.535A1.267,1.267,0,0,1-2.532,1.268,1.268,1.268,0,0,1-1.266,0,1.267,1.267,0,0,1,0,1.268,1.266,1.266,0,0,1-1.266,2.535" transform="translate(236.916)" fill="#937bff"/><path d="M-1.266,2.535A1.266,1.266,0,0,1-2.532,1.268,1.267,1.267,0,0,1-1.266,0,1.267,1.267,0,0,1,0,1.268,1.266,1.266,0,0,1-1.266,2.535" transform="translate(324.929 21.973)" fill="#937bff"/><path d="M-1.266,2.535A1.267,1.267,0,0,1-2.532,1.268,1.268,1.268,0,0,1-1.266,0,1.267,1.267,0,0,1,0,1.268,1.266,1.266,0,0,1-1.266,2.535" transform="translate(299.099 21.973)" fill="#937bff"/><path d="M-1.266,2.535A1.266,1.266,0,0,1-2.532,1.268,1.267,1.267,0,0,1-1.266,0,1.268,1.268,0,0,1,0,1.268,1.267,1.267,0,0,1-1.266,2.535" transform="translate(274.226 21.973)" fill="#937bff"/><path d="M-1.266,2.535A1.266,1.266,0,0,1-2.532,1.268,1.267,1.267,0,0,1-1.266,0,1.267,1.267,0,0,1,0,1.268,1.266,1.266,0,0,1-1.266,2.535" transform="translate(247.439 21.973)" fill="#937bff"/><path d="M-1.266,2.535A1.266,1.266,0,0,1-2.532,1.268,1.267,1.267,0,0,1-1.266,0,1.267,1.267,0,0,1,0,1.268,1.266,1.266,0,0,1-1.266,2.535" transform="translate(227.349 21.973)" fill="#937bff"/><path d="M-1.266,2.535A1.267,1.267,0,0,1-2.532,1.268,1.267,1.267,0,0,1-1.266,0,1.267,1.267,0,0,1,0,1.268,1.267,1.267,0,0,1-1.266,2.535" transform="translate(312.492 45.636)" fill="#937bff"/><path d="M-1.266,2.535A1.267,1.267,0,0,1-2.532,1.268,1.267,1.267,0,0,1-1.266,0,1.267,1.267,0,0,1,0,1.268,1.267,1.267,0,0,1-1.266,2.535" transform="translate(286.662 45.636)" fill="#937bff"/><path d="M-1.266,2.535A1.268,1.268,0,0,1-2.532,1.268,1.267,1.267,0,0,1-1.266,0,1.267,1.267,0,0,1,0,1.268,1.267,1.267,0,0,1-1.266,2.535" transform="translate(261.789 45.636)" fill="#937bff"/><path d="M-1.266,2.535A1.268,1.268,0,0,1-2.532,1.268,1.267,1.267,0,0,1-1.266,0,1.267,1.267,0,0,1,0,1.268,1.267,1.267,0,0,1-1.266,2.535" transform="translate(236.916 45.636)" fill="#937bff"/><path d="M-1.266,2.535A1.268,1.268,0,0,1-2.532,1.268,1.267,1.267,0,0,1-1.266,0,1.267,1.267,0,0,1,0,1.268,1.267,1.267,0,0,1-1.266,2.535" transform="translate(324.929 67.609)" fill="#937bff"/><path d="M-1.266,2.535A1.268,1.268,0,0,1-2.532,1.268,1.267,1.267,0,0,1-1.266,0,1.267,1.267,0,0,1,0,1.268,1.267,1.267,0,0,1-1.266,2.535" transform="translate(299.099 67.609)" fill="#937bff"/><path d="M-1.266,2.535A1.267,1.267,0,0,1-2.532,1.268,1.267,1.267,0,0,1-1.266,0,1.267,1.267,0,0,1,0,1.268,1.268,1.268,0,0,1-1.266,2.535" transform="translate(274.226 67.609)" fill="#937bff"/><path d="M-1.266,2.535A1.267,1.267,0,0,1-2.532,1.268,1.267,1.267,0,0,1-1.266,0,1.267,1.267,0,0,1,0,1.268,1.267,1.267,0,0,1-1.266,2.535" transform="translate(247.439 67.609)" fill="#937bff"/><path d="M-1.266,2.535A1.267,1.267,0,0,1-2.532,1.268,1.267,1.267,0,0,1-1.266,0,1.267,1.267,0,0,1,0,1.268,1.267,1.267,0,0,1-1.266,2.535" transform="translate(227.349 67.609)" fill="#937bff"/><path d="M-1.266,2.535A1.267,1.267,0,0,1-2.532,1.268,1.267,1.267,0,0,1-1.266,0,1.267,1.267,0,0,1,0,1.268,1.267,1.267,0,0,1-1.266,2.535" transform="translate(312.492 92.118)" fill="#937bff"/><path d="M-1.266,2.535A1.267,1.267,0,0,1-2.532,1.268,1.267,1.267,0,0,1-1.266,0,1.267,1.267,0,0,1,0,1.268,1.267,1.267,0,0,1-1.266,2.535" transform="translate(286.662 92.118)" fill="#937bff"/><path d="M-1.266,2.535A1.268,1.268,0,0,1-2.532,1.268,1.267,1.267,0,0,1-1.266,0,1.267,1.267,0,0,1,0,1.268,1.267,1.267,0,0,1-1.266,2.535" transform="translate(261.789 92.118)" fill="#937bff"/><path d="M-1.266,2.535A1.268,1.268,0,0,1-2.532,1.268,1.267,1.267,0,0,1-1.266,0,1.267,1.267,0,0,1,0,1.268,1.267,1.267,0,0,1-1.266,2.535" transform="translate(236.916 92.118)" fill="#937bff"/><path d="M-1.266,2.535A1.266,1.266,0,0,1-2.532,1.268,1.267,1.267,0,0,1-1.266,0,1.267,1.267,0,0,1,0,1.268,1.266,1.266,0,0,1-1.266,2.535" transform="translate(324.929 113.246)" fill="#937bff"/><path d="M-1.266,2.535A1.267,1.267,0,0,1-2.532,1.268,1.268,1.268,0,0,1-1.266,0,1.267,1.267,0,0,1,0,1.268,1.266,1.266,0,0,1-1.266,2.535" transform="translate(299.099 113.246)" fill="#937bff"/><path d="M-1.266,2.535A1.266,1.266,0,0,1-2.532,1.268,1.267,1.267,0,0,1-1.266,0,1.268,1.268,0,0,1,0,1.268,1.267,1.267,0,0,1-1.266,2.535" transform="translate(274.226 113.246)" fill="#937bff"/><path d="M-1.266,2.535A1.266,1.266,0,0,1-2.532,1.268,1.267,1.267,0,0,1-1.266,0,1.267,1.267,0,0,1,0,1.268,1.266,1.266,0,0,1-1.266,2.535" transform="translate(247.439 113.246)" fill="#937bff"/><path d="M-1.266,2.535A1.266,1.266,0,0,1-2.532,1.268,1.267,1.267,0,0,1-1.266,0,1.267,1.267,0,0,1,0,1.268,1.266,1.266,0,0,1-1.266,2.535" transform="translate(227.349 113.246)" fill="#937bff"/><path d="M-1.266,2.535A1.266,1.266,0,0,1-2.532,1.268,1.267,1.267,0,0,1-1.266,0,1.267,1.267,0,0,1,0,1.268,1.266,1.266,0,0,1-1.266,2.535" transform="translate(312.492 136.064)" fill="#937bff"/><path d="M-1.266,2.535A1.266,1.266,0,0,1-2.532,1.268,1.267,1.267,0,0,1-1.266,0,1.267,1.267,0,0,1,0,1.268,1.266,1.266,0,0,1-1.266,2.535" transform="translate(286.662 136.064)" fill="#937bff"/><path d="M-1.266,2.535A1.266,1.266,0,0,1-2.532,1.268,1.267,1.267,0,0,1-1.266,0,1.267,1.267,0,0,1,0,1.268,1.266,1.266,0,0,1-1.266,2.535" transform="translate(261.789 136.064)" fill="#937bff"/><path d="M-1.266,2.535A1.267,1.267,0,0,1-2.532,1.268,1.268,1.268,0,0,1-1.266,0,1.267,1.267,0,0,1,0,1.268,1.266,1.266,0,0,1-1.266,2.535" transform="translate(236.916 136.064)" fill="#937bff"/><path d="M-1.266,2.535A1.268,1.268,0,0,1-2.532,1.268,1.267,1.267,0,0,1-1.266,0,1.267,1.267,0,0,1,0,1.268,1.267,1.267,0,0,1-1.266,2.535" transform="translate(324.929 158.037)" fill="#937bff"/><path d="M-1.266,2.535A1.268,1.268,0,0,1-2.532,1.268,1.267,1.267,0,0,1-1.266,0,1.267,1.267,0,0,1,0,1.268,1.267,1.267,0,0,1-1.266,2.535" transform="translate(299.099 158.037)" fill="#937bff"/><path d="M-1.266,2.535A1.267,1.267,0,0,1-2.532,1.268,1.267,1.267,0,0,1-1.266,0,1.267,1.267,0,0,1,0,1.268,1.268,1.268,0,0,1-1.266,2.535" transform="translate(274.226 158.037)" fill="#937bff"/><path d="M-1.266,2.535A1.267,1.267,0,0,1-2.532,1.268,1.267,1.267,0,0,1-1.266,0,1.267,1.267,0,0,1,0,1.268,1.267,1.267,0,0,1-1.266,2.535" transform="translate(247.439 158.037)" fill="#937bff"/><path d="M-1.266,2.535A1.267,1.267,0,0,1-2.532,1.268,1.267,1.267,0,0,1-1.266,0,1.267,1.267,0,0,1,0,1.268,1.267,1.267,0,0,1-1.266,2.535" transform="translate(227.349 158.882)" fill="#937bff"/><path d="M-1.266,2.535A1.267,1.267,0,0,1-2.532,1.268,1.267,1.267,0,0,1-1.266,0,1.267,1.267,0,0,1,0,1.268,1.267,1.267,0,0,1-1.266,2.535" transform="translate(312.492 181.7)" fill="#937bff"/><path d="M-1.266,2.535A1.267,1.267,0,0,1-2.532,1.268,1.267,1.267,0,0,1-1.266,0,1.267,1.267,0,0,1,0,1.268,1.267,1.267,0,0,1-1.266,2.535" transform="translate(286.662 181.7)" fill="#937bff"/><path d="M-1.266,2.535A1.268,1.268,0,0,1-2.532,1.268,1.267,1.267,0,0,1-1.266,0,1.267,1.267,0,0,1,0,1.268,1.267,1.267,0,0,1-1.266,2.535" transform="translate(261.789 181.7)" fill="#937bff"/><path d="M-1.266,2.535A1.268,1.268,0,0,1-2.532,1.268,1.267,1.267,0,0,1-1.266,0,1.267,1.267,0,0,1,0,1.268,1.267,1.267,0,0,1-1.266,2.535" transform="translate(236.916 181.7)" fill="#937bff"/><path d="M-1.266,2.535A1.268,1.268,0,0,1-2.532,1.268,1.267,1.267,0,0,1-1.266,0,1.267,1.267,0,0,1,0,1.268,1.267,1.267,0,0,1-1.266,2.535" transform="translate(324.929 203.673)" fill="#937bff"/><path d="M-1.266,2.535A1.268,1.268,0,0,1-2.532,1.268,1.267,1.267,0,0,1-1.266,0,1.267,1.267,0,0,1,0,1.268,1.267,1.267,0,0,1-1.266,2.535" transform="translate(299.099 203.673)" fill="#937bff"/><path d="M-1.266,2.535A1.267,1.267,0,0,1-2.532,1.268,1.267,1.267,0,0,1-1.266,0,1.267,1.267,0,0,1,0,1.268,1.268,1.268,0,0,1-1.266,2.535" transform="translate(274.226 203.673)" fill="#937bff"/><path d="M-1.266,2.535A1.267,1.267,0,0,1-2.532,1.268,1.267,1.267,0,0,1-1.266,0,1.267,1.267,0,0,1,0,1.268,1.267,1.267,0,0,1-1.266,2.535" transform="translate(247.439 203.673)" fill="#937bff"/><path d="M-1.266,2.535A1.267,1.267,0,0,1-2.532,1.268,1.267,1.267,0,0,1-1.266,0,1.267,1.267,0,0,1,0,1.268,1.267,1.267,0,0,1-1.266,2.535" transform="translate(227.349 203.673)" fill="#937bff"/><path d="M-1.266,2.535A1.266,1.266,0,0,1-2.532,1.268,1.267,1.267,0,0,1-1.266,0,1.267,1.267,0,0,1,0,1.268,1.266,1.266,0,0,1-1.266,2.535" transform="translate(312.492 225.646)" fill="#937bff"/><path d="M-1.266,2.535A1.266,1.266,0,0,1-2.532,1.268,1.267,1.267,0,0,1-1.266,0,1.267,1.267,0,0,1,0,1.268,1.266,1.266,0,0,1-1.266,2.535" transform="translate(286.662 225.646)" fill="#937bff"/><path d="M-1.266,2.535A1.266,1.266,0,0,1-2.532,1.268,1.267,1.267,0,0,1-1.266,0,1.267,1.267,0,0,1,0,1.268,1.266,1.266,0,0,1-1.266,2.535" transform="translate(261.789 225.646)" fill="#937bff"/><path d="M-1.266,2.535A1.267,1.267,0,0,1-2.532,1.268,1.268,1.268,0,0,1-1.266,0,1.267,1.267,0,0,1,0,1.268,1.266,1.266,0,0,1-1.266,2.535" transform="translate(227.349 225.646)" fill="#937bff"/><path d="M-1.266,2.535A1.266,1.266,0,0,1-2.532,1.268,1.267,1.267,0,0,1-1.266,0,1.267,1.267,0,0,1,0,1.268,1.266,1.266,0,0,1-1.266,2.535" transform="translate(324.929 248.465)" fill="#937bff"/><path d="M-1.266,2.535A1.267,1.267,0,0,1-2.532,1.268,1.268,1.268,0,0,1-1.266,0,1.267,1.267,0,0,1,0,1.268,1.266,1.266,0,0,1-1.266,2.535" transform="translate(299.099 248.465)" fill="#937bff"/><path d="M-1.266,2.535A1.266,1.266,0,0,1-2.532,1.268,1.267,1.267,0,0,1-1.266,0,1.268,1.268,0,0,1,0,1.268,1.267,1.267,0,0,1-1.266,2.535" transform="translate(274.226 248.465)" fill="#937bff"/><path d="M-1.266,2.535A1.266,1.266,0,0,1-2.532,1.268,1.267,1.267,0,0,1-1.266,0,1.267,1.267,0,0,1,0,1.268,1.266,1.266,0,0,1-1.266,2.535" transform="translate(247.439 248.465)" fill="#937bff"/><path d="M-1.266,2.535A1.266,1.266,0,0,1-2.532,1.268,1.267,1.267,0,0,1-1.266,0,1.267,1.267,0,0,1,0,1.268,1.266,1.266,0,0,1-1.266,2.535" transform="translate(227.349 248.465)" fill="#937bff"/><path d="M-1.266,2.535A1.266,1.266,0,0,1-2.532,1.268,1.267,1.267,0,0,1-1.266,0,1.267,1.267,0,0,1,0,1.268,1.266,1.266,0,0,1-1.266,2.535" transform="translate(200.562)" fill="#937bff"/><path d="M-1.266,2.535A1.266,1.266,0,0,1-2.532,1.268,1.267,1.267,0,0,1-1.266,0,1.267,1.267,0,0,1,0,1.268,1.266,1.266,0,0,1-1.266,2.535" transform="translate(174.732)" fill="#937bff"/><path d="M-1.266,2.535A1.266,1.266,0,0,1-2.532,1.268,1.267,1.267,0,0,1-1.266,0,1.267,1.267,0,0,1,0,1.268,1.266,1.266,0,0,1-1.266,2.535" transform="translate(149.859)" fill="#937bff"/><path d="M-1.266,2.535A1.267,1.267,0,0,1-2.532,1.268,1.268,1.268,0,0,1-1.266,0,1.267,1.267,0,0,1,0,1.268,1.266,1.266,0,0,1-1.266,2.535" transform="translate(124.986)" fill="#937bff"/><path d="M-1.266,2.535A1.266,1.266,0,0,1-2.532,1.268,1.267,1.267,0,0,1-1.266,0,1.267,1.267,0,0,1,0,1.268,1.266,1.266,0,0,1-1.266,2.535" transform="translate(212.999 21.973)" fill="#937bff"/><path d="M-1.266,2.535A1.267,1.267,0,0,1-2.532,1.268,1.268,1.268,0,0,1-1.266,0,1.267,1.267,0,0,1,0,1.268,1.266,1.266,0,0,1-1.266,2.535" transform="translate(187.169 21.973)" fill="#937bff"/><path d="M-1.266,2.535A1.266,1.266,0,0,1-2.532,1.268,1.267,1.267,0,0,1-1.266,0,1.268,1.268,0,0,1,0,1.268,1.267,1.267,0,0,1-1.266,2.535" transform="translate(161.339 21.973)" fill="#937bff"/><path d="M-1.266,2.535A1.266,1.266,0,0,1-2.532,1.268,1.267,1.267,0,0,1-1.266,0,1.267,1.267,0,0,1,0,1.268,1.266,1.266,0,0,1-1.266,2.535" transform="translate(135.509 21.973)" fill="#937bff"/><path d="M-1.266,2.535A1.266,1.266,0,0,1-2.532,1.268,1.267,1.267,0,0,1-1.266,0,1.267,1.267,0,0,1,0,1.268,1.266,1.266,0,0,1-1.266,2.535" transform="translate(114.462 21.973)" fill="#937bff"/><path d="M-1.266,2.535A1.267,1.267,0,0,1-2.532,1.268,1.267,1.267,0,0,1-1.266,0,1.267,1.267,0,0,1,0,1.268,1.267,1.267,0,0,1-1.266,2.535" transform="translate(200.562 45.636)" fill="#937bff"/><path d="M-1.266,2.535A1.267,1.267,0,0,1-2.532,1.268,1.267,1.267,0,0,1-1.266,0,1.267,1.267,0,0,1,0,1.268,1.267,1.267,0,0,1-1.266,2.535" transform="translate(174.732 45.636)" fill="#937bff"/><path d="M-1.266,2.535A1.268,1.268,0,0,1-2.532,1.268,1.267,1.267,0,0,1-1.266,0,1.267,1.267,0,0,1,0,1.268,1.267,1.267,0,0,1-1.266,2.535" transform="translate(149.859 45.636)" fill="#937bff"/><path d="M-1.266,2.535A1.268,1.268,0,0,1-2.532,1.268,1.267,1.267,0,0,1-1.266,0,1.267,1.267,0,0,1,0,1.268,1.267,1.267,0,0,1-1.266,2.535" transform="translate(124.986 45.636)" fill="#937bff"/><path d="M-1.266,2.535A1.268,1.268,0,0,1-2.532,1.268,1.267,1.267,0,0,1-1.266,0,1.267,1.267,0,0,1,0,1.268,1.267,1.267,0,0,1-1.266,2.535" transform="translate(212.999 67.609)" fill="#937bff"/><path d="M-1.266,2.535A1.268,1.268,0,0,1-2.532,1.268,1.267,1.267,0,0,1-1.266,0,1.267,1.267,0,0,1,0,1.268,1.267,1.267,0,0,1-1.266,2.535" transform="translate(187.169 67.609)" fill="#937bff"/><path d="M-1.266,2.535A1.267,1.267,0,0,1-2.532,1.268,1.267,1.267,0,0,1-1.266,0,1.267,1.267,0,0,1,0,1.268,1.268,1.268,0,0,1-1.266,2.535" transform="translate(161.339 67.609)" fill="#937bff"/><path d="M-1.266,2.535A1.267,1.267,0,0,1-2.532,1.268,1.267,1.267,0,0,1-1.266,0,1.267,1.267,0,0,1,0,1.268,1.267,1.267,0,0,1-1.266,2.535" transform="translate(135.509 67.609)" fill="#937bff"/><path d="M-1.266,2.535A1.267,1.267,0,0,1-2.532,1.268,1.267,1.267,0,0,1-1.266,0,1.267,1.267,0,0,1,0,1.268,1.267,1.267,0,0,1-1.266,2.535" transform="translate(114.462 67.609)" fill="#937bff"/><path d="M-1.266,2.535A1.267,1.267,0,0,1-2.532,1.268,1.267,1.267,0,0,1-1.266,0,1.267,1.267,0,0,1,0,1.268,1.267,1.267,0,0,1-1.266,2.535" transform="translate(200.562 92.118)" fill="#937bff"/><path d="M-1.266,2.535A1.267,1.267,0,0,1-2.532,1.268,1.267,1.267,0,0,1-1.266,0,1.267,1.267,0,0,1,0,1.268,1.267,1.267,0,0,1-1.266,2.535" transform="translate(174.732 92.118)" fill="#937bff"/><path d="M-1.266,2.535A1.268,1.268,0,0,1-2.532,1.268,1.267,1.267,0,0,1-1.266,0,1.267,1.267,0,0,1,0,1.268,1.267,1.267,0,0,1-1.266,2.535" transform="translate(149.859 92.118)" fill="#937bff"/><path d="M-1.266,2.535A1.268,1.268,0,0,1-2.532,1.268,1.267,1.267,0,0,1-1.266,0,1.267,1.267,0,0,1,0,1.268,1.267,1.267,0,0,1-1.266,2.535" transform="translate(124.986 92.118)" fill="#937bff"/><path d="M-1.266,2.535A1.266,1.266,0,0,1-2.532,1.268,1.267,1.267,0,0,1-1.266,0,1.267,1.267,0,0,1,0,1.268,1.266,1.266,0,0,1-1.266,2.535" transform="translate(212.999 113.246)" fill="#937bff"/><path d="M-1.266,2.535A1.267,1.267,0,0,1-2.532,1.268,1.268,1.268,0,0,1-1.266,0,1.267,1.267,0,0,1,0,1.268,1.266,1.266,0,0,1-1.266,2.535" transform="translate(187.169 113.246)" fill="#937bff"/><path d="M-1.266,2.535A1.266,1.266,0,0,1-2.532,1.268,1.267,1.267,0,0,1-1.266,0,1.268,1.268,0,0,1,0,1.268,1.267,1.267,0,0,1-1.266,2.535" transform="translate(161.339 113.246)" fill="#937bff"/><path d="M-1.266,2.535A1.266,1.266,0,0,1-2.532,1.268,1.267,1.267,0,0,1-1.266,0,1.267,1.267,0,0,1,0,1.268,1.266,1.266,0,0,1-1.266,2.535" transform="translate(135.509 113.246)" fill="#937bff"/><path d="M-1.266,2.535A1.266,1.266,0,0,1-2.532,1.268,1.267,1.267,0,0,1-1.266,0,1.267,1.267,0,0,1,0,1.268,1.266,1.266,0,0,1-1.266,2.535" transform="translate(114.462 113.246)" fill="#937bff"/><path d="M-1.266,2.535A1.266,1.266,0,0,1-2.532,1.268,1.267,1.267,0,0,1-1.266,0,1.267,1.267,0,0,1,0,1.268,1.266,1.266,0,0,1-1.266,2.535" transform="translate(200.562 136.064)" fill="#937bff"/><path d="M-1.266,2.535A1.266,1.266,0,0,1-2.532,1.268,1.267,1.267,0,0,1-1.266,0,1.267,1.267,0,0,1,0,1.268,1.266,1.266,0,0,1-1.266,2.535" transform="translate(174.732 136.064)" fill="#937bff"/><path d="M-1.266,2.535A1.266,1.266,0,0,1-2.532,1.268,1.267,1.267,0,0,1-1.266,0,1.267,1.267,0,0,1,0,1.268,1.266,1.266,0,0,1-1.266,2.535" transform="translate(149.859 136.064)" fill="#937bff"/><path d="M-1.266,2.535A1.267,1.267,0,0,1-2.532,1.268,1.268,1.268,0,0,1-1.266,0,1.267,1.267,0,0,1,0,1.268,1.266,1.266,0,0,1-1.266,2.535" transform="translate(124.986 136.064)" fill="#937bff"/><path d="M-1.266,2.535A1.268,1.268,0,0,1-2.532,1.268,1.267,1.267,0,0,1-1.266,0,1.267,1.267,0,0,1,0,1.268,1.267,1.267,0,0,1-1.266,2.535" transform="translate(212.999 158.037)" fill="#937bff"/><path d="M-1.266,2.535A1.268,1.268,0,0,1-2.532,1.268,1.267,1.267,0,0,1-1.266,0,1.267,1.267,0,0,1,0,1.268,1.267,1.267,0,0,1-1.266,2.535" transform="translate(187.169 158.037)" fill="#937bff"/><path d="M-1.266,2.535A1.267,1.267,0,0,1-2.532,1.268,1.267,1.267,0,0,1-1.266,0,1.267,1.267,0,0,1,0,1.268,1.268,1.268,0,0,1-1.266,2.535" transform="translate(161.339 158.037)" fill="#937bff"/><path d="M-1.266,2.535A1.267,1.267,0,0,1-2.532,1.268,1.267,1.267,0,0,1-1.266,0,1.267,1.267,0,0,1,0,1.268,1.267,1.267,0,0,1-1.266,2.535" transform="translate(135.509 158.037)" fill="#937bff"/><path d="M-1.266,2.535A1.267,1.267,0,0,1-2.532,1.268,1.267,1.267,0,0,1-1.266,0,1.267,1.267,0,0,1,0,1.268,1.267,1.267,0,0,1-1.266,2.535" transform="translate(114.462 158.882)" fill="#937bff"/><path d="M-1.266,2.535A1.267,1.267,0,0,1-2.532,1.268,1.267,1.267,0,0,1-1.266,0,1.267,1.267,0,0,1,0,1.268,1.267,1.267,0,0,1-1.266,2.535" transform="translate(200.562 181.7)" fill="#937bff"/><path d="M-1.266,2.535A1.267,1.267,0,0,1-2.532,1.268,1.267,1.267,0,0,1-1.266,0,1.267,1.267,0,0,1,0,1.268,1.267,1.267,0,0,1-1.266,2.535" transform="translate(174.732 181.7)" fill="#937bff"/><path d="M-1.266,2.535A1.268,1.268,0,0,1-2.532,1.268,1.267,1.267,0,0,1-1.266,0,1.267,1.267,0,0,1,0,1.268,1.267,1.267,0,0,1-1.266,2.535" transform="translate(149.859 181.7)" fill="#937bff"/><path d="M-1.266,2.535A1.268,1.268,0,0,1-2.532,1.268,1.267,1.267,0,0,1-1.266,0,1.267,1.267,0,0,1,0,1.268,1.267,1.267,0,0,1-1.266,2.535" transform="translate(124.986 181.7)" fill="#937bff"/><path d="M-1.266,2.535A1.268,1.268,0,0,1-2.532,1.268,1.267,1.267,0,0,1-1.266,0,1.267,1.267,0,0,1,0,1.268,1.267,1.267,0,0,1-1.266,2.535" transform="translate(212.999 203.673)" fill="#937bff"/><path d="M-1.266,2.535A1.268,1.268,0,0,1-2.532,1.268,1.267,1.267,0,0,1-1.266,0,1.267,1.267,0,0,1,0,1.268,1.267,1.267,0,0,1-1.266,2.535" transform="translate(187.169 203.673)" fill="#937bff"/><path d="M-1.266,2.535A1.267,1.267,0,0,1-2.532,1.268,1.267,1.267,0,0,1-1.266,0,1.267,1.267,0,0,1,0,1.268,1.268,1.268,0,0,1-1.266,2.535" transform="translate(161.339 203.673)" fill="#937bff"/><path d="M-1.266,2.535A1.267,1.267,0,0,1-2.532,1.268,1.267,1.267,0,0,1-1.266,0,1.267,1.267,0,0,1,0,1.268,1.267,1.267,0,0,1-1.266,2.535" transform="translate(135.509 203.673)" fill="#937bff"/><path d="M-1.266,2.535A1.267,1.267,0,0,1-2.532,1.268,1.267,1.267,0,0,1-1.266,0,1.267,1.267,0,0,1,0,1.268,1.267,1.267,0,0,1-1.266,2.535" transform="translate(114.462 203.673)" fill="#937bff"/><path d="M-1.266,2.535A1.266,1.266,0,0,1-2.532,1.268,1.267,1.267,0,0,1-1.266,0,1.267,1.267,0,0,1,0,1.268,1.266,1.266,0,0,1-1.266,2.535" transform="translate(200.562 225.646)" fill="#937bff"/><path d="M-1.266,2.535A1.266,1.266,0,0,1-2.532,1.268,1.267,1.267,0,0,1-1.266,0,1.267,1.267,0,0,1,0,1.268,1.266,1.266,0,0,1-1.266,2.535" transform="translate(174.732 225.646)" fill="#937bff"/><path d="M-1.266,2.535A1.266,1.266,0,0,1-2.532,1.268,1.267,1.267,0,0,1-1.266,0,1.267,1.267,0,0,1,0,1.268,1.266,1.266,0,0,1-1.266,2.535" transform="translate(149.859 225.646)" fill="#937bff"/><path d="M-1.266,2.535A1.267,1.267,0,0,1-2.532,1.268,1.268,1.268,0,0,1-1.266,0,1.267,1.267,0,0,1,0,1.268,1.266,1.266,0,0,1-1.266,2.535" transform="translate(114.462 225.646)" fill="#937bff"/><path d="M-1.266,2.535A1.266,1.266,0,0,1-2.532,1.268,1.267,1.267,0,0,1-1.266,0,1.267,1.267,0,0,1,0,1.268,1.266,1.266,0,0,1-1.266,2.535" transform="translate(212.999 248.465)" fill="#937bff"/><path d="M-1.266,2.535A1.267,1.267,0,0,1-2.532,1.268,1.268,1.268,0,0,1-1.266,0,1.267,1.267,0,0,1,0,1.268,1.266,1.266,0,0,1-1.266,2.535" transform="translate(187.169 248.465)" fill="#937bff"/><path d="M-1.266,2.535A1.266,1.266,0,0,1-2.532,1.268,1.267,1.267,0,0,1-1.266,0,1.268,1.268,0,0,1,0,1.268,1.267,1.267,0,0,1-1.266,2.535" transform="translate(161.339 248.465)" fill="#937bff"/><path d="M-1.266,2.535A1.266,1.266,0,0,1-2.532,1.268,1.267,1.267,0,0,1-1.266,0,1.267,1.267,0,0,1,0,1.268,1.266,1.266,0,0,1-1.266,2.535" transform="translate(135.509 248.465)" fill="#937bff"/><path d="M-1.266,2.535A1.266,1.266,0,0,1-2.532,1.268,1.267,1.267,0,0,1-1.266,0,1.267,1.267,0,0,1,0,1.268,1.266,1.266,0,0,1-1.266,2.535" transform="translate(114.462 248.465)" fill="#937bff"/><path d="M-1.266,2.535A1.266,1.266,0,0,1-2.532,1.268,1.267,1.267,0,0,1-1.266,0,1.267,1.267,0,0,1,0,1.268,1.266,1.266,0,0,1-1.266,2.535" transform="translate(88.632)" fill="#937bff"/><path d="M-1.266,2.535A1.266,1.266,0,0,1-2.532,1.268,1.267,1.267,0,0,1-1.266,0,1.267,1.267,0,0,1,0,1.268,1.266,1.266,0,0,1-1.266,2.535" transform="translate(62.802)" fill="#937bff"/><path d="M-1.266,2.535A1.266,1.266,0,0,1-2.532,1.268,1.267,1.267,0,0,1-1.266,0,1.267,1.267,0,0,1,0,1.268,1.266,1.266,0,0,1-1.266,2.535" transform="translate(36.972)" fill="#937bff"/><path d="M-1.266,2.535A1.267,1.267,0,0,1-2.532,1.268,1.268,1.268,0,0,1-1.266,0,1.267,1.267,0,0,1,0,1.268,1.266,1.266,0,0,1-1.266,2.535" transform="translate(13.056)" fill="#937bff"/><path d="M-1.266,2.535A1.266,1.266,0,0,1-2.532,1.268,1.267,1.267,0,0,1-1.266,0,1.267,1.267,0,0,1,0,1.268,1.266,1.266,0,0,1-1.266,2.535" transform="translate(100.112 21.973)" fill="#937bff"/><path d="M-1.266,2.535A1.267,1.267,0,0,1-2.532,1.268,1.268,1.268,0,0,1-1.266,0,1.267,1.267,0,0,1,0,1.268,1.266,1.266,0,0,1-1.266,2.535" transform="translate(75.239 21.973)" fill="#937bff"/><path d="M-1.266,2.535A1.266,1.266,0,0,1-2.532,1.268,1.267,1.267,0,0,1-1.266,0,1.268,1.268,0,0,1,0,1.268,1.267,1.267,0,0,1-1.266,2.535" transform="translate(49.409 21.973)" fill="#937bff"/><path d="M-1.266,2.535A1.266,1.266,0,0,1-2.532,1.268,1.267,1.267,0,0,1-1.266,0,1.267,1.267,0,0,1,0,1.268,1.266,1.266,0,0,1-1.266,2.535" transform="translate(22.622 21.973)" fill="#937bff"/><path d="M-1.266,2.535A1.266,1.266,0,0,1-2.532,1.268,1.267,1.267,0,0,1-1.266,0,1.267,1.267,0,0,1,0,1.268,1.266,1.266,0,0,1-1.266,2.535" transform="translate(2.532 21.973)" fill="#937bff"/><path d="M-1.266,2.535A1.267,1.267,0,0,1-2.532,1.268,1.267,1.267,0,0,1-1.266,0,1.267,1.267,0,0,1,0,1.268,1.267,1.267,0,0,1-1.266,2.535" transform="translate(88.632 45.636)" fill="#937bff"/><path d="M-1.266,2.535A1.267,1.267,0,0,1-2.532,1.268,1.267,1.267,0,0,1-1.266,0,1.267,1.267,0,0,1,0,1.268,1.267,1.267,0,0,1-1.266,2.535" transform="translate(62.802 45.636)" fill="#937bff"/><path d="M-1.266,2.535A1.268,1.268,0,0,1-2.532,1.268,1.267,1.267,0,0,1-1.266,0,1.267,1.267,0,0,1,0,1.268,1.267,1.267,0,0,1-1.266,2.535" transform="translate(36.972 45.636)" fill="#937bff"/><path d="M-1.266,2.535A1.268,1.268,0,0,1-2.532,1.268,1.267,1.267,0,0,1-1.266,0,1.267,1.267,0,0,1,0,1.268,1.267,1.267,0,0,1-1.266,2.535" transform="translate(13.056 45.636)" fill="#937bff"/><path d="M-1.266,2.535A1.268,1.268,0,0,1-2.532,1.268,1.267,1.267,0,0,1-1.266,0,1.267,1.267,0,0,1,0,1.268,1.267,1.267,0,0,1-1.266,2.535" transform="translate(100.112 67.609)" fill="#937bff"/><path d="M-1.266,2.535A1.268,1.268,0,0,1-2.532,1.268,1.267,1.267,0,0,1-1.266,0,1.267,1.267,0,0,1,0,1.268,1.267,1.267,0,0,1-1.266,2.535" transform="translate(75.239 67.609)" fill="#937bff"/><path d="M-1.266,2.535A1.267,1.267,0,0,1-2.532,1.268,1.267,1.267,0,0,1-1.266,0,1.267,1.267,0,0,1,0,1.268,1.268,1.268,0,0,1-1.266,2.535" transform="translate(49.409 67.609)" fill="#937bff"/><path d="M-1.266,2.535A1.267,1.267,0,0,1-2.532,1.268,1.267,1.267,0,0,1-1.266,0,1.267,1.267,0,0,1,0,1.268,1.267,1.267,0,0,1-1.266,2.535" transform="translate(22.622 67.609)" fill="#937bff"/><path d="M-1.266,2.535A1.267,1.267,0,0,1-2.532,1.268,1.267,1.267,0,0,1-1.266,0,1.267,1.267,0,0,1,0,1.268,1.267,1.267,0,0,1-1.266,2.535" transform="translate(2.532 67.609)" fill="#937bff"/><path d="M-1.266,2.535A1.267,1.267,0,0,1-2.532,1.268,1.267,1.267,0,0,1-1.266,0,1.267,1.267,0,0,1,0,1.268,1.267,1.267,0,0,1-1.266,2.535" transform="translate(88.632 92.118)" fill="#937bff"/><path d="M-1.266,2.535A1.267,1.267,0,0,1-2.532,1.268,1.267,1.267,0,0,1-1.266,0,1.267,1.267,0,0,1,0,1.268,1.267,1.267,0,0,1-1.266,2.535" transform="translate(62.802 92.118)" fill="#937bff"/><path d="M-1.266,2.535A1.268,1.268,0,0,1-2.532,1.268,1.267,1.267,0,0,1-1.266,0,1.267,1.267,0,0,1,0,1.268,1.267,1.267,0,0,1-1.266,2.535" transform="translate(36.972 92.118)" fill="#937bff"/><path d="M-1.266,2.535A1.268,1.268,0,0,1-2.532,1.268,1.267,1.267,0,0,1-1.266,0,1.267,1.267,0,0,1,0,1.268,1.267,1.267,0,0,1-1.266,2.535" transform="translate(13.056 92.118)" fill="#937bff"/><path d="M-1.266,2.535A1.266,1.266,0,0,1-2.532,1.268,1.267,1.267,0,0,1-1.266,0,1.267,1.267,0,0,1,0,1.268,1.266,1.266,0,0,1-1.266,2.535" transform="translate(100.112 113.246)" fill="#937bff"/><path d="M-1.266,2.535A1.267,1.267,0,0,1-2.532,1.268,1.268,1.268,0,0,1-1.266,0,1.267,1.267,0,0,1,0,1.268,1.266,1.266,0,0,1-1.266,2.535" transform="translate(75.239 113.246)" fill="#937bff"/><path d="M-1.266,2.535A1.266,1.266,0,0,1-2.532,1.268,1.267,1.267,0,0,1-1.266,0,1.268,1.268,0,0,1,0,1.268,1.267,1.267,0,0,1-1.266,2.535" transform="translate(49.409 113.246)" fill="#937bff"/><path d="M-1.266,2.535A1.266,1.266,0,0,1-2.532,1.268,1.267,1.267,0,0,1-1.266,0,1.267,1.267,0,0,1,0,1.268,1.266,1.266,0,0,1-1.266,2.535" transform="translate(22.622 113.246)" fill="#937bff"/><path d="M-1.266,2.535A1.266,1.266,0,0,1-2.532,1.268,1.267,1.267,0,0,1-1.266,0,1.267,1.267,0,0,1,0,1.268,1.266,1.266,0,0,1-1.266,2.535" transform="translate(2.532 113.246)" fill="#937bff"/><path d="M-1.266,2.535A1.266,1.266,0,0,1-2.532,1.268,1.267,1.267,0,0,1-1.266,0,1.267,1.267,0,0,1,0,1.268,1.266,1.266,0,0,1-1.266,2.535" transform="translate(88.632 136.064)" fill="#937bff"/><path d="M-1.266,2.535A1.266,1.266,0,0,1-2.532,1.268,1.267,1.267,0,0,1-1.266,0,1.267,1.267,0,0,1,0,1.268,1.266,1.266,0,0,1-1.266,2.535" transform="translate(62.802 136.064)" fill="#937bff"/><path d="M-1.266,2.535A1.266,1.266,0,0,1-2.532,1.268,1.267,1.267,0,0,1-1.266,0,1.267,1.267,0,0,1,0,1.268,1.266,1.266,0,0,1-1.266,2.535" transform="translate(36.972 136.064)" fill="#937bff"/><path d="M-1.266,2.535A1.267,1.267,0,0,1-2.532,1.268,1.268,1.268,0,0,1-1.266,0,1.267,1.267,0,0,1,0,1.268,1.266,1.266,0,0,1-1.266,2.535" transform="translate(13.056 136.064)" fill="#937bff"/><path d="M-1.266,2.535A1.268,1.268,0,0,1-2.532,1.268,1.267,1.267,0,0,1-1.266,0,1.267,1.267,0,0,1,0,1.268,1.267,1.267,0,0,1-1.266,2.535" transform="translate(100.112 158.037)" fill="#937bff"/><path d="M-1.266,2.535A1.268,1.268,0,0,1-2.532,1.268,1.267,1.267,0,0,1-1.266,0,1.267,1.267,0,0,1,0,1.268,1.267,1.267,0,0,1-1.266,2.535" transform="translate(75.239 158.037)" fill="#937bff"/><path d="M-1.266,2.535A1.267,1.267,0,0,1-2.532,1.268,1.267,1.267,0,0,1-1.266,0,1.267,1.267,0,0,1,0,1.268,1.268,1.268,0,0,1-1.266,2.535" transform="translate(49.409 158.037)" fill="#937bff"/><path d="M-1.266,2.535A1.267,1.267,0,0,1-2.532,1.268,1.267,1.267,0,0,1-1.266,0,1.267,1.267,0,0,1,0,1.268,1.267,1.267,0,0,1-1.266,2.535" transform="translate(22.622 158.037)" fill="#937bff"/><path d="M-1.266,2.535A1.267,1.267,0,0,1-2.532,1.268,1.267,1.267,0,0,1-1.266,0,1.267,1.267,0,0,1,0,1.268,1.267,1.267,0,0,1-1.266,2.535" transform="translate(2.532 158.882)" fill="#937bff"/><path d="M-1.266,2.535A1.267,1.267,0,0,1-2.532,1.268,1.267,1.267,0,0,1-1.266,0,1.267,1.267,0,0,1,0,1.268,1.267,1.267,0,0,1-1.266,2.535" transform="translate(88.632 181.7)" fill="#937bff"/><path d="M-1.266,2.535A1.267,1.267,0,0,1-2.532,1.268,1.267,1.267,0,0,1-1.266,0,1.267,1.267,0,0,1,0,1.268,1.267,1.267,0,0,1-1.266,2.535" transform="translate(62.802 181.7)" fill="#937bff"/><path d="M-1.266,2.535A1.268,1.268,0,0,1-2.532,1.268,1.267,1.267,0,0,1-1.266,0,1.267,1.267,0,0,1,0,1.268,1.267,1.267,0,0,1-1.266,2.535" transform="translate(36.972 181.7)" fill="#937bff"/><path d="M-1.266,2.535A1.268,1.268,0,0,1-2.532,1.268,1.267,1.267,0,0,1-1.266,0,1.267,1.267,0,0,1,0,1.268,1.267,1.267,0,0,1-1.266,2.535" transform="translate(13.056 181.7)" fill="#937bff"/><path d="M-1.266,2.535A1.268,1.268,0,0,1-2.532,1.268,1.267,1.267,0,0,1-1.266,0,1.267,1.267,0,0,1,0,1.268,1.267,1.267,0,0,1-1.266,2.535" transform="translate(100.112 203.673)" fill="#937bff"/><path d="M-1.266,2.535A1.268,1.268,0,0,1-2.532,1.268,1.267,1.267,0,0,1-1.266,0,1.267,1.267,0,0,1,0,1.268,1.267,1.267,0,0,1-1.266,2.535" transform="translate(75.239 203.673)" fill="#937bff"/><path d="M-1.266,2.535A1.267,1.267,0,0,1-2.532,1.268,1.267,1.267,0,0,1-1.266,0,1.267,1.267,0,0,1,0,1.268,1.268,1.268,0,0,1-1.266,2.535" transform="translate(49.409 203.673)" fill="#937bff"/><path d="M-1.266,2.535A1.267,1.267,0,0,1-2.532,1.268,1.267,1.267,0,0,1-1.266,0,1.267,1.267,0,0,1,0,1.268,1.267,1.267,0,0,1-1.266,2.535" transform="translate(22.622 203.673)" fill="#937bff"/><path d="M-1.266,2.535A1.267,1.267,0,0,1-2.532,1.268,1.267,1.267,0,0,1-1.266,0,1.267,1.267,0,0,1,0,1.268,1.267,1.267,0,0,1-1.266,2.535" transform="translate(2.532 203.673)" fill="#937bff"/><path d="M-1.266,2.535A1.266,1.266,0,0,1-2.532,1.268,1.267,1.267,0,0,1-1.266,0,1.267,1.267,0,0,1,0,1.268,1.266,1.266,0,0,1-1.266,2.535" transform="translate(88.632 225.646)" fill="#937bff"/><path d="M-1.266,2.535A1.266,1.266,0,0,1-2.532,1.268,1.267,1.267,0,0,1-1.266,0,1.267,1.267,0,0,1,0,1.268,1.266,1.266,0,0,1-1.266,2.535" transform="translate(62.802 225.646)" fill="#937bff"/><path d="M-1.266,2.535A1.266,1.266,0,0,1-2.532,1.268,1.267,1.267,0,0,1-1.266,0,1.267,1.267,0,0,1,0,1.268,1.266,1.266,0,0,1-1.266,2.535" transform="translate(36.972 225.646)" fill="#937bff"/><path d="M-1.266,2.535A1.267,1.267,0,0,1-2.532,1.268,1.268,1.268,0,0,1-1.266,0,1.267,1.267,0,0,1,0,1.268,1.266,1.266,0,0,1-1.266,2.535" transform="translate(2.532 225.646)" fill="#937bff"/><path d="M-1.266,2.535A1.266,1.266,0,0,1-2.532,1.268,1.267,1.267,0,0,1-1.266,0,1.267,1.267,0,0,1,0,1.268,1.266,1.266,0,0,1-1.266,2.535" transform="translate(100.112 248.465)" fill="#937bff"/><path d="M-1.266,2.535A1.267,1.267,0,0,1-2.532,1.268,1.268,1.268,0,0,1-1.266,0,1.267,1.267,0,0,1,0,1.268,1.266,1.266,0,0,1-1.266,2.535" transform="translate(75.239 248.465)" fill="#937bff"/><path d="M-1.266,2.535A1.266,1.266,0,0,1-2.532,1.268,1.267,1.267,0,0,1-1.266,0,1.268,1.268,0,0,1,0,1.268,1.267,1.267,0,0,1-1.266,2.535" transform="translate(49.409 248.465)" fill="#937bff"/><path d="M-1.266,2.535A1.266,1.266,0,0,1-2.532,1.268,1.267,1.267,0,0,1-1.266,0,1.267,1.267,0,0,1,0,1.268,1.266,1.266,0,0,1-1.266,2.535" transform="translate(22.622 248.465)" fill="#937bff"/><path d="M-1.266,2.535A1.266,1.266,0,0,1-2.532,1.268,1.267,1.267,0,0,1-1.266,0,1.267,1.267,0,0,1,0,1.268,1.266,1.266,0,0,1-1.266,2.535" transform="translate(2.532 248.465)" fill="#937bff"/></g></g></svg>