<svg xmlns="http://www.w3.org/2000/svg" width="293.008" height="375.204" viewBox="0 0 293.008 375.204"><g transform="translate(-813.496 -1272.107)"><path d="M33.809,0H259.2c18.672,0,33.809,12.745,33.809,28.468V298.913c0,15.722-15.137,28.468-33.809,28.468H33.809C15.137,327.38,0,314.635,0,298.913V28.468C0,12.745,15.137,0,33.809,0Z" transform="translate(813.496 1319.93)" fill="#f5e8ff"/><g transform="translate(852.313 1272.107)"><g transform="translate(0 0)"><g opacity="0.18"><path d="M187.089,203.865c8.923-10.7,15.1-25.52,14.918-39.623-.186-14.631-5.454-28.183-2.942-43.192,1.436-8.582,4.773-16.843,5.27-25.53,2.348-41.046-62.836-76.663-89.3-38.272-1.814,2.632-3.32,5.545-5.712,7.665a13.057,13.057,0,0,1-11.135,2.962C91.9,66.566,86.628,61.637,80.53,59.5a59.173,59.173,0,0,0-17.149-3.259,66.4,66.4,0,0,0-33.567,7.746C9.348,74.82-3.943,96.183-.852,119.655c1.829,13.89,9.511,26.323,18.219,37.3,16.655,20.992,37.7,38.363,60.965,51.649,18.8,10.735,39.819,18.992,61.459,18.283A64.112,64.112,0,0,0,187.089,203.865Z" transform="translate(1.298 -40.826)" fill="#4b85ff"/></g></g><g transform="translate(12.354 0)"><g transform="matrix(1, -0.017, 0.017, 1, 159.817, 39.263)"><rect width="36.637" height="36.734" rx="5.941" transform="matrix(0.023, -1, 1, 0.023, 1.701, 38.988)" fill="#3a5ce8"/><rect width="36.637" height="36.734" rx="5.941" transform="matrix(0.023, -1, 1, 0.023, 0, 36.627)" fill="#588aff"/><g transform="translate(6.106 6.08)"><path d="M3.073,24.856A3.72,3.72,0,0,1,0,21.116L.392,3.631A3.713,3.713,0,0,1,4.19,0L21.737.41a3.715,3.715,0,0,1,3.626,3.8l-.39,17.484a3.714,3.714,0,0,1-3.8,3.63L3.627,24.911A3.794,3.794,0,0,1,3.073,24.856ZM22.087,1.632a2.556,2.556,0,0,0-.378-.037L4.163,1.187A2.528,2.528,0,0,0,1.576,3.657l-.39,17.485a2.535,2.535,0,0,0,2.469,2.583l17.547.409a2.529,2.529,0,0,0,2.587-2.471l.389-17.484A2.533,2.533,0,0,0,22.087,1.632Z" fill="#fff"/><path d="M4.566,10.923A5.522,5.522,0,0,1,0,5.375,5.5,5.5,0,0,1,5.639,0,5.518,5.518,0,0,1,11.029,5.63h0A5.5,5.5,0,0,1,5.393,11,5.561,5.561,0,0,1,4.566,10.923ZM6.261,1.251A4.34,4.34,0,0,0,2.522,2.38,4.278,4.278,0,0,0,1.186,5.4,4.335,4.335,0,0,0,8.509,8.625,4.277,4.277,0,0,0,9.844,5.6h0A4.333,4.333,0,0,0,6.261,1.251Z" transform="translate(7.167 7.158)" fill="#fff"/><path d="M1.169,2.8A1.414,1.414,0,0,1,0,1.379,1.412,1.412,0,0,1,1.445,0,1.413,1.413,0,0,1,2.825,1.444h0A1.411,1.411,0,0,1,1.381,2.822,1.457,1.457,0,0,1,1.169,2.8Zm.282-1.612a.22.22,0,0,0-.034,0,.225.225,0,1,0-.008.451.226.226,0,0,0,.232-.219A.229.229,0,0,0,1.451,1.189Z" transform="translate(17.986 4.448)" fill="#fff"/></g></g><g transform="translate(56.976)"><path d="M267.049,282.146l-80.2.444a7.532,7.532,0,0,1-7.573-7.49l-.939-169.552a7.532,7.532,0,0,1,7.49-7.573l80.2-.444a7.532,7.532,0,0,1,7.573,7.49l.939,169.552A7.532,7.532,0,0,1,267.049,282.146Z" transform="translate(-178.338 -97.532)" fill="#292930"/><g transform="translate(36.462 8.796)"><rect width="15.877" height="0.593" transform="translate(0 1.623) rotate(-0.326)" fill="#fff"/><path d="M273.492,115.949a1.805,1.805,0,0,1-1.49-1.766,1.8,1.8,0,1,1,1.813,1.793A1.832,1.832,0,0,1,273.492,115.949Zm.522-2.969a1.232,1.232,0,0,0-.216-.018,1.211,1.211,0,0,0-.843,2.071,1.194,1.194,0,0,0,.857.349,1.21,1.21,0,0,0,.2-2.4Z" transform="translate(-252.943 -112.37)" fill="#fff"/><path d="M257.346,385.467a6.5,6.5,0,1,1,7.618-6.436h0a6.5,6.5,0,0,1-7.618,6.436Zm2.139-12.216a5.9,5.9,0,1,0,4.885,5.784h0A5.915,5.915,0,0,0,259.486,373.251Z" transform="translate(-244.786 -218.332)" fill="#fff"/></g><path d="M0,0H92.048V132.118H0Z" transform="translate(1.715 27.248) rotate(-0.317)" fill="#f6fafe"/><g transform="translate(1.665 17.699)"><rect width="92.048" height="9.04" transform="translate(0 0.51) rotate(-0.317)" fill="#3a5ce8"/><g transform="translate(77.363 3.469)"><path d="M312.764,135.978A1.343,1.343,0,1,1,313,136,1.412,1.412,0,0,1,312.764,135.978Zm.362-2.055a.757.757,0,0,0-.133-.011.747.747,0,1,0,.75.743h0A.748.748,0,0,0,313.126,133.923Z" transform="translate(-311.658 -133.273)" fill="#fff"/><path d="M319.651,135.94a1.34,1.34,0,1,1,1.573-1.327h0a1.339,1.339,0,0,1-1.332,1.347A1.3,1.3,0,0,1,319.651,135.94Zm.363-2.055a.718.718,0,0,0-.134-.011.746.746,0,1,0,.75.742h0a.746.746,0,0,0-.616-.731Z" transform="translate(-314.463 -133.258)" fill="#fff"/><path d="M326.8,135.9a1.339,1.339,0,1,1,1.571-1.327h0a1.342,1.342,0,0,1-1.333,1.347A1.314,1.314,0,0,1,326.8,135.9Zm.36-2.055a.706.706,0,0,0-.133-.011.746.746,0,0,0-.742.75.747.747,0,1,0,.875-.74Z" transform="translate(-317.375 -133.242)" fill="#fff"/></g></g><g transform="translate(16.933 29.822)"><rect width="64.878" height="122.096" rx="3.294" transform="translate(0 0.359) rotate(-0.317)" fill="#a4c8fe" opacity="0.41"/><rect width="56.027" height="5.912" rx="0.559" transform="translate(4.533 19.729) rotate(-0.317)" fill="#8db7f8" opacity="0.64"/><rect width="56.027" height="5.912" rx="0.559" transform="translate(4.593 30.444) rotate(-0.317)" fill="#8db7f8" opacity="0.64"/><rect width="56.027" height="5.912" rx="0.559" transform="translate(4.654 41.528) rotate(-0.317)" fill="#8db7f8" opacity="0.64"/><rect width="56.027" height="5.912" rx="0.559" transform="translate(4.891 84.36) rotate(-0.317)" fill="#8db7f8" opacity="0.64"/><rect width="56.027" height="5.912" rx="0.559" transform="translate(4.95 95.075) rotate(-0.317)" fill="#8db7f8" opacity="0.64"/><rect width="56.027" height="5.912" rx="0.559" transform="translate(5.012 106.159) rotate(-0.317)" fill="#8db7f8" opacity="0.64"/><g transform="translate(50.438 3.466)"><path d="M303.231,159.218a5.619,5.619,0,1,1-5.71-5.528A5.62,5.62,0,0,1,303.231,159.218Z" transform="translate(-291.993 -153.69)" fill="#77aaf6" opacity="0.41"/><path d="M300.732,161.579a2.052,2.052,0,1,0-2.232.036,2.764,2.764,0,0,0-1.61,2.555c0,.047,5.535-.041,5.533-.09A2.764,2.764,0,0,0,300.732,161.579Z" transform="translate(-293.987 -155.375)" fill="#77aaf6" opacity="0.55"/></g></g></g><g transform="matrix(1, -0.017, 0.017, 1, 27.9, 104.089)"><rect width="36.637" height="36.734" rx="5.941" transform="translate(0 38.879) rotate(-88.121)" fill="#3a5ce8"/><rect width="36.637" height="36.734" rx="5.941" transform="matrix(0.033, -0.999, 0.999, 0.033, 1.831, 36.617)" fill="#588aff"/><g transform="translate(8.232 9.153)"><path d="M2.379,5.706a2.872,2.872,0,1,1,2.447-.725,2.847,2.847,0,0,1-2.06.766A2.942,2.942,0,0,1,2.379,5.706Zm.79-4.495a1.73,1.73,0,0,0-.229-.024,1.689,1.689,0,1,0-.129,3.375A1.687,1.687,0,0,0,4.558,2.939h0A1.685,1.685,0,0,0,3.169,1.211Z" transform="translate(9.37 14.339)" fill="#fff"/><path d="M1.986,7.74A2.383,2.383,0,0,1,.641,7.005,2.393,2.393,0,0,1,.765,3.621L1.8,2.666a9.972,9.972,0,0,1,13.75.167.919.919,0,0,1,.129.116l.113.117a1.64,1.64,0,0,1,.153.161l.656.724a2.383,2.383,0,0,1-3.5,3.235l-.685-.716a5.216,5.216,0,0,0-7.354-.281l-1.034.953a2.365,2.365,0,0,1-1.712.633A2.481,2.481,0,0,1,1.986,7.74ZM10.1,1.318A8.775,8.775,0,0,0,2.6,3.533l-1.036.959a1.213,1.213,0,0,0,1.65,1.779l1.036-.954a6.4,6.4,0,0,1,9.021.338l.685.717a1.2,1.2,0,1,0,1.763-1.621l-.7-.776a.628.628,0,0,0-.066-.065l-.2-.2A8.782,8.782,0,0,0,10.1,1.318Zm4.717,2.447h0Z" transform="translate(3.953 6.975)" fill="#fff"/><path d="M1.821,8.851A2.2,2.2,0,0,1,.7,5.075L1.88,3.989a15.968,15.968,0,0,1,21.446.3,2.313,2.313,0,0,1,.306.274l.283.305.331.024,0,.327.4.429a2.2,2.2,0,0,1-3.226,3l-.8-.864a11.446,11.446,0,0,0-15.8-.524l-.1.087L3.69,8.3A2.19,2.19,0,0,1,1.821,8.851ZM15.012,1.4A14.733,14.733,0,0,0,2.674,4.87L1.5,5.944a1.015,1.015,0,0,0,1.38,1.488L4.048,6.356a12.633,12.633,0,0,1,17.429.608l.807.875A1.016,1.016,0,0,0,23.77,6.452L22.759,5.363a1.182,1.182,0,0,0-.174-.15l-.051-.043A14.547,14.547,0,0,0,15.012,1.4Z" fill="#fff"/></g></g><g transform="matrix(1, -0.017, 0.017, 1, 0, 41.695)"><g transform="translate(118.663 47.714)"><rect width="43.157" height="56.858" rx="5.118" transform="translate(2.907 45.579) rotate(-89.924)" fill="#32a0bc"/><path d="M5.52,0H37.637a5.52,5.52,0,0,1,5.52,5.52V51.338a5.52,5.52,0,0,1-5.52,5.52H5.52A5.52,5.52,0,0,1,0,51.338V5.52A5.52,5.52,0,0,1,5.52,0Z" transform="translate(0 43.157) rotate(-89.923)" fill="#4cd6f2"/><path d="M4.816,25.075A5.845,5.845,0,0,1,0,19.331L.018,5.815A5.83,5.83,0,0,1,5.848,0L28.355.03a5.839,5.839,0,0,1,5.816,5.831l-.018,13.515a5.84,5.84,0,0,1-5.83,5.816l-22.507-.03A5.882,5.882,0,0,1,4.816,25.075ZM29.148,1.285a4.644,4.644,0,0,0-.794-.069L5.847,1.186A4.643,4.643,0,0,0,1.2,5.817L1.186,19.333a4.652,4.652,0,0,0,4.631,4.643l22.507.031a4.643,4.643,0,0,0,4.644-4.632L32.985,5.86a4.659,4.659,0,0,0-3.838-4.574Z" transform="translate(11.372 9.021)" fill="#fff"/><path d="M1.307,8.433A1.582,1.582,0,0,1,0,6.876l.007-5.3A1.577,1.577,0,0,1,2.253.15L7.929,2.808a1.577,1.577,0,0,1,0,2.858L2.242,8.308A1.571,1.571,0,0,1,1.307,8.433ZM1.193,1.577l-.007,5.3a.391.391,0,0,0,.557.355L7.426,4.591a.392.392,0,0,0,0-.71L1.75,1.223a.391.391,0,0,0-.557.354Z" transform="translate(24.037 17.385)" fill="#fff"/></g><path d="M93.255,49.286l-6.81-.154a1.486,1.486,0,0,0-1.37.835l-4.457,9.152A1.487,1.487,0,0,1,78,59.228l-5.557-9.35a1.487,1.487,0,0,0-1.237-.727L2.865,47.25A2.974,2.974,0,0,1,0,44.171L.929,2.948A2.974,2.974,0,0,1,3.929,0l90.39,2.035a2.974,2.974,0,0,1,2.864,3.08l-.928,41.222A2.975,2.975,0,0,1,93.255,49.286Z" transform="translate(1.832 0.697)" fill="#5733d1"/><path d="M91.738,47.94l-5.3-.119a1.486,1.486,0,0,0-1.383.862l-4.028,8.705a1.487,1.487,0,0,1-2.628.134l-5.518-9.307a1.487,1.487,0,0,0-1.245-.728L4.32,45.971A4.419,4.419,0,0,1,0,41.453L.838,4.32A4.419,4.419,0,0,1,5.355,0L92.772,1.97a4.419,4.419,0,0,1,4.319,4.517l-.836,37.133A4.419,4.419,0,0,1,91.738,47.94Z" fill="#6f55d9"/><g transform="translate(9.2 14.312)"><g transform="translate(0.334)"><path d="M10.591,9.441l2.756,1.522a.552.552,0,0,0,.527,0L26.4,3.946l.943-.528a.593.593,0,0,1,.215-.071l.037-1.724A1.063,1.063,0,0,0,26.554.537L1.143,0A1.063,1.063,0,0,0,.058,1.041L0,3.771l.665.356Z" fill="#fff"/></g><g transform="translate(0.028 5.108)"><path d="M.278,0,0,13.144l10.017-7.93Z" fill="#fff"/></g><g transform="translate(17.781 4.678)"><path d="M9.782,14.227,10.083,0,0,5.651Z" fill="#fff"/></g><g transform="translate(0 10.934)"><path d="M26.85,8.931,16.678.014l-1.9,1.063a1.771,1.771,0,0,1-.873.212,1.735,1.735,0,0,1-.8-.217L11.164,0a.6.6,0,0,1-.1.1L.606,8.38a.592.592,0,0,1-.382.128A.593.593,0,0,1,0,8.459l0,.173a1.063,1.063,0,0,0,1.04,1.086l25.41.537a1.063,1.063,0,0,0,1.085-1.041l0-.219a.587.587,0,0,1-.691-.064Z" fill="#fff"/></g></g><path d="M.49,1.176A.593.593,0,0,1,.606,0L37.793.837a.593.593,0,1,1-.027,1.186L.579,1.185A.558.558,0,0,1,.49,1.176Z" transform="translate(47.019 14.984)" fill="#fff"/><path d="M.49,1.177A.593.593,0,0,1,.607,0L28.527.629A.593.593,0,0,1,28.5,1.814L.58,1.186A.629.629,0,0,1,.49,1.177Z" transform="translate(46.634 32.104)" fill="#fff"/><path d="M.49,1.177A.593.593,0,0,1,.607,0L17.589.382a.593.593,0,1,1-.027,1.185L.58,1.186A.625.625,0,0,1,.49,1.177Z" transform="translate(46.826 23.55)" fill="#fff"/><path d="M.49,1.177A.593.593,0,0,1,.606,0L17.589.383a.593.593,0,0,1-.027,1.185L.579,1.186A.558.558,0,0,1,.49,1.177Z" transform="translate(67.031 24.005)" fill="#fff"/></g></g></g></g></svg>