<svg xmlns="http://www.w3.org/2000/svg" xmlns:xlink="http://www.w3.org/1999/xlink" width="1920" height="964" viewBox="0 0 1920 964">
  <defs>
    <clipPath id="clip-Artboard_1">
      <rect width="1920" height="964"/>
    </clipPath>
  </defs>
  <g id="Artboard_1" data-name="Artboard – 1" clip-path="url(#clip-Artboard_1)">
    <rect width="1920" height="964" fill="none"/>
    <g id="Group_369" data-name="Group 369" transform="translate(190.874 -13.623)">
      <g id="Group_366" data-name="Group 366" transform="translate(1365.054 763.966)">
        <line id="Line_21" data-name="Line 21" y1="7.558" x2="7.558" fill="none" stroke="#fbe40c" stroke-linecap="round" stroke-linejoin="round" stroke-width="1.354"/>
        <line id="Line_22" data-name="Line 22" x2="7.558" y2="7.558" fill="none" stroke="#fbe40c" stroke-linecap="round" stroke-linejoin="round" stroke-width="1.354"/>
      </g>
      <g id="Group_369-2" data-name="Group 369">
        <path id="Path_3466" data-name="Path 3466" d="M501.688,185.129A10.025,10.025,0,1,1,491.663,175.1,10.026,10.026,0,0,1,501.688,185.129Z" transform="translate(96.313 9.478)" fill="none" stroke="#00ffe7" stroke-miterlimit="10" stroke-width="1.685"/>
        <g id="Group_364" data-name="Group 364" transform="translate(78.606 579.074)">
          <g id="Group_363" data-name="Group 363">
            <line id="Line_17" data-name="Line 17" y2="10.69" transform="translate(5.345)" fill="none" stroke="#00ffe7" stroke-linecap="round" stroke-linejoin="round" stroke-width="0.903"/>
            <line id="Line_18" data-name="Line 18" x1="10.689" transform="translate(0 5.345)" fill="none" stroke="#00ffe7" stroke-linecap="round" stroke-linejoin="round" stroke-width="0.903"/>
          </g>
        </g>
        <g id="Group_365" data-name="Group 365" transform="translate(1358.885 239.584)">
          <line id="Line_19" data-name="Line 19" y1="7.558" x2="7.558" fill="none" stroke="#00f9ff" stroke-linecap="round" stroke-linejoin="round" stroke-width="1.354"/>
          <line id="Line_20" data-name="Line 20" x2="7.558" y2="7.558" fill="none" stroke="#00f9ff" stroke-linecap="round" stroke-linejoin="round" stroke-width="1.354"/>
        </g>
        <path id="Path_3467" data-name="Path 3467" d="M1411.815,522.514a10.025,10.025,0,1,1-10.025-10.025A10.024,10.024,0,0,1,1411.815,522.514Z" transform="translate(47.823 21.216)" fill="none" stroke="#fde60a" stroke-miterlimit="10" stroke-width="1.685"/>
        <path id="Path_3468" data-name="Path 3468" d="M603.861,558.623l10.2-3.377,3.377,10.2,10.2-3.377,3.377,10.2,10.2-3.377,3.377,10.2" transform="translate(118.495 22.704)" fill="none" stroke="#fb00fd" stroke-linecap="round" stroke-linejoin="round" stroke-width="1.491" style="mix-blend-mode: overlay;isolation: isolate"/>
        <path id="Path_3469" data-name="Path 3469" d="M965.138,769.566l10.436-2.559,2.56,10.436,10.436-2.56,2.56,10.436,10.437-2.56,2.559,10.436" transform="translate(180.852 30.071)" fill="none" stroke="#fb00fd" stroke-linecap="round" stroke-linejoin="round" stroke-width="1.491" style="mix-blend-mode: overlay;isolation: isolate"/>
        <circle id="Ellipse_20" data-name="Ellipse 20" cx="4.117" cy="4.117" r="4.117" transform="translate(742.5 342.412)" fill="none" stroke="#00f9ff" stroke-linecap="round" stroke-linejoin="round" stroke-width="0.677"/>
        <circle id="Ellipse_21" data-name="Ellipse 21" cx="4.117" cy="4.117" r="4.117" transform="translate(952.956 304.368)" fill="none" stroke="#fb00fd" stroke-linecap="round" stroke-linejoin="round" stroke-width="0.677"/>
        <g id="Group_367" data-name="Group 367" transform="translate(1043.467 308.074)">
          <line id="Line_23" data-name="Line 23" x1="4.418" y2="4.418" fill="none" stroke="#fff" stroke-linecap="round" stroke-linejoin="round" stroke-width="0.677"/>
          <line id="Line_24" data-name="Line 24" x1="4.418" y1="4.418" fill="none" stroke="#fff" stroke-linecap="round" stroke-linejoin="round" stroke-width="0.677"/>
        </g>
        <path id="Path_3470" data-name="Path 3470" d="M73.3,229.358l.99-5.36,5.36.99.99-5.36,5.36.99.99-5.36,5.36.99" transform="translate(5.364 10.875)" fill="none" stroke="#fbe40c" stroke-linecap="round" stroke-linejoin="round" stroke-width="0.756"/>
        <path id="Path_3471" data-name="Path 3471" d="M1017.845,161.658a5.371,5.371,0,1,1,5.37-5.371A5.37,5.37,0,0,1,1017.845,161.658Z" transform="translate(186.317 8.636)" fill="none" stroke="#fbe40c" stroke-linecap="round" stroke-linejoin="round" stroke-width="0.903"/>
        <path id="Path_3472" data-name="Path 3472" d="M997,309.814a2.115,2.115,0,1,1-.968-2.83A2.117,2.117,0,0,1,997,309.814Zm-10.55-5.173a2.115,2.115,0,1,1-.968-2.83A2.118,2.118,0,0,1,986.454,304.641Zm-10.55-5.172a2.115,2.115,0,1,1-.969-2.83A2.117,2.117,0,0,1,975.9,299.469ZM965.353,294.3a2.115,2.115,0,1,1-.968-2.83A2.117,2.117,0,0,1,965.353,294.3Zm-10.55-5.173a2.115,2.115,0,1,1-.968-2.829A2.116,2.116,0,0,1,954.8,289.123Zm-10.55-5.172a2.115,2.115,0,1,1-.968-2.83A2.118,2.118,0,0,1,944.254,283.951ZM991.8,320.432a2.115,2.115,0,1,1-.968-2.83A2.116,2.116,0,0,1,991.8,320.432Zm-10.55-5.173a2.115,2.115,0,1,1-.968-2.83A2.118,2.118,0,0,1,981.248,315.259Zm-10.55-5.173a2.115,2.115,0,1,1-.968-2.829A2.117,2.117,0,0,1,970.7,310.086Zm-10.551-5.172a2.115,2.115,0,1,1-.968-2.83A2.116,2.116,0,0,1,960.147,304.914Zm-10.55-5.173a2.115,2.115,0,1,1-.968-2.83A2.117,2.117,0,0,1,949.6,299.741Zm-10.55-5.172a2.115,2.115,0,1,1-.968-2.83A2.118,2.118,0,0,1,939.048,294.569Zm63.162,4.627a2.115,2.115,0,1,1-.968-2.83A2.118,2.118,0,0,1,1002.21,299.2Zm-10.55-5.172a2.115,2.115,0,1,1-.968-2.83A2.118,2.118,0,0,1,991.66,294.024Zm-10.55-5.173a2.115,2.115,0,1,1-.969-2.83A2.117,2.117,0,0,1,981.11,288.851Zm-10.551-5.173a2.115,2.115,0,1,1-.968-2.83A2.117,2.117,0,0,1,970.559,283.678Zm-10.55-5.173a2.115,2.115,0,1,1-.968-2.829A2.118,2.118,0,0,1,960.01,278.505Zm-10.55-5.172a2.115,2.115,0,1,1-.969-2.83A2.117,2.117,0,0,1,949.46,273.333Zm57.956,15.245a2.115,2.115,0,1,1-.968-2.829A2.118,2.118,0,0,1,1007.416,288.578Zm-10.55-5.172a2.115,2.115,0,1,1-.968-2.83A2.118,2.118,0,0,1,996.866,283.406Zm-10.551-5.173a2.115,2.115,0,1,1-.968-2.83A2.116,2.116,0,0,1,986.315,278.233Zm-10.55-5.173a2.115,2.115,0,1,1-.968-2.83A2.117,2.117,0,0,1,975.766,273.06Zm-10.55-5.173a2.115,2.115,0,1,1-.968-2.829A2.117,2.117,0,0,1,965.216,267.887Zm-10.55-5.172a2.115,2.115,0,1,1-.969-2.83A2.117,2.117,0,0,1,954.666,262.715Zm57.956,15.245a2.115,2.115,0,1,1-.968-2.829A2.118,2.118,0,0,1,1012.622,277.96Zm-10.55-5.172a2.115,2.115,0,1,1-.969-2.83A2.118,2.118,0,0,1,1002.072,272.788Zm-10.551-5.173a2.115,2.115,0,1,1-.968-2.83A2.116,2.116,0,0,1,991.521,267.615Zm-10.55-5.173a2.115,2.115,0,1,1-.968-2.83A2.116,2.116,0,0,1,980.972,262.442Zm-10.55-5.173a2.115,2.115,0,1,1-.969-2.829A2.117,2.117,0,0,1,970.422,257.269Zm-10.55-5.172a2.115,2.115,0,1,1-.969-2.83A2.118,2.118,0,0,1,959.872,252.1Zm57.956,15.245a2.115,2.115,0,1,1-.969-2.829A2.117,2.117,0,0,1,1017.828,267.342Zm-10.551-5.172a2.115,2.115,0,1,1-.968-2.83A2.116,2.116,0,0,1,1007.277,262.17ZM996.727,257a2.115,2.115,0,1,1-.968-2.83A2.116,2.116,0,0,1,996.727,257Zm-10.55-5.173a2.115,2.115,0,1,1-.968-2.83A2.117,2.117,0,0,1,986.178,251.824Zm-10.55-5.173a2.115,2.115,0,1,1-.969-2.829A2.117,2.117,0,0,1,975.628,246.651Zm-10.551-5.172a2.114,2.114,0,1,1-.968-2.83A2.116,2.116,0,0,1,965.077,241.479Zm57.956,15.245a2.115,2.115,0,1,1-.968-2.829A2.116,2.116,0,0,1,1023.033,256.724Zm-10.55-5.172a2.115,2.115,0,1,1-.968-2.83A2.116,2.116,0,0,1,1012.483,251.552Zm-10.55-5.173a2.115,2.115,0,1,1-.968-2.83A2.116,2.116,0,0,1,1001.933,246.379Zm-10.55-5.173a2.115,2.115,0,1,1-.969-2.829A2.119,2.119,0,0,1,991.384,241.206Zm-10.551-5.172a2.115,2.115,0,1,1-.968-2.83A2.116,2.116,0,0,1,980.833,236.034Zm-10.55-5.173a2.115,2.115,0,1,1-.968-2.83A2.116,2.116,0,0,1,970.283,230.861Zm57.956,15.245a2.115,2.115,0,1,1-.968-2.829A2.116,2.116,0,0,1,1028.239,246.106Zm-10.55-5.172a2.115,2.115,0,1,1-.968-2.83A2.116,2.116,0,0,1,1017.689,240.934Zm-10.55-5.173a2.115,2.115,0,1,1-.968-2.83A2.116,2.116,0,0,1,1007.139,235.761Zm-10.551-5.173a2.115,2.115,0,1,1-.968-2.829A2.117,2.117,0,0,1,996.589,230.588Zm-10.55-5.172a2.114,2.114,0,1,1-.968-2.83A2.116,2.116,0,0,1,986.039,225.416Zm-10.55-5.173a2.115,2.115,0,1,1-.968-2.83A2.117,2.117,0,0,1,975.489,220.243Zm57.956,15.246a2.115,2.115,0,1,1-.968-2.83A2.116,2.116,0,0,1,1033.445,235.489Zm-10.55-5.173a2.115,2.115,0,1,1-.968-2.83A2.116,2.116,0,0,1,1022.9,230.316Zm-10.55-5.173a2.115,2.115,0,1,1-.968-2.83A2.116,2.116,0,0,1,1012.345,225.143Zm-10.551-5.173a2.115,2.115,0,1,1-.968-2.829A2.117,2.117,0,0,1,1001.795,219.97Zm-10.55-5.172a2.115,2.115,0,1,1-.968-2.83A2.116,2.116,0,0,1,991.245,214.8Zm-10.55-5.173a2.115,2.115,0,1,1-.968-2.83A2.117,2.117,0,0,1,980.7,209.625Z" transform="translate(181.298 10.573)" fill="#fff" style="mix-blend-mode: overlay;isolation: isolate"/>
      </g>
    </g>
  </g>
</svg>
