<svg xmlns="http://www.w3.org/2000/svg" xmlns:xlink="http://www.w3.org/1999/xlink" width="1792" height="900" viewBox="0 0 1792 900" preserveAspectRatio="none"><defs><style>.a{fill:#fff;}.b{clip-path:url(#a);}.c{fill:none;}.d{fill:url(#b);}.e{fill:url(#c);}.f{fill:url(#d);}.g{fill:url(#e);}.h{fill:url(#f);}</style><clipPath id="a"><rect class="a" width="1792" height="900" transform="translate(2369 -683)"/></clipPath><radialGradient id="b" cx="0.761" cy="0.518" r="0.643" gradientTransform="translate(0.178) scale(0.644 1)" gradientUnits="objectBoundingBox"><stop offset="0" stop-color="#261456"/><stop offset="0.166" stop-color="#29145e"/><stop offset="0.429" stop-color="#331675"/><stop offset="0.755" stop-color="#44199a"/><stop offset="1" stop-color="#531cbb"/></radialGradient><linearGradient id="c" x1="0.393" y1="0.976" x2="0.543" y2="0.463" gradientUnits="objectBoundingBox"><stop offset="0" stop-color="#0064b1"/><stop offset="0.111" stop-color="#0360b1" stop-opacity="0.953"/><stop offset="0.287" stop-color="#0e57b2" stop-opacity="0.824"/><stop offset="0.506" stop-color="#2048b4" stop-opacity="0.612"/><stop offset="0.756" stop-color="#3833b7" stop-opacity="0.322"/><stop offset="1" stop-color="#531cbb" stop-opacity="0"/></linearGradient><linearGradient id="d" x1="0.241" y1="0.79" x2="0.7" y2="0.28" gradientUnits="objectBoundingBox"><stop offset="0" stop-color="#3586c3"/><stop offset="0.103" stop-color="#3681c2" stop-opacity="0.957"/><stop offset="0.267" stop-color="#3974c1" stop-opacity="0.839"/><stop offset="0.472" stop-color="#3f60c0" stop-opacity="0.647"/><stop offset="0.708" stop-color="#4744be" stop-opacity="0.38"/><stop offset="0.968" stop-color="#5120bb" stop-opacity="0.043"/><stop offset="1" stop-color="#531cbb" stop-opacity="0"/></linearGradient><linearGradient id="e" x1="0.535" y1="1.228" x2="0.575" y2="-0.078" gradientUnits="objectBoundingBox"><stop offset="0" stop-color="#1e6eb6"/><stop offset="0.197" stop-color="#285ac6" stop-opacity="0.773"/><stop offset="0.354" stop-color="#3541d9" stop-opacity="0.498"/><stop offset="0.547" stop-color="#3f2ee8" stop-opacity="0.282"/><stop offset="0.723" stop-color="#4621f3" stop-opacity="0.129"/><stop offset="0.877" stop-color="#4b18fa" stop-opacity="0.035"/><stop offset="0.957" stop-color="#4d16fd" stop-opacity="0"/><stop offset="1" stop-color="#4d16fd" stop-opacity="0"/></linearGradient><linearGradient id="f" x1="0.253" y1="0.893" x2="0.676" y2="0.245" gradientUnits="objectBoundingBox"><stop offset="0" stop-color="#474d9e"/><stop offset="0.07" stop-color="#4746a8" stop-opacity="0.89"/><stop offset="0.294" stop-color="#4935c6" stop-opacity="0.576"/><stop offset="0.505" stop-color="#4b27de" stop-opacity="0.325"/><stop offset="0.698" stop-color="#4c1eef" stop-opacity="0.145"/><stop offset="0.866" stop-color="#4c18f9" stop-opacity="0.039"/><stop offset="0.991" stop-color="#4d16fd" stop-opacity="0"/></linearGradient></defs><g class="b" transform="translate(-2369 683)"><rect class="c" width="1567.251" height="860.104" transform="translate(2572.112 -36.699)"/><path class="d" d="M-219.411,3.277,1573.828.106V917.174L5.5,916.524H-219.411Z" transform="translate(2588.046 -689.33)"/><path class="e" d="M1057.612,520.911c-15.253-10.791-34.462-14.18-52.024-19.442C984.981,495.3,964.535,488.514,944.6,480.4c-39.978-16.279-78.013-38.435-107.429-70.472C807.126,377.2,786.229,337.362,756.7,304.206c-29.155-32.74-66.856-55.755-105.685-75.282-44.251-22.253-89.62-42.413-134.482-63.394l-140.6-65.757L234.31,33.535C190.648,13.114,147.648-9.958,98.619-12.974c-24.353-1.5-48.739.536-73,2.576a1.686,1.686,0,0,0-1.169.584,1.692,1.692,0,0,0-2.812-.8C-40.569,51.667-71.014,138.46-76,225.153c-2.808,48.785,1.688,98.163,11.437,146,4.035,19.8,9.558,39.806,20.041,57.259a92.642,92.642,0,0,0,43.4,37.654c19.935,8.6,41.873,11.883,63.347,13.888,25.405,2.372,50.956,2.269,76.443,1.819,25.192-.445,50.4-1.253,75.591-.384,25.706.887,51.277,3.763,76.755,7.175,49.129,6.58,97.785,13.733,147.431,14.879,48.2,1.112,97.093-.212,144.437,10.4,23.143,5.188,44.548,14.258,66.311,23.449a269.309,269.309,0,0,0,69.258,19.215c50.455,6.886,101.608,11.253,152.4,14.763,51.152,3.535,102.566,4.867,153.752,1.205,14.889-1.066,35.05-2.244,44.132-16.2C1077.432,542.913,1069.058,529.007,1057.612,520.911Z" transform="translate(2357.105 -658.753)"/><path class="f" d="M1302.962,479.367c-3.665-18.783-19.045-33.188-30.1-47.9a107.072,107.072,0,0,1-16.2-30.948c-3.765-11.238-6.7-22.862-12.264-33.4-8.523-16.143-22.822-27.847-38.233-37.108-16.838-10.12-35.009-17.787-51.88-27.848-19.2-11.447-33.375-26.906-47.387-44.068-14.527-17.8-29.36-33.346-50.237-43.605-10.606-5.212-21.662-9.449-32.224-14.755a140.584,140.584,0,0,1-28.221-18.822c-31.336-26.751-53.2-64.185-89.256-85.443-41.644-24.553-92.121-19-138-27.366A282.785,282.785,0,0,1,638.017,6.394C619.1-9.552,601.981-27.555,582.451-42.789A224.868,224.868,0,0,0,524.163-75.4c-42.338-16.159-88.208-20.744-133.2-21.712-22.5-.484-45.008-.018-67.5.592a1.53,1.53,0,0,0-.8-.117c-16.674,1.763-35.2,5.01-48.539,15.964-14.73,12.1-14.694,30.913-5.613,46.566,5.823,10.036,13.893,18.747,21.507,27.427,8.021,9.144,16.364,18.074,25.8,25.789,14.832,12.13,32.15,20.4,50.5,25.681C440.357,66.11,534.529,42.1,589.82,108.268c14.354,17.177,25.833,36.634,42.553,51.767,13.115,11.87,28.271,21.248,44.016,29.2,32.432,16.382,67.431,26.957,99.868,43.319,15.364,7.749,30.209,16.889,42.761,28.755,14.707,13.906,24.865,30.98,31.119,50.186,13.024,40.005,13.763,85.188,46.909,115.459,28.667,26.181,69.052,34.306,106.232,39.82,21.817,3.236,43.763,5.536,65.489,9.383a624.718,624.718,0,0,1,77.45,18.888c25.1,7.849,48.93,18.806,73.785,27.22,19.753,6.686,41.348,9.665,60.522-.356C1296.377,513.625,1306.5,497.491,1302.962,479.367Z" transform="translate(2402.53 -669.982)"/><path class="g" d="M1069.685,530.753c-6.641-5.322-15.911-5.424-23.987-5.243-45.641,1.025-91.132-.18-136.567-4.891-91.453-9.48-180.745-31.846-266.472-64.892-41.161-15.866-82.4-33.019-126.125-40.445-21.761-3.7-43.46-4.21-65.452-2.72-23.58,1.6-47.393,4.151-70.792-.583-20.95-4.24-40.579-13.018-60.207-21.2-19.525-8.136-39.215-15.151-60.135-18.695-42.072-7.126-84.924-3.054-127.132.5-43.339,3.647-87.577,7.1-130.452-2.32-15.5-3.408-32-7.9-47.958-5-17.227,3.139-25.552,16.326-28.186,32.772-7.173,44.783-8.363,91.094-5.977,136.318A711.919,711.919,0,0,0-59.389,670.046c3.853,15.348,7.222,35.8,21.512,45.3,7.539,5.013,16.7,5.242,25.447,5.276,11.986.048,23.972,131.866,35.958,131.844,47.921-.093,95.9-.837,143.672-4.882,23.25-1.968,46.439-4.716,69.462-8.522,23.522-3.888,46.856-8.821,70.366-12.784,42.784-7.213,87.319-6.58,129.254-18.358,20.131-5.654,38.305-14.915,55.258-27.095,17.351-12.465,33.5-26.591,51.933-37.506,38.076-22.541,82.087-32.586,125.436-39,47.74-7.063,96.033-9.241,144.2-11.1,45.223-1.746,55.644,2.279,125.941,0,4.7-.152,47.712-1,89.7-10.293,80.08-20.448,117.258-37.178,160.633-63.2.039,0,40.239-24.162,40.277-24.166L1028.756,554.03c-1.712.229,278.9,54.212,280.843,54.544,10.1,1.715-260.88-49.284-250.733-50.834,6.732-1.028,14.951-2.644,16.985-10.241C1077.465,541.467,1074.419,534.548,1069.685,530.753Z" transform="translate(2356.563 -608.138)"/><path class="h" d="M1220.905,527.606a1.725,1.725,0,0,0-2.436.985l-102.777-30.81a1.687,1.687,0,0,0-.335-1.655c-26.546-31.4-42.564-69.523-60.611-106.031-8.927-18.057-18.441-35.908-30.046-52.411a275.9,275.9,0,0,0-40.221-44.937c-32.854-29.928-70.522-54.516-108.138-77.959-38.843-24.208-78.153-47.735-117.576-70.983-77.832-45.9-157.624-89.325-242.508-120.832A966.615,966.615,0,0,0,248.305-34.857C158.95-41.157,66.787-36.431-18.75-8.013q-16.11,5.351-31.8,11.844a1.707,1.707,0,0,0,0,3.26A1260.742,1260.742,0,0,1,108.482,65.58q38.535,17.22,75.853,37c23.343,12.378,46.478,25.671,63.927,45.94,14.8,17.188,26.386,37.713,45.607,50.585,18.079,12.106,39.927,15.586,61.267,16.332,23.825.832,47.735-1.385,71.5,1.051,22.955,2.353,43.689,10.613,62.545,23.8,35.374,24.734,61.837,60.577,99.474,82.338,41.421,23.949,90.935,24.347,134.672,42.055,22.6,9.15,41.211,23.77,57.236,41.973,14.7,16.691,27.213,35.129,41.208,52.386,14.492,17.87,30.7,33.83,50.783,45.329,22.643,12.965,47.834,21.482,72.17,30.645,51.331,19.331,104.061,37.284,158.911,42.96,26.83,2.777,54.024,2.375,80.6-2.441,16.993-3.08,43.915-8.05,45.729-29.629C1230.6,538.438,1227.727,531.166,1220.905,527.606Z" transform="translate(2360.464 -661.945)"/></g></svg>