<svg xmlns="http://www.w3.org/2000/svg" width="29" height="29" viewBox="0 0 29 29"><rect width="29" height="29" rx="14.5" fill="rgba(244,221,160,0.36)"/><g transform="translate(7 7)"><path d="M2.625,11.564A2.632,2.632,0,0,1,0,8.946v-6.3A2.632,2.632,0,0,1,2.625.021h.7a.525.525,0,0,1,0,1.043h-.7A1.568,1.568,0,0,0,1.043,2.653v6.3a1.568,1.568,0,0,0,1.582,1.568h8.4a1.568,1.568,0,0,0,1.568-1.575v-6.3a1.575,1.575,0,0,0-1.568-1.582h-.7A.525.525,0,0,1,9.8.546.532.532,0,0,1,10.325,0h.7A2.632,2.632,0,0,1,13.65,2.618v6.3a2.618,2.618,0,0,1-2.625,2.646Z" transform="translate(0.175 2.436)" fill="#2d2d2d"/><path d="M.525,1.05A.525.525,0,0,1,.525,0h2.8a.525.525,0,0,1,0,1.05Z" transform="translate(5.075 2.45)" fill="#2d2d2d"/><path d="M1.575,4.558A1.576,1.576,0,0,1,0,2.983v-1.4A1.568,1.568,0,0,1,.455.469,1.5,1.5,0,0,1,1.575,0,1.582,1.582,0,0,1,3.15,1.569v1.4A1.582,1.582,0,0,1,1.582,4.558Z" transform="translate(2.961 0)" fill="#2d2d2d"/><path d="M1.575,4.543A1.556,1.556,0,0,1,.462,4.081,1.571,1.571,0,0,1,0,2.968v-1.4a1.571,1.571,0,0,1,3.143,0v1.4A1.576,1.576,0,0,1,1.575,4.55Z" transform="translate(7.861)" fill="#2d2d2d"/><path d="M.525,1.05A.525.525,0,0,1,.525,0h12.6a.525.525,0,0,1,.525.525.511.511,0,0,1-.525.525Z" transform="translate(0.175 5.95)" fill="#2d2d2d"/></g></svg>