<svg xmlns="http://www.w3.org/2000/svg" xmlns:xlink="http://www.w3.org/1999/xlink" width="291.881" height="374.721" viewBox="0 0 291.881 374.721"><defs><clipPath id="a"><path d="M907.179,2734.965a32.264,32.264,0,1,1-32.264-32.264,32.263,32.263,0,0,1,32.264,32.264" transform="translate(-842.652 -2702.701)" fill="none"/></clipPath></defs><g transform="translate(-417 -1272.589)"><rect width="291.881" height="327.38" rx="30" transform="translate(417 1319.93)" fill="#e1eaff"/><path d="M513.347,2391.76c-24.6,0-49.1,13.67-49.065,40.235,0,3.127.414,6.308-.333,9.344a12.771,12.771,0,0,1-7.312,8.577c-5.784,2.445-12.77,1.413-18.866,3.082a57.888,57.888,0,0,0-15.609,6.917,64.95,64.95,0,0,0-22.7,24.9c-10.438,20.1-9.248,44.68,6.3,61.846,9.2,10.158,22.293,15.886,35.4,19.872a206.86,206.86,0,0,0,58.749,8.519q9.515,0,19.028-.878c21.1-1.821,42.6-6.869,59.614-19.477a62.706,62.706,0,0,0,25.248-44.83c1.222-13.571-2.05-28.929-10.039-40.175-8.288-11.67-20.064-19.641-26.393-33.112-3.618-7.7-5.528-16.2-9.961-23.471-8.743-14.331-26.432-21.354-44.065-21.354" transform="translate(68.599 -1119.171)" fill="#4b85ff" opacity="0.18"/><path d="M471.88,2470.7H332.858a8.874,8.874,0,0,0-8.874,8.874v60.144a8.874,8.874,0,0,0,8.874,8.874H361.02l10.737,12.489a1.74,1.74,0,0,0,2.94-.5l4.66-11.986H471.88a8.874,8.874,0,0,0,8.874-8.874v-60.144A8.874,8.874,0,0,0,471.88,2470.7Z" transform="translate(130.388 -1169.364)" fill="#3a5ce8"/><path d="M458.879,2459.695H319.858a8.874,8.874,0,0,0-8.874,8.874v60.144a8.874,8.874,0,0,0,8.874,8.874H348.02l10.737,12.49a1.74,1.74,0,0,0,2.94-.5l4.66-11.986h92.523a8.874,8.874,0,0,0,8.874-8.874v-60.144A8.874,8.874,0,0,0,458.879,2459.695Z" transform="translate(139.825 -1161.379)" fill="#588aff"/><path d="M424.531,2514.605a31.314,31.314,0,1,0-48.12,26.423q.07-.236.144-.472c.25-.789.534-1.561.851-2.327a20.113,20.113,0,0,1,1.076-2.228,18.481,18.481,0,0,1,7.843-5.646,24.337,24.337,0,0,1,2.366-.825,16.526,16.526,0,0,1,2.035-.247,10.326,10.326,0,0,1,3.758.43,7.408,7.408,0,0,1,1.183.5c2.146.817,2.859,3.063,4.29,4.7a2.118,2.118,0,0,0,1.021.613c3.778.613,8.677.511,9.6,5.106a28.188,28.188,0,0,0,2.767-2.047q.645-.538,1.257-1.109A31.228,31.228,0,0,0,424.531,2514.605Z" transform="translate(102.864 -1178.508)" fill="#1f357a"/><path d="M437.722,2639.671a12.076,12.076,0,0,0-8.033-.815,17.981,17.981,0,0,0-3.718,1.368,22.384,22.384,0,0,0-8.69,8.025q-.493.82-.914,1.671a23.089,23.089,0,0,0-1.387,3.473c-.049.151-.1.3-.144.458a32.159,32.159,0,0,0,34.263-.413,22.969,22.969,0,0,0-2.6-5.907,21.212,21.212,0,0,0-7.159-7.024Q438.552,2640.052,437.722,2639.671Z" transform="translate(64.439 -1291.179)" fill="#fff"/><path d="M466.972,2589.012c-1.587,3.421-.753,7.154-.72,10.759,0,.4,0,.8-.023,1.2,0,2.058-.612,5.02,1.972,5.736a3.431,3.431,0,0,0,1.609.121,3.1,3.1,0,0,0,2.546-1.9,4.6,4.6,0,0,0,.3-1.032c.082-1.357.075-2.723.039-4.089q-.018-.689-.042-1.381c-.189-3.254.628-6.725-.395-9.687-.408-1.123-2.761,0-4.258.034Q467.515,2588.864,466.972,2589.012Z" transform="translate(27.298 -1254.683)" fill="#f9c5c9"/><path d="M411.352,2460.426c-.877,1.3-.188,5.742-.125,7.23q.034.79.1,1.584c.04.529.09,1.058.153,1.583a48.2,48.2,0,0,0,1.614,7.448q.37,1.22.812,2.414c.289.847.625,1.7,1.007,2.556a26.066,26.066,0,0,0,1.293,2.52c2.833,4.711,7.536,7.807,12.46,9.872a10.61,10.61,0,0,0,10.96-1.479c11.058-9.7,12.325-30.191,4.325-41.975-4.1-6.046-12.19-7.549-18.784-4.913-3.927,1.62-6.836,4.616-9.611,7.655A56.873,56.873,0,0,0,411.352,2460.426Z" transform="translate(67.29 -1151.453)" fill="#f9c5c9"/><path d="M382,2434.4a5.8,5.8,0,0,1,1.38-5.285,7.157,7.157,0,0,1,.766-.766,5.227,5.227,0,0,1,.723-.652,7.194,7.194,0,0,0,2.143-1.94,4.176,4.176,0,0,0,.394-1.819c.007-.311,0-.624-.014-.938-.252-3.636,2.381-6.895,5.509-8.342a7.71,7.71,0,0,1,2.213-.565,7.281,7.281,0,0,1,.953-.063,6.875,6.875,0,0,1,.976.071c2.256.375,4.763,1.63,6.828.033a9.026,9.026,0,0,0,1.055-.813c1.01-.887,1.907-1.972,2.875-2.809a14.357,14.357,0,0,1,8.224-3.4,16.663,16.663,0,0,1,14.775,6.757,16.883,16.883,0,0,1,1.6,2.625,13.271,13.271,0,0,1-.617,12.256,16.157,16.157,0,0,1-15.988,7.881c-.789-.039-1.578-.106-2.366-.189-1.578-.169-3.135-.411-4.64-.65l-1.485-.238a3.442,3.442,0,0,1-1.006-.18,14.164,14.164,0,0,0-2.321-.74,11.954,11.954,0,0,0-1.256-.212,7.43,7.43,0,0,0-2.6.153,2,2,0,0,0-1,.657,2.082,2.082,0,0,0-.305.742,2.216,2.216,0,0,0-.013.735c.379,1.6,1.4,2.973,1.214,4.748a2.933,2.933,0,0,1-1.838,2.672,1.417,1.417,0,0,1-1.165-.214c-1.282-1.295-1.793-3.308-3.612-3.931a3.9,3.9,0,0,0-.993-.2,3.561,3.561,0,0,0-3.352,1.7,2.938,2.938,0,0,0-.274.7,4.816,4.816,0,0,0-.1,1.543,2.928,2.928,0,0,0,.362,1.048c.246.418.5.832.752,1.245s.508.823.757,1.234c.887,2.089,4.409,5.99,1.472,7.019-2.734,1.017-5.246-1.711-6.789-3.959-.255-.369-.493-.744-.73-1.117s-.452-.745-.666-1.109a10.7,10.7,0,0,1-.744-1.552c-.106-.273-.2-.554-.288-.839-.554-1.833-.066-3.782.163-5.657a9.258,9.258,0,0,0-.015-2.911C382.754,2436.182,382.214,2435.351,382,2434.4Z" transform="translate(88.395 -1123.175)" fill="#4cd6f2"/><path d="M410.486,2529.067c-.746-1.6-2.673-2.115-4.357-1.828a4.34,4.34,0,0,0-3.226,2.061,5.418,5.418,0,0,0-.454,1.35A5.581,5.581,0,0,0,406,2536.96c1.518.468,3.556.5,4.293-1.095a8.056,8.056,0,0,0,.522-4.266c-.031-.459-.076-.913-.145-1.38Q410.608,2529.653,410.486,2529.067Z" transform="translate(73.508 -1210.354)" fill="#f9c5c9"/><path d="M623.11,2539.172h46.975a2.253,2.253,0,1,1,0,4.506H623.11a2.253,2.253,0,1,1,0-4.506Z" transform="translate(-85.107 -1219.071)" fill="#fff"/><path d="M623.11,2583.576h46.975a2.253,2.253,0,0,1,0,4.506H623.11a2.253,2.253,0,0,1,0-4.506Z" transform="translate(-85.107 -1251.302)" fill="#fff"/><path d="M649.943,2627.983H623.125a2.253,2.253,0,0,0,0,4.506h26.818a2.253,2.253,0,0,0,0-4.506Z" transform="translate(-85.118 -1283.537)" fill="#fff"/><path d="M718.148,2732.244v-24.327a8.874,8.874,0,0,0-8.874-8.874h-13.6a28.1,28.1,0,0,0-6.931-.691c-33.792,1.143-67.638.1-101.409.619-.459.009-.916.034-1.37.072H570.253a8.874,8.874,0,0,0-8.874,8.874v60.144a8.874,8.874,0,0,0,8.874,8.873h43.889c13.337.349,26.643.274,39.962,0h6.141c2.007,5,3.829,9.99,6.1,14.919a1.814,1.814,0,0,0,2.454.754,1.759,1.759,0,0,0,.165-.1c5.316-4.7,9.232-10.33,13.842-15.574h26.471a8.874,8.874,0,0,0,8.874-8.873v-34.985Q718.15,2732.661,718.148,2732.244Z" transform="translate(-41.933 -1334.61)" fill="#5733d1"/><path d="M705.148,2721.244v-24.327a8.874,8.874,0,0,0-8.874-8.874h-13.6a28.1,28.1,0,0,0-6.931-.691c-33.792,1.143-67.638.1-101.409.619-.459.009-.916.035-1.37.072H557.253a8.874,8.874,0,0,0-8.874,8.874v60.144a8.874,8.874,0,0,0,8.874,8.874h43.889c13.337.349,26.643.274,39.962,0h6.141c2.007,4.995,3.829,9.99,6.1,14.918a1.814,1.814,0,0,0,2.454.754,1.78,1.78,0,0,0,.165-.1c5.316-4.7,9.232-10.33,13.842-15.573h26.471a8.874,8.874,0,0,0,8.874-8.874v-34.984Q705.15,2721.66,705.148,2721.244Z" transform="translate(-32.497 -1326.625)" fill="#6f55d9"/><path d="M952.821,2869.346h-3.608a.47.47,0,0,0-.432.493v8.282a.47.47,0,0,0,.432.493h3.608a.47.47,0,0,0,.432-.493v-8.282A.469.469,0,0,0,952.821,2869.346Z" transform="translate(-323.142 -1458.739)" fill="#fff"/><path d="M624.757,2777.06h46.974a2.253,2.253,0,0,0,.09-4.505H624.757a2.253,2.253,0,0,0-.09,4.505Z" transform="translate(-86.27 -1388.478)" fill="#fff"/><path d="M671.85,2816.961H624.876a2.253,2.253,0,1,0,0,4.506H671.85a2.253,2.253,0,1,0,0-4.506Z" transform="translate(-86.389 -1420.713)" fill="#fff"/><path d="M725.226,2861.368H698.408a2.253,2.253,0,1,0,0,4.505h26.818a2.253,2.253,0,1,0,0-4.505Z" transform="translate(-139.765 -1452.948)" fill="#fff"/><g transform="translate(450.809 1272.589)"><path d="M875.477,2759.864c.236,0,.472,0,.707.007.236-.008.472-.01.707-.007a14.306,14.306,0,0,1,2.681.309h.022l.156.034.2.045.163.039.191.049.156.042c.084.023.167.046.249.071l.191.058.223.068.154.052.189.064.155.054.2.073.139.051q.157.06.314.124l.126.053.207.088.143.063.192.087.139.064c.074.034.147.07.22.106l.1.05q.154.077.306.157l.118.063.2.11.128.072.2.114.116.068.278.168.07.044q.129.081.256.163l.109.072.2.133.112.077c.069.048.138.1.206.146l.09.064c.1.07.191.14.285.212l.067.052c.073.057.146.113.219.171l.1.079.19.155.1.079c.073.063.146.125.219.189l.054.047q.133.118.264.239l.072.068c.066.061.129.12.19.182l.088.085.178.178.078.08c.083.086.165.171.246.258a14.851,14.851,0,0,1,2.414,3.481,31.494,31.494,0,1,0-28.465-.474,14.935,14.935,0,0,1,2.169-3.007A16.142,16.142,0,0,1,875.477,2759.864Z" transform="translate(-698.818 -2614.707)" fill="#4126b4"/><rect width="55.792" height="51.601" rx="9" transform="translate(148.982 88.131)" fill="#fff"/><rect width="25.234" height="14.347" rx="3" transform="translate(165.261 84.547)" fill="#fff"/><path d="M832.693,2753.612a4.979,4.979,0,0,0-4.949,4.98l.015,4.856a4.965,4.965,0,0,0,9.929-.031l-.015-4.857A4.978,4.978,0,0,0,832.693,2753.612Z" transform="translate(-628.849 -2647.319)" fill="#fff"/><path d="M901.237,2731.759l-20.34.134a11.116,11.116,0,0,0,.146,22.231l20.34-.134a11.116,11.116,0,0,0-.146-22.231Z" transform="translate(-716.659 -2631.456)" fill="#4126b4"/><path d="M898.546,2755.221a2.656,2.656,0,0,1,4.6-.191,5.88,5.88,0,0,1,.137,6.417,2.656,2.656,0,0,1-4.6.191A5.88,5.88,0,0,1,898.546,2755.221Z" transform="translate(-736.844 -2647.451)" fill="#fff"/><path d="M967.583,2755.221a2.656,2.656,0,0,1,4.6-.191,5.88,5.88,0,0,1,.137,6.417,2.656,2.656,0,0,1-4.6.191A5.88,5.88,0,0,1,967.583,2755.221Z" transform="translate(-786.956 -2647.451)" fill="#fff"/><g transform="translate(145.739 92.338)"><g transform="translate(0 0)" clip-path="url(#a)"><path d="M916.113,2888a24.675,24.675,0,0,0-1.714-4.011,23.134,23.134,0,0,0-1.711-2.766,20.329,20.329,0,0,0-2.126-2.629,21.906,21.906,0,0,0-6.525-4.677,21.005,21.005,0,0,0-3.959-.456q-.523-.01-1.045.009-.523-.018-1.044-.009A23.837,23.837,0,0,0,881.4,2881.1a22.036,22.036,0,0,0-3.2,4.44A46.638,46.638,0,0,0,916.113,2888Z" transform="translate(-868.453 -2826.647)" fill="#fff"/></g></g><path d="M955.854,2644.422v9.265h1.371v-9.265" transform="translate(-779.085 -2569.14)" fill="#0050a1"/><circle cx="3.691" cy="3.691" r="3.691" transform="translate(173.639 71.531)" fill="#588aff"/></g></g></svg>