<svg xmlns="http://www.w3.org/2000/svg" width="12.069" height="26.107" viewBox="0 0 12.069 26.107"><defs><style>.a{fill:#fff;fill-rule:evenodd;}</style></defs><path class="a" d="M-136.982,274.23v-4.508h2.648a.753.753,0,0,0,.018-.121c0-.634-.012-1.236,0-1.866.006-.58.006-1.149.046-1.73a6.129,6.129,0,0,1,.6-2.334,4.138,4.138,0,0,1,2.5-2.126,6.715,6.715,0,0,1,1.625-.325c.407-.03.82-.059,1.237-.059h3.24c.135,0,.135,0,.135.132v4.27c0,.116,0,.116-.135.116-.777,0-1.574,0-2.364.012a2.544,2.544,0,0,0-.674.1.983.983,0,0,0-.8.934c-.035.378-.035.767-.04,1.162-.011.582-.011,1.15-.018,1.732a.414.414,0,0,0,.018.1h4.037c-.162,1.511-.319,3.01-.476,4.508h-3.456c-.122,0-.122,0-.122.111v12.928h-5.349V274.4c0-.2.012-.167-.168-.167-.8-.007-1.586-.007-2.377-.007Z" transform="translate(136.982 -261.162)"/></svg>