<svg xmlns="http://www.w3.org/2000/svg" width="293.008" height="384.458" viewBox="0 0 293.008 384.458"><g transform="translate(-1210.992 -1262.852)"><rect width="293.008" height="327.38" rx="30" transform="translate(1210.992 1319.93)" fill="#d9f1f9"/><g transform="translate(1250.435 1262.852)"><g transform="translate(19.794)" opacity="0.47"><g opacity="0.54"><path d="M-584.363,3255.74c-6.411-11.507-17.393-21.989-29.9-26.62-12.975-4.8-26.723-4.758-39.114-12.071-7.086-4.182-13.242-9.932-20.74-13.32-35.424-16.01-88.99,29.417-64.1,65.805,1.706,2.495,3.766,4.813,4.824,7.644a12.346,12.346,0,0,1-1.168,10.832c-3.289,5.1-9.43,8.084-13.39,12.739a55.954,55.954,0,0,0-8.7,14.026,62.783,62.783,0,0,0-4.563,32.252c2.613,21.741,16.951,40.724,38.714,45.967,12.879,3.1,26.459.545,39.1-3.412,24.18-7.569,46.654-20.237,66.281-36.261,15.859-12.947,30.281-28.689,37-48.026A60.621,60.621,0,0,0-584.363,3255.74Z" transform="translate(761.666 -3200.423)" fill="#4b85ff"/></g></g><g transform="translate(64.314 24.253)"><path d="M-516.054,3394.679a181.833,181.833,0,0,1-41.146,4.448,262.057,262.057,0,0,1-48.314-4.328l-.183-137.053a240.524,240.524,0,0,1,48.62-4.777,195.574,195.574,0,0,1,40.84,4.657Z" transform="translate(605.697 -3252.969)" fill="#588aff"/><path d="M-591.3,3261.09c-8.954,1.218-14.395,2.459-14.395,2.459l.183,137.053s5.391,1.13,14.4,2.236Z" transform="translate(605.697 -3258.772)" fill="#3a5ce8"/><path d="M0,0H57.009a0,0,0,0,1,0,0V0A10.259,10.259,0,0,1,46.75,10.259H10.259A10.259,10.259,0,0,1,0,0V0A0,0,0,0,1,0,0Z" transform="matrix(1, -0.025, 0.025, 1, 24.048, 66.568)" fill="#3a5ce8"/><rect width="57.096" height="55.028" rx="8.188" transform="matrix(1, -0.001, 0.001, 1, 23.932, 17.21)" fill="#4cd6f2"/><rect width="46.332" height="44.654" transform="translate(29.321 22.389) rotate(-0.077)" fill="#32a0bc"/><rect width="42.224" height="40.695" transform="translate(29.361 26.316) rotate(-0.077)" fill="#fff"/><g transform="translate(26.72 83.27)"><g transform="translate(9.458)"><path d="M-471.814,3547.889a3.58,3.58,0,0,1-3.18,3.939,3.58,3.58,0,0,1-3.939-3.18,3.58,3.58,0,0,1,3.18-3.94A3.581,3.581,0,0,1-471.814,3547.889Z" transform="translate(478.954 -3544.688)" fill="#fefefe"/><path d="M-463.9,3622.074a3.58,3.58,0,0,1-3.18,3.939,3.58,3.58,0,0,1-3.939-3.18,3.58,3.58,0,0,1,3.18-3.94A3.58,3.58,0,0,1-463.9,3622.074Z" transform="translate(473.297 -3597.698)" fill="#fefefe"/></g><g transform="translate(0 9.458)"><path d="M-433.943,3584.963a3.58,3.58,0,0,1-3.939-3.18,3.579,3.579,0,0,1,3.18-3.939,3.58,3.58,0,0,1,3.939,3.18A3.58,3.58,0,0,1-433.943,3584.963Z" transform="translate(459.078 -3577.823)" fill="#fefefe"/><path d="M-508.128,3592.88a3.58,3.58,0,0,1-3.939-3.18,3.579,3.579,0,0,1,3.18-3.939,3.58,3.58,0,0,1,3.939,3.179A3.58,3.58,0,0,1-508.128,3592.88Z" transform="translate(512.088 -3583.48)" fill="#fefefe"/></g></g><g transform="translate(61.474 79.579)"><path d="M-386.8,3559.519h0a6.483,6.483,0,0,1-2.82-8.724l7.929-15.5a6.483,6.483,0,0,1,8.724-2.82h0a6.484,6.484,0,0,1,2.82,8.724l-7.929,15.5A6.483,6.483,0,0,1-386.8,3559.519Z" transform="translate(390.335 -3531.759)" fill="#fff"/><path d="M-349.532,3550.434a3.58,3.58,0,0,1-3.535-3.625,3.58,3.58,0,0,1,3.624-3.535,3.58,3.58,0,0,1,3.535,3.624A3.58,3.58,0,0,1-349.532,3550.434Z" transform="translate(363.705 -3539.988)" fill="#4cd6f2"/><path d="M-374.954,3600.14a3.58,3.58,0,0,1-3.535-3.624,3.58,3.58,0,0,1,3.625-3.535,3.58,3.58,0,0,1,3.535,3.624A3.58,3.58,0,0,1-374.954,3600.14Z" transform="translate(381.87 -3575.506)" fill="#4cd6f2"/></g></g><path d="M-415.065,3579.043" transform="translate(533.794 -3461.714)" fill="none" stroke="#6f55d9" stroke-miterlimit="10" stroke-width="1"/><g transform="translate(0 75.395)"><g transform="translate(0 0)"><path d="M-727.08,3591.521l3.14-59.886,11.717-1.6,17.369,58.691Z" transform="translate(756.746 -3502.093)" fill="#588aff"/><path d="M-720.956,3535.677l-2.984-.048-3.14,59.886,6.722-2.111C-720.41,3592.682-720.258,3537.786-720.956,3535.677Z" transform="translate(756.746 -3506.087)" fill="#3a5ce8"/><g transform="translate(0 77.373)"><rect width="68.993" height="26.439" transform="translate(18.636 13.939) rotate(-7.754)" fill="#32a0bc"/><rect width="29.69" height="26.439" transform="translate(0.63 16.39) rotate(-7.754)" fill="#4cd6f2"/><rect width="87.165" height="4.672" transform="translate(0 11.761) rotate(-7.754)" fill="#4cd6f2"/></g><circle cx="19.005" cy="19.005" r="19.005" transform="matrix(0.931, -0.365, 0.365, 0.931, 13.364, 13.875)" fill="#4126b4"/></g><path d="M-739.534,3460.964c1.75-2.05,4.025-3.97,5.086-6.381a18.886,18.886,0,0,0-13.495-3.3A18.967,18.967,0,0,0-764.3,3468.76a31.721,31.721,0,0,0,19.316-3.041A18.058,18.058,0,0,0-739.534,3460.964Z" transform="translate(783.345 -3445.69)" fill="#453faa"/></g><g transform="translate(40.502 110.331)"><path d="M-547.606,3592.661v-.062h-87.966a36.8,36.8,0,0,0-36.8,36.8,36.8,36.8,0,0,0,36.8,36.8,36.68,36.68,0,0,0,26.548-11.331h32.786a36.68,36.68,0,0,0,26.548,11.331,36.8,36.8,0,0,0,36.8-36.8A36.8,36.8,0,0,0-547.606,3592.661Z" transform="translate(677.151 -3581.731)" fill="#4126b4"/><g transform="translate(0 0)"><path d="M-551.257,3564.512v-.062h-87.966a36.8,36.8,0,0,0-36.8,36.8,36.8,36.8,0,0,0,36.8,36.8,36.68,36.68,0,0,0,26.548-11.332h32.786a36.68,36.68,0,0,0,26.548,11.332,36.8,36.8,0,0,0,36.8-36.8A36.8,36.8,0,0,0-551.257,3564.512Z" transform="translate(679.759 -3561.617)" fill="#6f55d9"/><circle cx="28.023" cy="28.023" r="28.023" transform="translate(0 39.631) rotate(-45)" fill="#3a5ce8"/><g transform="translate(9.045 8.411)"><circle cx="25.358" cy="25.358" r="25.358" transform="translate(0 11.862) rotate(-13.526)" fill="#fff"/></g><circle cx="28.023" cy="28.023" r="28.023" transform="translate(84.098 39.631) rotate(-45)" fill="#32a0bc"/><g transform="translate(94.503 9.771)"><circle cx="25.358" cy="25.358" r="25.358" transform="translate(0 8.443) rotate(-9.583)" fill="#fff"/></g></g><path d="M-465.188,3564.449l8.182,9.81h22.832l6.85-9.81Z" transform="translate(529.108 -3561.617)" fill="#3a5ce8"/><path d="M-453.19,3564.449l6.7,8.035h18.7l5.61-8.035Z" transform="translate(520.534 -3561.617)" fill="#4126b4"/><g transform="translate(106.686 19.222)"><path d="M-313.12,3648.167h0a7,7,0,0,1-.383-9.888l13.11-14.166a7,7,0,0,1,9.888-.383h0a7,7,0,0,1,.383,9.888l-13.11,14.166A7,7,0,0,1-313.12,3648.167Z" transform="translate(315.365 -3621.868)" fill="#4126b4"/><path d="M-259.736,3634.274a5.4,5.4,0,0,0-7.629.3,5.4,5.4,0,0,0,.3,7.629,5.4,5.4,0,0,0,7.629-.3A5.4,5.4,0,0,0-259.736,3634.274Z" transform="translate(282.093 -3629.706)" fill="#588aff"/><circle cx="5.398" cy="5.398" r="5.398" transform="translate(1.143 21.017) rotate(-57.064)" fill="#588aff"/></g><g transform="translate(117.221 31.432)"><path d="M-276.21,3690.94h0a7,7,0,0,1-.383-9.889l13.11-14.166a7,7,0,0,1,9.889-.382h0a7,7,0,0,1,.383,9.888l-13.11,14.166A7,7,0,0,1-276.21,3690.94Z" transform="translate(278.455 -3664.641)" fill="#4126b4"/><circle cx="5.398" cy="5.398" r="5.398" transform="translate(11.281 10.372) rotate(-58.965)" fill="#6f55d9"/><path d="M-258.141,3715.2a5.4,5.4,0,0,0-7.629.295,5.4,5.4,0,0,0,.3,7.629,5.4,5.4,0,0,0,7.629-.295A5.4,5.4,0,0,0-258.141,3715.2Z" transform="translate(270.417 -3699.745)" fill="#6f55d9"/></g><rect width="6.707" height="4.947" transform="translate(73.428 36.523)" fill="#4126b4"/><rect width="6.707" height="4.947" transform="translate(85.567 36.523)" fill="#4126b4"/><rect width="11.156" height="30.119" transform="translate(34.053 23.584)" fill="#4126b4"/><rect width="11.156" height="30.119" transform="translate(54.69 33.066) rotate(90)" fill="#4126b4"/></g><g transform="translate(4.524 40.278)"><path d="M-265.578,3357.886l-11.645,10.616,8.793,4.339-14.1,12.076,3.613-9.52-9.479-4.717,9.343-16.291Z" transform="translate(438.755 -3341.464)" fill="#fff"/><path d="M-815.162,3616.227l15.85.238-3.733,9.129,18.669-.295-9.067-4.765,4-9.872-17.9-6.048Z" transform="translate(815.162 -3520.264)" fill="#fff"/><g transform="translate(5.699 64.18)"><path d="M-794.936,3540.767h0a.982.982,0,0,1,.056-1.387l5.6-5.17a.981.981,0,0,1,1.386.056h0a.981.981,0,0,1-.056,1.386l-5.6,5.17A.981.981,0,0,1-794.936,3540.767Z" transform="translate(795.196 -3533.951)" fill="#4cd6f2"/><path d="M-787.891,3540.767h0a.981.981,0,0,0-.056-1.387l-5.6-5.17a.981.981,0,0,0-1.386.056h0a.981.981,0,0,0,.056,1.386l5.6,5.17A.981.981,0,0,0-787.891,3540.767Z" transform="translate(795.196 -3533.951)" fill="#4cd6f2"/></g><g transform="translate(180.137 32.944)"><path d="M-183.738,3433.6h0a1.307,1.307,0,0,1,.074-1.846l7.46-6.883a1.306,1.306,0,0,1,1.846.075h0a1.306,1.306,0,0,1-.074,1.846l-7.46,6.883A1.306,1.306,0,0,1-183.738,3433.6Z" transform="translate(184.084 -3424.522)" fill="#4cd6f2"/><path d="M-174.358,3433.6h0a1.307,1.307,0,0,0-.074-1.846l-7.46-6.883a1.307,1.307,0,0,0-1.846.075h0a1.306,1.306,0,0,0,.074,1.846l7.46,6.883A1.306,1.306,0,0,0-174.358,3433.6Z" transform="translate(184.084 -3424.522)" fill="#4cd6f2"/></g><circle cx="4.198" cy="4.198" r="4.198" transform="translate(11.119 39.185)" fill="#6f55d9"/><circle cx="1.924" cy="1.924" r="1.924" transform="translate(159.885 0)" fill="#6f55d9"/><path d="M-99.127,3461.381a3.384,3.384,0,0,1-3.384,3.384,3.384,3.384,0,0,1-3.384-3.384,3.384,3.384,0,0,1,3.384-3.384A3.384,3.384,0,0,1-99.127,3461.381Z" transform="translate(308.351 -3415.498)" fill="#6f55d9"/></g></g></g></svg>