<svg xmlns="http://www.w3.org/2000/svg" width="26.255" height="26.242" viewBox="0 0 26.255 26.242"><defs><style>.a{fill:#fff;fill-rule:evenodd;}.b{mix-blend-mode:overlay;isolation:isolate;}</style></defs><g transform="translate(0 0)"><path class="a" d="M-117.593,543.712a7.757,7.757,0,0,0-1.389-4.126,7.382,7.382,0,0,0-5.647-2.887c-2.072-.144-4.151-.082-6.224-.1h-.783a50.412,50.412,0,0,0-5.523.179,6.861,6.861,0,0,0-6.17,5.3,17.011,17.011,0,0,0-.38,4.017c-.019,2.112-.008,4.23,0,6.343a30.715,30.715,0,0,0,.181,3.871,6.924,6.924,0,0,0,5.274,6.163,19.233,19.233,0,0,0,4.018.352c2.123.021,4.255.021,6.369.008a29,29,0,0,0,3.811-.175,6.914,6.914,0,0,0,6.339-6.044,21.75,21.75,0,0,0,.231-3.886C-117.486,549.715-117.391,546.728-117.593,543.712Zm-2.267,7.687c0,1.388.011,2.774-.1,4.162a5.189,5.189,0,0,1-1.589,3.6,5.1,5.1,0,0,1-2.714,1.119,19.268,19.268,0,0,1-3.1.167c-2.151.019-4.3.019-6.476,0a20.339,20.339,0,0,1-3.36-.209,4.558,4.558,0,0,1-3.969-4.2,27.9,27.9,0,0,1-.155-3.12c-.017-2.118-.017-4.286,0-6.431a20.563,20.563,0,0,1,.209-3.4,4.569,4.569,0,0,1,4.189-3.933c1.029-.123,2.078-.123,3.107-.164,1.073-.022,2.16,0,3.236,0,1.945,0,3.892-.042,5.824.1a5.06,5.06,0,0,1,3.638,1.65,5.124,5.124,0,0,1,1.145,3.092C-119.811,546.342-119.848,548.874-119.86,551.4Z" transform="translate(143.719 -536.597)"/><path class="a" d="M-117.6,545.758a1.562,1.562,0,0,1-1.6-1.589,1.572,1.572,0,0,1,1.579-1.565,1.569,1.569,0,0,1,1.581,1.551A1.553,1.553,0,0,1-117.6,545.758Z" transform="translate(137.738 -538.062)"/><path class="a" d="M-128.5,545.023a6.754,6.754,0,0,0-6.78,6.708,6.739,6.739,0,0,0,6.753,6.775,6.748,6.748,0,0,0,6.74-6.736A6.741,6.741,0,0,0-128.5,545.023Zm-.065,11.11a4.349,4.349,0,0,1-4.322-4.375,4.345,4.345,0,0,1,4.4-4.349,4.343,4.343,0,0,1,4.313,4.36A4.361,4.361,0,0,1-128.568,556.133Z" transform="translate(141.661 -538.652)"/></g><g class="b" transform="translate(0 0)"><path class="a" d="M-117.593,543.712a7.757,7.757,0,0,0-1.389-4.126,7.382,7.382,0,0,0-5.647-2.887c-2.072-.144-4.151-.082-6.224-.1h-.783a50.412,50.412,0,0,0-5.523.179,6.861,6.861,0,0,0-6.17,5.3,17.011,17.011,0,0,0-.38,4.017c-.019,2.112-.008,4.23,0,6.343a30.715,30.715,0,0,0,.181,3.871,6.924,6.924,0,0,0,5.274,6.163,19.233,19.233,0,0,0,4.018.352c2.123.021,4.255.021,6.369.008a29,29,0,0,0,3.811-.175,6.914,6.914,0,0,0,6.339-6.044,21.75,21.75,0,0,0,.231-3.886C-117.486,549.715-117.391,546.728-117.593,543.712Zm-2.267,7.687c0,1.388.011,2.774-.1,4.162a5.189,5.189,0,0,1-1.589,3.6,5.1,5.1,0,0,1-2.714,1.119,19.268,19.268,0,0,1-3.1.167c-2.151.019-4.3.019-6.476,0a20.339,20.339,0,0,1-3.36-.209,4.558,4.558,0,0,1-3.969-4.2,27.9,27.9,0,0,1-.155-3.12c-.017-2.118-.017-4.286,0-6.431a20.563,20.563,0,0,1,.209-3.4,4.569,4.569,0,0,1,4.189-3.933c1.029-.123,2.078-.123,3.107-.164,1.073-.022,2.16,0,3.236,0,1.945,0,3.892-.042,5.824.1a5.06,5.06,0,0,1,3.638,1.65,5.124,5.124,0,0,1,1.145,3.092C-119.811,546.342-119.848,548.874-119.86,551.4Z" transform="translate(143.719 -536.597)"/><path class="a" d="M-117.6,545.758a1.562,1.562,0,0,1-1.6-1.589,1.572,1.572,0,0,1,1.579-1.565,1.569,1.569,0,0,1,1.581,1.551A1.553,1.553,0,0,1-117.6,545.758Z" transform="translate(137.738 -538.062)"/><path class="a" d="M-128.5,545.023a6.754,6.754,0,0,0-6.78,6.708,6.739,6.739,0,0,0,6.753,6.775,6.748,6.748,0,0,0,6.74-6.736A6.741,6.741,0,0,0-128.5,545.023Zm-.065,11.11a4.349,4.349,0,0,1-4.322-4.375,4.345,4.345,0,0,1,4.4-4.349,4.343,4.343,0,0,1,4.313,4.36A4.361,4.361,0,0,1-128.568,556.133Z" transform="translate(141.661 -538.652)"/></g></svg>