<svg xmlns="http://www.w3.org/2000/svg" width="28.486" height="23.178" viewBox="0 0 28.486 23.178"><defs><style>.a{fill:#fff;fill-rule:evenodd;}</style></defs><path class="a" d="M-118.334,180.12v.026a2.8,2.8,0,0,1-.521.787,10.426,10.426,0,0,1-1.279,1.383c-.285.258-.6.518-.913.748a.312.312,0,0,0-.139.267v.828a14.649,14.649,0,0,1-.184,2.242,16.538,16.538,0,0,1-.677,2.778,18.26,18.26,0,0,1-1.2,2.8,20.186,20.186,0,0,1-1.788,2.675,10.989,10.989,0,0,1-.89.987,13.924,13.924,0,0,1-1.962,1.754,12.064,12.064,0,0,1-1.644,1.084,15.645,15.645,0,0,1-2.918,1.292,16.883,16.883,0,0,1-2.943.67c-.425.06-.858.079-1.281.1h-1.977a13.368,13.368,0,0,1-3.847-.583,15.933,15.933,0,0,1-3.21-1.3c-.34-.179-.67-.369-1.005-.583-.116-.065-.127-.114-.072-.191a2.554,2.554,0,0,1,.386,0,7.882,7.882,0,0,0,1.5.039c.438-.039.869-.058,1.292-.125a12.2,12.2,0,0,0,3.029-.922,13.558,13.558,0,0,0,2.151-1.274c.011-.017.017-.017.04-.039-.216-.049-.422-.049-.633-.086a6.2,6.2,0,0,1-1.981-.682,5.686,5.686,0,0,1-1.47-1.2,5.394,5.394,0,0,1-1-1.5c-.072-.153-.139-.317-.2-.5-.055-.153.009-.241.179-.2a5,5,0,0,0,.848.086,5.588,5.588,0,0,0,1.356-.157,3.679,3.679,0,0,1-.75-.229,7.921,7.921,0,0,1-.742-.354,5.884,5.884,0,0,1-.66-.441,6.088,6.088,0,0,1-1.641-1.936,6.109,6.109,0,0,1-.652-2.041,5.975,5.975,0,0,1-.027-.671c.011-.143.084-.192.216-.116a6,6,0,0,0,2,.622,1.169,1.169,0,0,0,.251.01,7.046,7.046,0,0,1-.72-.633,5.45,5.45,0,0,1-1.083-1.487,5.56,5.56,0,0,1-.59-2.071,5.857,5.857,0,0,1,.276-2.518,7.3,7.3,0,0,1,.385-.9c.109-.18.182-.18.321-.01.251.288.5.576.768.844a13.741,13.741,0,0,0,1.615,1.476,16.2,16.2,0,0,0,2.227,1.5,15.666,15.666,0,0,0,3.041,1.345,18.437,18.437,0,0,0,2.956.66c.351.038.7.076,1.059.1.123.018.139,0,.123-.135a6.121,6.121,0,0,1-.084-.623,5.972,5.972,0,0,1,0-1,5.677,5.677,0,0,1,.174-1.034,5.888,5.888,0,0,1,1.125-2.2,5.645,5.645,0,0,1,2.013-1.592,4.806,4.806,0,0,1,1.371-.47,4.737,4.737,0,0,1,.633-.049.138.138,0,0,0,.059-.009h.12a.3.3,0,0,0,.126,0h.782c.173.02.35.02.524.038a4.7,4.7,0,0,1,1.212.337,5.817,5.817,0,0,1,1.648,1.013,2.115,2.115,0,0,1,.287.3.263.263,0,0,0,.237.066,12.649,12.649,0,0,0,2.116-.668c.441-.2.872-.405,1.282-.626a.12.12,0,0,1,.156-.02c.052.039.034.1.015.143a4.247,4.247,0,0,1-.5,1.074,5.034,5.034,0,0,1-1.057,1.306,3.242,3.242,0,0,1-.771.6h0a9.525,9.525,0,0,0,1.313-.267,9.1,9.1,0,0,0,1.6-.545C-118.462,180.111-118.4,180.053-118.334,180.12Z" transform="translate(146.82 -177.369)"/><path class="a" d="M-134.648,210.656h.961c.01,0,.01.01,0,.01h-.954C-134.653,210.666-134.653,210.656-134.648,210.656Z" transform="translate(143.121 -187.488)"/><path class="a" d="M-134.738,210.656l.007.01h-.2c-.028,0-.028-.01,0-.01Z" transform="translate(143.211 -187.488)"/><path class="a" d="M-133.265,210.666v-.01h.193c.03,0,.03.01,0,.01Z" transform="translate(142.699 -187.488)"/><path class="a" d="M-118.935,177.369a.143.143,0,0,1-.126,0Z" transform="translate(138.382 -177.369)"/></svg>